<svg width="100" height="32" viewBox="0 0 100 32" fill="none" xmlns="http://www.w3.org/2000/svg">
<path d="M58.5755 17.0897C58.6784 18.2134 58.5651 19.2977 58.1343 20.5408C58.1341 20.5415 58.1339 20.5421 58.1337 20.5428C58.0713 20.7195 58.0009 20.9004 57.9226 21.0832C57.4692 22.1226 56.7578 23.3356 55.3858 24.5192C54.8301 24.992 54.1753 25.4412 53.4149 25.8428C50.4795 27.3439 47.8965 27.3706 46.4014 27.3077C46.1196 27.2896 45.8276 27.2882 45.0941 27.2328C44.6139 27.1919 43.9627 27.1318 43.0338 26.9351C42.5408 26.8285 41.9697 26.6818 41.3138 26.4448C40.9229 26.303 40.4965 26.1272 40.0521 25.9028C37.7904 24.7958 36.1004 21.9225 36.006 19.0872C35.893 16.9796 36.6632 15.0285 37.5156 13.8111C38.671 12.1252 40.2629 10.9373 42.0676 10.0518C42.2063 9.98402 42.3511 9.92073 42.5025 9.86114C44.5468 9.11988 46.5938 9.0201 48.9658 8.92431C50.7915 8.87155 52.5241 8.97366 54.3136 9.12456C54.5495 9.14427 54.7602 9.16384 54.9865 9.18475C56.5469 9.32925 58.1498 9.50904 59.8544 9.68958C62.9153 10.0168 65.3619 10.2472 68.0616 10.5365C69.1177 10.6507 70.2117 10.7759 71.4003 10.9285C73.2705 11.1674 75.9706 11.5642 78.6627 12.0168C78.8924 12.0553 79.1215 12.094 79.349 12.1329C79.3501 12.133 79.3513 12.1332 79.3525 12.1334C81.8242 12.5544 84.2242 13.0113 85.9918 13.3657C88.8123 13.9345 89.8294 14.1619 90.7466 14.3579C91.0844 14.4317 91.3534 14.4903 91.7396 14.5837C93.0554 14.9497 94.9903 15.2802 97.0431 16.4862C97.0523 16.4928 97.0614 16.4995 97.0704 16.5062C97.2734 16.6696 97.3761 16.7619 97.5118 17.0866C97.6104 17.3732 97.5071 17.5926 97.4607 17.5727C97.4092 17.5652 97.3975 17.3703 97.2684 17.1932C97.1108 16.9797 97.0165 16.9437 96.8405 16.8032C95.7919 16.1231 94.8577 15.8852 93.9096 15.5694C93.8376 15.6403 93.5845 15.6318 93.2837 15.5425C92.541 15.3188 90.2686 14.7522 86.6461 14.108C86.8923 14.1762 87.095 14.2355 87.271 14.2886C87.4774 14.351 87.633 14.4003 87.766 14.4426C88.0341 14.529 88.2459 14.5941 88.5864 14.6843C89.3739 14.8775 90.6086 15.1669 91.9148 15.5192C92.2456 15.6084 92.4741 15.7604 92.445 15.8598C92.4153 15.9591 92.1409 15.9689 91.8122 15.8803C91.8057 15.8786 91.7993 15.8769 91.7929 15.8752C90.5075 15.5287 89.2399 15.2314 88.415 15.0295C88.2033 14.9777 88.0145 14.931 87.8786 14.8966C87.7742 14.8701 87.643 14.8365 87.5703 14.8145C87.5607 14.8116 87.5423 14.8059 87.5205 14.7986C87.5201 14.7985 87.5198 14.7984 87.5194 14.7982C87.5072 14.7941 87.4449 14.7734 87.3796 14.7438C87.3664 14.7378 87.3378 14.7245 87.3051 14.7061C87.2963 14.7034 87.2874 14.7006 87.2786 14.6978C87.155 14.6591 87.028 14.6195 86.8891 14.5781C86.3325 14.4142 85.4981 14.1755 83.6724 13.7623C81.998 13.3842 79.1738 12.8432 75.6051 12.2948C75.8461 12.3397 76.0868 12.3847 76.3267 12.4296C76.9319 12.5428 77.5255 12.6548 78.1411 12.7721C78.3745 12.8166 78.6038 12.8607 78.8365 12.9055C79.2127 12.9781 79.5781 13.0496 79.9585 13.1244C80.216 13.1751 80.4726 13.2259 80.7272 13.277C80.7277 13.2771 80.7283 13.2772 80.7289 13.2773C81.0823 13.3481 81.4335 13.4194 81.7838 13.4918C81.9057 13.5172 82.0285 13.5427 82.1536 13.5687C82.6477 13.6716 83.1269 13.773 83.6662 13.8993C83.7316 13.9156 83.8022 13.9341 83.8548 13.9483C83.9113 13.9636 83.9655 13.9784 84.0166 13.9928C84.0606 14.0053 84.1074 14.0184 84.1501 14.0304C84.1558 14.0321 84.1616 14.0337 84.1674 14.0353C84.2156 14.0489 84.2616 14.0617 84.3058 14.074C84.3498 14.0863 84.3923 14.0981 84.434 14.1094C84.4344 14.1094 84.4348 14.1095 84.4352 14.1096C84.4788 14.1213 84.5119 14.1301 84.5581 14.1419C84.6162 14.1567 84.666 14.1692 84.7263 14.1837C84.7846 14.1977 84.8454 14.212 84.9067 14.2262C84.9679 14.2403 85.0302 14.2545 85.0933 14.2686C85.1564 14.2828 85.2204 14.2971 85.2848 14.3113C85.3491 14.3256 85.4141 14.3398 85.4793 14.3542C85.5446 14.3685 85.6103 14.383 85.6761 14.3975C85.8286 14.4311 85.9656 14.4805 86.0692 14.538C86.1741 14.5957 86.2264 14.6543 86.2159 14.7015C86.2053 14.7487 86.1325 14.781 86.0125 14.7918C85.8943 14.8029 85.7485 14.7935 85.5956 14.7642C85.5541 14.7562 85.5124 14.7483 85.4704 14.7402C85.4455 14.7355 85.4204 14.7306 85.3953 14.7257C85.3278 14.7128 85.2594 14.6998 85.1904 14.6865C85.1215 14.6731 85.0518 14.6595 84.9811 14.6456C84.9102 14.6317 84.8382 14.6174 84.765 14.6026C84.6919 14.5878 84.6171 14.5724 84.541 14.5562C84.4667 14.5405 84.3818 14.522 84.3058 14.5048C84.2502 14.4923 84.1817 14.4762 84.1244 14.4625C84.0651 14.4484 84.0045 14.4337 83.9502 14.4201C83.8959 14.4066 83.8434 14.3932 83.7932 14.3805C83.7878 14.3791 83.7824 14.3778 83.777 14.3764C83.7326 14.3652 83.6896 14.3543 83.6489 14.3442C83.6034 14.3328 83.5602 14.3223 83.5191 14.3126C83.4738 14.3018 83.4461 14.2957 83.4121 14.2883C82.9626 14.1964 82.3936 14.0913 81.8464 13.9928C81.7799 13.9809 81.7136 13.9689 81.6479 13.9572C81.299 13.8948 80.9474 13.8331 80.593 13.7719C80.3353 13.7273 80.0758 13.683 79.8144 13.6386C79.434 13.5741 79.0618 13.5118 78.681 13.4487C78.4453 13.4097 78.2128 13.3714 77.9757 13.3326C77.3489 13.2301 76.7474 13.1333 76.1255 13.0338C75.5061 12.9348 74.8819 12.8357 74.2632 12.7372C73.6459 12.6388 72.9947 12.5346 72.377 12.4325C71.9214 12.357 71.4541 12.2728 71.0213 12.1939C70.7887 12.1515 70.5606 12.1098 70.3362 12.069C70.3355 12.0688 70.3347 12.0687 70.334 12.0685C70.1372 12.0327 69.9428 11.9975 69.7498 11.9633C69.3358 11.8897 68.9286 11.8203 68.5213 11.7547C68.1151 11.6893 67.708 11.6276 67.2982 11.5695C66.8915 11.5119 66.4782 11.4572 66.0696 11.4068C65.6608 11.3564 65.2513 11.3094 64.8253 11.2638C64.2635 11.2039 63.7128 11.1503 63.1407 11.0977C62.5687 11.0452 61.9958 10.9962 61.4261 10.9503C61.2258 10.9341 61.0321 10.9188 60.8257 10.9028C60.825 10.9028 60.8242 10.9027 60.8234 10.9026C60.447 10.8736 60.072 10.8459 59.6993 10.8196C59.1249 10.7791 58.5532 10.7415 57.9643 10.7053C57.3769 10.6693 56.8157 10.6376 56.2179 10.6059C55.6222 10.5743 55.0211 10.5451 54.4304 10.5158C53.8775 10.4889 53.3299 10.4649 52.8077 10.4464C52.6692 10.4415 52.5343 10.437 52.3949 10.4327C51.7062 10.4122 51.0727 10.4025 50.4465 10.4071C49.7813 10.4122 49.1821 10.4307 48.5323 10.468C47.8661 10.5069 47.2867 10.5567 46.6067 10.6381C45.9805 10.7149 45.318 10.8204 44.7255 10.9553C44.0942 11.0986 43.5029 11.2724 42.9839 11.526C42.9347 11.5504 42.8872 11.5752 42.8418 11.6002C42.5736 11.7447 42.3188 11.8926 42.0716 12.0465C41.7643 12.2378 41.4783 12.433 41.1996 12.6425C41.0881 12.7264 40.9812 12.81 40.8714 12.8994C40.7126 13.029 40.5685 13.1542 40.4227 13.2889C40.1787 13.5145 39.9591 13.7426 39.7585 13.9767C39.5598 14.2088 39.3806 14.4469 39.2236 14.6864C39.0625 14.9336 38.9433 15.1453 38.8198 15.4033C38.5152 16.0318 38.383 16.4398 38.2619 16.8947C38.2386 16.9855 38.217 17.0784 38.1969 17.175C38.0795 17.7283 38.0319 18.2932 38.052 18.8489C38.0723 19.4099 38.1593 19.9601 38.3112 20.4988C38.4617 21.032 38.677 21.5508 38.9502 22.0285C39.2227 22.5051 39.5532 22.9428 39.9331 23.3141C40.2469 23.6212 40.6003 23.885 40.9655 24.0758C41.0509 24.1204 41.1375 24.1636 41.225 24.2055C41.5174 24.3458 41.8408 24.48 42.1484 24.5907C42.3708 24.671 42.5924 24.7427 42.8147 24.8074C42.9046 24.8335 42.9948 24.8586 43.0848 24.8824C43.3948 24.9643 43.7004 25.0313 43.9999 25.0849C44.2982 25.1382 44.5905 25.1783 44.8786 25.2065C45.166 25.2347 45.4497 25.251 45.7338 25.2566C46.0278 25.2618 46.2728 25.2579 46.5848 25.2407C46.7882 25.2291 46.9867 25.2135 47.1845 25.1939C47.4803 25.1646 47.7729 25.1264 48.0653 25.0788C48.3575 25.0311 48.644 24.9749 48.9285 24.9093C49.0202 24.8882 49.1166 24.8649 49.2077 24.8417C49.4893 24.7701 49.7643 24.6902 50.035 24.6008C50.3047 24.5117 50.5676 24.4141 50.8244 24.3073C51.0813 24.2003 51.3287 24.0857 51.5744 23.959C51.9914 23.7439 52.3731 23.5233 52.6935 23.3134C53.0175 23.1014 53.3026 22.888 53.5629 22.6645C53.6011 22.6317 53.6388 22.5986 53.676 22.5652C53.6861 22.5562 53.6961 22.5471 53.7061 22.538C53.9069 22.3556 54.0939 22.1627 54.2654 21.9622C54.477 21.7148 54.6655 21.4564 54.8339 21.1848C55.0006 20.9159 55.1479 20.6318 55.269 20.3444C55.3912 20.0538 55.4863 19.7693 55.5622 19.4579C55.6365 19.1507 55.6855 18.8329 55.7055 18.4874C55.7253 18.1446 55.7138 17.7856 55.6677 17.4288C55.6218 17.0711 55.5419 16.7155 55.4306 16.3689C55.3184 16.0195 55.1765 15.6842 55.005 15.3559C54.8356 15.0317 54.6347 14.7123 54.4138 14.4115C54.1898 14.1056 53.9357 13.8073 53.679 13.5387C53.2637 13.1031 52.788 12.6919 52.2893 12.3223C51.7908 11.9522 51.2457 11.6061 50.6886 11.2954C50.5703 11.2295 50.4495 11.1639 50.326 11.0988C50.0337 10.9407 49.6011 10.7959 49.1511 10.698C48.5776 10.5709 47.924 10.498 47.3062 10.4614C47.1642 10.453 47.0188 10.4461 46.8701 10.4408C46.3531 10.4226 45.8691 10.4223 45.3256 10.4364C45.3219 10.4365 45.3182 10.4366 45.3145 10.4366C44.6839 10.4526 43.9712 10.4945 43.3353 10.5465C43.0936 10.5662 42.8577 10.5873 42.6147 10.6111C42.371 10.635 42.1282 10.6609 41.8988 10.687C41.6649 10.7136 41.4296 10.7422 41.1954 10.7724C40.9586 10.803 40.7254 10.8348 40.4879 10.8693C40.2789 10.8996 40.0721 10.9313 39.843 10.9675C39.8221 10.9708 39.8012 10.9741 39.7803 10.9774C39.5294 11.0172 39.2412 11.0632 38.9703 11.1057C38.2564 11.2173 37.5848 11.3321 36.8692 11.4634C36.1756 11.5908 35.4742 11.7283 34.7651 11.8742C34.4927 11.9303 34.2178 11.988 33.9417 12.0467C33.5137 12.1378 33.0735 12.2336 32.6459 12.3284C31.94 12.4848 31.2196 12.6486 30.5061 12.8134C29.7945 12.9778 29.0716 13.1473 28.3581 13.3161C27.6434 13.4853 26.9236 13.6573 26.2105 13.8291C25.4174 14.02 24.631 14.2124 23.8381 14.4099C23.0525 14.6055 22.2562 14.8073 21.4735 15.0087C20.6989 15.2077 19.8886 15.42 19.117 15.6243C18.322 15.8353 17.5493 16.0428 16.7582 16.2584C16.2823 16.3881 15.8144 16.5165 15.3552 16.6432C15.108 16.7261 14.8675 16.8072 14.6417 16.8837C12.9968 17.4422 11.7671 17.8671 10.1888 18.3954C10.0346 18.4488 9.91172 18.4944 9.76452 18.5492C9.73646 18.5597 9.70676 18.5706 9.67661 18.5819C9.48461 18.6533 9.27705 18.7302 8.94469 18.8433C8.31103 19.0598 7.37295 19.3576 6.09894 19.6852C5.74024 19.7802 5.53146 19.7444 5.562 19.6276C5.58568 19.5449 5.73113 19.441 5.95303 19.3493C5.74147 19.4127 5.54838 19.4702 5.37466 19.5214C5.22238 19.5655 4.95929 19.6468 4.80704 19.6913C4.69063 19.7251 4.47095 19.7747 4.40417 19.7582C4.254 19.7701 4.24275 19.7237 4.2294 19.6773C4.22247 19.6541 4.21067 19.6334 4.23492 19.6025C4.24667 19.5871 4.27262 19.5674 4.30902 19.5449C4.32099 19.5307 4.33669 19.5158 4.35726 19.5002C4.42905 19.441 4.63648 19.3523 4.74773 19.3159C5.17211 19.1758 5.52926 19.0596 5.95348 18.9215C6.31384 18.8043 6.77508 18.6545 7.13619 18.5378C7.52989 18.4104 7.94921 18.2751 8.33131 18.1521C8.72778 18.0246 9.14634 17.8906 9.52881 17.7684C9.92031 17.6433 10.3549 17.5051 10.7305 17.386C10.9659 17.3115 11.2092 17.2347 11.4525 17.1581C11.5432 17.1295 11.6323 17.1014 11.722 17.0732C11.7954 17.0501 11.8701 17.0268 11.9398 17.0049C12.6864 16.7705 13.5049 16.5164 14.2611 16.284C15.0548 16.0403 15.8116 15.8102 16.6044 15.5724C17.3876 15.3375 18.1607 15.1082 18.9485 14.878C19.7168 14.6533 20.5214 14.4215 21.2924 14.2025C22.0713 13.9813 22.8621 13.7603 23.6427 13.5456C24.2498 13.3786 24.8535 13.2146 25.4551 13.0532C25.6906 12.9824 25.9242 12.913 26.155 12.845C26.8279 12.6469 27.4974 12.4447 28.1597 12.2483C26.972 12.5563 26.02 12.826 25.1188 13.0855C24.998 13.1204 24.8782 13.155 24.7588 13.1896C23.5333 13.5449 22.3494 13.8915 20.7622 14.3264C16.2084 15.5815 13.6341 16.3695 11.9845 16.8491C10.3407 17.3319 9.62376 17.5236 8.98006 17.6532C8.00247 17.8576 6.22925 18.3724 5.33625 18.6676C5.03746 18.7658 4.72266 18.7818 4.69469 18.6819C4.6605 18.584 4.92304 18.4081 5.22363 18.3093C6.16541 17.9979 8.09885 17.4326 9.23596 17.199C9.73787 17.0965 10.3008 16.952 11.9242 16.4753C13.5509 16.0027 16.1049 15.2203 20.6726 13.9615C22.2047 13.5418 23.345 13.2077 24.5602 12.8549C24.6785 12.8206 24.7978 12.7859 24.9183 12.7512C24.9191 12.751 24.9198 12.7508 24.9206 12.7506C26.0325 12.4301 27.2487 12.0848 28.8997 11.6725C32.6992 10.6957 37.8824 9.6544 39.1223 9.45371C39.3658 9.40856 39.5993 9.36509 39.8437 9.32081C40.7927 9.16083 41.9447 8.91547 44.5747 8.72173C45.1275 8.68519 45.8475 8.65596 46.5599 8.66289C47.7017 8.62655 48.7623 8.66601 49.7403 8.86305C50.245 8.9633 50.7949 9.11996 51.2435 9.32285C51.4992 9.43735 51.7435 9.55106 51.9786 9.66531C52.1712 9.75933 52.3666 9.85869 52.5538 9.95797C53.011 10.2007 53.461 10.4674 53.8836 10.7587C54.2193 10.9902 54.562 11.2423 54.9199 11.541C56.1578 12.5955 57.753 14.2497 58.0889 17.0819C58.3841 20.0837 56.9933 22.497 55.4604 23.9485C56.6084 22.8608 57.2277 21.7698 57.6226 20.8244C57.6965 20.6448 57.7613 20.4701 57.8187 20.2998C58.2147 19.0928 58.2906 18.1317 58.2028 17.1346C57.3371 12.3359 55.1786 11.4886 53.8239 10.3687C53.4108 10.0932 52.9444 9.8199 52.4365 9.55722C52.094 9.37927 51.7625 9.22169 51.3836 9.05166C50.5422 8.67035 49.5404 8.50176 48.6336 8.41978C47.3205 8.29988 45.8714 8.366 44.3906 8.51993C44.39 8.51996 44.3894 8.52 44.3888 8.52003C44.0995 8.55018 43.7818 8.58598 43.4959 8.62247C41.6825 8.85087 39.8292 9.19013 38.0027 9.54845C37.8106 9.58628 37.5798 9.63333 37.3128 9.68901C35.772 10.0081 33.0883 10.618 29.8081 11.3335C29.088 11.49 28.3343 11.6445 27.4789 11.8257C27.2181 11.8809 26.9474 11.9387 26.6651 12C25.4446 12.2654 23.9644 12.6027 22.0125 13.1072C20.4042 13.5227 18.4356 14.0662 16.4196 14.6464C15.4128 14.9359 14.3973 15.2332 13.4083 15.5258C10.3906 16.4197 7.60907 17.2676 4.88765 18.1365C4.88715 18.1366 4.88664 18.1368 4.88614 18.137C4.54755 18.2455 4.27513 18.2451 4.25991 18.1409C4.22249 18.0442 4.4856 17.8704 4.80487 17.7684C7.53864 16.896 10.3118 16.0513 13.3214 15.1599C14.2974 14.8712 15.3053 14.5761 16.3094 14.2873C18.338 13.7034 20.3348 13.1522 21.9618 12.7321C23.949 12.2188 25.4597 11.8753 26.6987 11.6065C26.9969 11.542 27.2775 11.4822 27.544 11.4259C28.3913 11.2471 29.1006 11.1024 29.7847 10.9539C32.9671 10.2612 35.5592 9.6694 37.1082 9.3462C37.3841 9.28832 37.625 9.239 37.8293 9.19854C39.6288 8.84393 41.4459 8.50545 43.287 8.26709C43.5695 8.22995 43.8779 8.19351 44.1742 8.16151C44.1748 8.16141 44.1754 8.16131 44.176 8.16121C45.653 7.99952 47.1735 7.9202 48.5289 8.0315C49.5483 8.11617 50.6109 8.2825 51.5594 8.71132C51.8166 8.82616 52.0617 8.94106 52.2968 9.05668C52.8462 9.32833 53.3625 9.61617 53.8527 9.93223C55.3476 11.1222 57.6638 12.044 58.5755 17.0897ZM6.52416 19.1806C7.32012 18.9693 7.97726 18.768 8.41964 18.6228C8.04009 18.7333 7.60314 18.8626 7.21289 18.9772C6.99723 19.0404 6.76327 19.1096 6.52416 19.1806ZM46.6518 9.03934C46.5251 9.0435 46.3959 9.04873 46.2647 9.05501C46.6147 9.05171 47.0069 9.05682 47.3732 9.0725C47.8126 9.0909 48.2766 9.12655 48.7228 9.18563C47.9895 9.08408 47.3345 9.04987 46.6518 9.03934ZM57.716 17.127C57.4157 14.5912 56.0725 13.0825 54.8986 12.0272C54.554 11.7251 54.2001 11.4504 53.8372 11.1915C53.6893 11.0863 53.5413 10.9868 53.3853 10.8866C54.2419 11.5208 54.9522 12.2104 55.4651 12.8342C56.9874 14.7212 57.2426 16.2053 57.3226 17.3882C57.3393 17.7372 57.3307 18.0737 57.2992 18.4133C57.2914 18.6964 57.2656 18.9897 57.2192 19.2843C57.1552 19.6966 57.0451 20.1364 56.9028 20.5433C56.7608 20.9515 56.5795 21.3546 56.3693 21.7328C56.1577 22.1139 55.915 22.475 55.6466 22.8122C55.3937 23.1301 55.1171 23.4269 54.8289 23.6942C54.8124 23.7094 54.7959 23.7246 54.7793 23.7398C54.7653 23.7526 54.7512 23.7653 54.7372 23.778C54.4452 24.0409 54.1419 24.2765 53.8554 24.4791C53.5481 24.6963 53.2841 24.862 53.0491 25.0071C52.7539 25.1888 52.443 25.3591 52.1279 25.513C51.8124 25.6673 51.4917 25.8061 51.1661 25.9314C50.8407 26.0567 50.5132 26.1676 50.1805 26.2665C50.0734 26.2983 49.9607 26.3303 49.8534 26.3594C49.804 26.3728 49.7544 26.386 49.7049 26.3988C50.3659 26.2515 51.0448 26.0546 51.728 25.7912C52.711 25.4092 53.7419 24.8934 54.7326 24.0886C54.7861 24.0449 54.8393 24.0004 54.8922 23.9551C56.481 22.5882 58.0043 20.2291 57.716 17.127ZM39.6589 25.2009C39.8051 25.2967 39.9985 25.4141 40.2375 25.5319C40.4155 25.6196 40.6237 25.715 40.8532 25.8094C40.9772 25.8604 41.1092 25.9118 41.247 25.9625C41.2438 25.9612 41.2405 25.9599 41.2373 25.9586C40.8993 25.821 40.5895 25.6785 40.2661 25.5091C40.2616 25.5068 40.257 25.5044 40.2525 25.502C39.6482 25.1837 39.1337 24.7709 38.686 24.3004C38.2331 23.8232 37.8547 23.2894 37.5451 22.7217C37.235 22.1529 36.9943 21.5483 36.8252 20.931C36.6545 20.3075 36.5562 19.6742 36.5295 19.031C36.5211 18.826 36.5201 18.6199 36.5267 18.4145C36.5005 18.8718 36.5138 19.3535 36.5753 19.8534C36.6249 20.2547 36.7049 20.6676 36.8244 21.0958C36.87 21.2589 36.9292 21.4561 37.0097 21.6826C37.3355 22.554 37.954 24.0363 39.6589 25.2009ZM38.184 13.61C38.2724 13.491 38.3643 13.3737 38.4591 13.259C38.7252 12.9368 39.0118 12.6374 39.2993 12.369C39.5067 12.1753 39.7127 11.9986 39.9257 11.828C40.0149 11.7566 40.1103 11.6826 40.1978 11.6167C40.3465 11.5046 40.4989 11.3951 40.6548 11.2883C39.5652 12.0137 38.5936 12.8973 37.8228 14.0269C37.8128 14.0417 37.8028 14.0566 37.7928 14.0715C37.9197 13.9114 38.0531 13.754 38.184 13.61Z" fill="white"/>
<path d="M4.56821 15.4711C4.61878 15.4069 4.6868 15.3634 4.77277 15.3086C4.7728 15.3086 4.77284 15.3085 4.77287 15.3085C4.78515 15.3006 4.79787 15.2926 4.81088 15.2842C4.91569 15.2166 5.04805 15.1257 5.21449 14.9617C5.3984 14.7805 5.60802 14.6882 5.76446 14.6548C5.79364 14.6486 5.81676 14.6364 5.86215 14.5953C5.89192 14.5683 5.93002 14.53 5.98504 14.4749C6.01431 14.4456 6.04833 14.4114 6.08843 14.3716C6.22121 14.24 6.39957 14.0096 6.56382 13.7972C6.66351 13.6683 6.75804 13.546 6.83412 13.4566C6.94537 13.3258 7.0642 13.209 7.19347 13.082C7.31186 12.9657 7.43902 12.8409 7.57686 12.689C7.68262 12.5724 7.83787 12.5017 8.00161 12.4346C8.02245 12.4261 8.04344 12.4176 8.06448 12.4091C8.20962 12.3504 8.35808 12.2906 8.48789 12.2009C8.71927 12.0412 8.82924 11.8532 8.95101 11.6451C8.99863 11.5638 9.04805 11.4793 9.10726 11.3922C9.2009 11.2544 9.35319 11.0708 9.50698 10.887C9.52009 10.8714 9.53313 10.8557 9.54622 10.84C9.54628 10.8399 9.54635 10.8399 9.54641 10.8398C9.68726 10.6717 9.8255 10.5067 9.9186 10.3789C10.0665 10.1758 10.1024 10.0834 10.1323 10.0063C10.1436 9.9773 10.1539 9.95041 10.1691 9.92069C10.2239 9.81363 10.3392 9.67849 10.4561 9.54147C10.4565 9.54094 10.4569 9.5404 10.4574 9.53987C10.4768 9.51713 10.5578 9.55168 10.6383 9.61703C10.7188 9.68238 10.7683 9.75383 10.749 9.77657C10.687 9.84915 10.6266 9.91998 10.5756 9.98582C10.6421 10.0452 10.6804 10.1051 10.6629 10.1256C10.6192 10.1768 10.5417 10.3793 10.4239 10.6991C10.4504 10.6921 10.4743 10.6877 10.4962 10.6845C10.5219 10.6808 10.5428 10.679 10.5608 10.6774C10.5983 10.6741 10.6231 10.6719 10.6528 10.6561C10.7093 10.6099 10.7825 10.5245 10.8593 10.4345C10.8787 10.4118 10.9596 10.4462 11.04 10.5115C11.1205 10.5769 11.1701 10.6483 11.1507 10.6711C11.1503 10.6715 11.15 10.672 11.1496 10.6724C11.0736 10.7616 10.9982 10.8498 10.9388 10.8979C10.9237 10.9101 10.9097 10.9198 10.8986 10.9267C10.8897 10.9321 10.8783 10.9387 10.8693 10.9401C10.8681 10.9403 10.8657 10.9407 10.8625 10.9407C10.8624 10.9407 10.8624 10.9406 10.8623 10.9406C10.8605 10.9407 10.8514 10.9408 10.8356 10.9361C10.8324 10.9352 10.8253 10.933 10.8147 10.9285C10.8135 10.9286 10.8123 10.9287 10.8111 10.9288C10.7947 10.9302 10.7779 10.9318 10.7608 10.9342C10.6939 10.9439 10.5995 10.9685 10.4491 11.0571C10.3107 11.1385 10.1311 11.3202 9.93116 11.5664C9.95067 11.5547 9.97004 11.5427 9.98916 11.5306C10.0373 11.5 10.0843 11.4683 10.1307 11.436C10.1485 11.4237 10.166 11.4115 10.1837 11.3989C10.2121 11.3786 10.2405 11.3582 10.2688 11.3377C10.2878 11.3238 10.3069 11.3098 10.3259 11.2959C10.3259 11.2959 10.326 11.2958 10.326 11.2958C10.3524 11.2764 10.379 11.2571 10.4058 11.2377C10.4154 11.231 10.4247 11.2243 10.434 11.2177C10.4708 11.1913 10.5069 11.1652 10.5556 11.1411C10.5623 11.1387 10.5702 11.1367 10.5764 11.1355C10.583 11.1341 10.5895 11.1329 10.596 11.132C10.6016 11.1311 10.6072 11.1305 10.6125 11.1298C10.6132 11.1297 10.6139 11.1297 10.6146 11.1296C10.6206 11.1288 10.6261 11.128 10.6314 11.1272C10.6367 11.1264 10.6418 11.1256 10.6464 11.1246C10.6465 11.1246 10.6465 11.1246 10.6465 11.1245C10.6514 11.1234 10.655 11.1226 10.6597 11.121C10.6656 11.1191 10.6704 11.1172 10.6758 11.1146C10.681 11.1121 10.6861 11.1092 10.6911 11.1061C10.6961 11.103 10.7009 11.0997 10.7057 11.0963C10.7105 11.0928 10.7152 11.0892 10.7199 11.0854C10.7245 11.0817 10.7291 11.0777 10.7337 11.0738C10.7384 11.0699 10.743 11.0659 10.7477 11.0619C10.7583 11.0526 10.7829 11.0553 10.8165 11.0699C10.8502 11.0845 10.8899 11.1096 10.9274 11.1401C10.965 11.1706 10.9976 11.2042 11.0184 11.2338C11.0392 11.2634 11.0465 11.2865 11.0391 11.2985C11.0371 11.3017 11.0351 11.305 11.033 11.3083C11.0318 11.3102 11.0305 11.3121 11.0293 11.3141C11.026 11.3193 11.0227 11.3246 11.0191 11.3298C11.0156 11.335 11.0119 11.3401 11.0081 11.3452C11.0043 11.3503 11.0002 11.3554 10.9959 11.3603C10.9915 11.3652 10.9868 11.37 10.9817 11.3746C10.9767 11.3791 10.9705 11.3838 10.9645 11.3877C10.9602 11.3905 10.9542 11.3935 10.9491 11.3959C10.9438 11.3985 10.9383 11.4007 10.9328 11.4027C10.9273 11.4048 10.9217 11.4066 10.9165 11.4083C10.9159 11.4085 10.9154 11.4087 10.9148 11.4089C10.9102 11.4104 10.9057 11.4119 10.9015 11.4134C10.8969 11.415 10.8927 11.4168 10.8889 11.4185C10.8846 11.4205 10.8824 11.4219 10.8797 11.4237C10.8492 11.4518 10.8183 11.492 10.7888 11.5302C10.7851 11.5351 10.7814 11.5398 10.7777 11.5445C10.7584 11.5698 10.7393 11.5951 10.7203 11.6204C10.7064 11.6388 10.6926 11.6572 10.6787 11.6756C10.6581 11.7027 10.6374 11.7297 10.6165 11.7565C10.6035 11.7731 10.5906 11.7894 10.5775 11.8059C10.5431 11.8488 10.508 11.8914 10.4715 11.933C10.435 11.9745 10.397 12.0152 10.3569 12.0542C10.3169 12.093 10.273 12.1315 10.2263 12.1651C10.1918 12.1898 10.1502 12.2099 10.1101 12.2272C10.0885 12.2365 10.067 12.2454 10.0457 12.254C10.0457 12.254 10.0456 12.254 10.0455 12.2541C10.0268 12.2616 10.0084 12.2691 9.99036 12.2767C9.95171 12.2931 9.91513 12.3103 9.8807 12.3293C9.8463 12.3481 9.81413 12.3686 9.78398 12.3911C9.75406 12.4134 9.72575 12.4378 9.69966 12.4636C9.67342 12.4894 9.64951 12.5163 9.62586 12.5457C9.5949 12.5845 9.56649 12.6249 9.53773 12.6668C9.50928 12.7084 9.48136 12.7509 9.45341 12.7936C9.44365 12.8086 9.43376 12.8234 9.42398 12.8384C9.42393 12.8385 9.42389 12.8385 9.42385 12.8386C9.40576 12.8663 9.38764 12.8941 9.36939 12.9219C9.34121 12.9647 9.31275 13.0075 9.28347 13.0498C9.25418 13.0922 9.22404 13.1342 9.19226 13.1753C9.1604 13.2163 9.12635 13.2574 9.08791 13.2952C9.05376 13.329 9.018 13.3621 8.98296 13.3943C8.97371 13.4028 8.96446 13.4113 8.95521 13.4198C8.91143 13.4603 8.87017 13.5004 8.83364 13.5435C8.79702 13.5865 8.76453 13.6328 8.73505 13.6822C8.70566 13.7314 8.67895 13.7837 8.6539 13.838C8.62875 13.8925 8.60582 13.9479 8.58341 14.0051C8.56123 14.062 8.53994 14.1199 8.5191 14.1792C8.50748 14.212 8.4938 14.246 8.48009 14.2774C8.46625 14.3091 8.45171 14.34 8.437 14.3702C8.43103 14.3825 8.42498 14.3946 8.41904 14.4067C8.41036 14.4243 8.40171 14.4417 8.39341 14.459C8.3794 14.4882 8.36627 14.5171 8.35479 14.5463C8.34331 14.5754 8.33357 14.6048 8.32634 14.635C8.31889 14.6662 8.31484 14.6936 8.31254 14.7285C8.299 14.8071 8.28116 14.8481 8.26146 14.8938C8.25758 14.9028 8.2537 14.912 8.24968 14.9217C8.22525 14.9758 8.19788 15.0275 8.16885 15.0769C8.13948 15.1267 8.10852 15.174 8.07525 15.2204C8.04231 15.2664 8.00714 15.3111 7.97044 15.3543C7.93381 15.3974 7.8955 15.439 7.85534 15.4793C7.81522 15.5196 7.77246 15.5592 7.72978 15.596C7.70512 15.6172 7.67772 15.6388 7.65168 15.6584C7.63291 15.6725 7.61411 15.6862 7.59567 15.6996C7.58814 15.7051 7.58065 15.7106 7.57326 15.716C7.54777 15.7346 7.52328 15.753 7.50081 15.7717C7.47833 15.7904 7.45776 15.8095 7.43954 15.8296C7.42128 15.8499 7.40538 15.8712 7.39149 15.8942C7.37718 15.9182 7.36686 15.9393 7.35592 15.9682C7.34886 15.987 7.34209 16.0056 7.33536 16.0241C7.32528 16.0519 7.31549 16.0796 7.30585 16.1077C7.29624 16.1358 7.28701 16.1637 7.27806 16.1921C7.27519 16.2012 7.27215 16.2108 7.26934 16.22C7.26066 16.2485 7.25244 16.2769 7.24476 16.3057C7.23709 16.3344 7.23 16.3633 7.2236 16.3927C7.21716 16.4221 7.21145 16.4515 7.20632 16.4821C7.19766 16.5341 7.1794 16.5759 7.16148 16.6108C7.1432 16.6461 7.12376 16.6772 7.10478 16.7074C7.10123 16.713 7.09767 16.7187 7.09411 16.7243C7.07873 16.7486 7.0635 16.7724 7.04904 16.7963C7.0312 16.8257 7.01446 16.8552 6.99848 16.8855C6.98262 16.9155 6.96744 16.9465 6.95362 16.9779C6.93969 17.0096 6.92725 17.0407 6.91501 17.0751C6.90282 17.109 6.89312 17.1457 6.88239 17.1858C6.87179 17.2255 6.86038 17.267 6.84696 17.3075C6.83362 17.3481 6.81827 17.3878 6.80094 17.4255C6.78361 17.4633 6.76424 17.4997 6.7434 17.5341C6.72246 17.5688 6.6999 17.6018 6.67611 17.6336C6.65239 17.6653 6.62647 17.6969 6.60101 17.7255C6.55978 17.7718 6.5178 17.8171 6.47541 17.8623C6.43322 17.9072 6.39049 17.9518 6.34762 17.9963C6.30482 18.0406 6.2618 18.0848 6.21864 18.1288C6.17547 18.1728 6.13218 18.2168 6.08891 18.2606C6.07934 18.2702 6.06976 18.2799 6.06019 18.2896C6.02649 18.3237 5.99278 18.3578 5.95929 18.3919C5.95903 18.3921 5.95878 18.3923 5.95853 18.3925C5.91548 18.4363 5.87325 18.4794 5.83129 18.5235C5.81593 18.5397 5.80119 18.5553 5.78644 18.5713C5.77169 18.5874 5.75739 18.6033 5.74319 18.6195C5.72898 18.6358 5.71512 18.6522 5.70182 18.6686C5.6884 18.6852 5.67563 18.7016 5.66335 18.7187C5.65206 18.7344 5.64151 18.7504 5.62991 18.7679C5.62885 18.7695 5.62779 18.7711 5.62673 18.7727C5.61405 18.7918 5.59876 18.8129 5.58278 18.8311C5.54021 18.879 5.49987 18.9266 5.46002 18.976C5.42014 19.0255 5.38151 19.0758 5.34305 19.1269C5.32802 19.1469 5.31308 19.167 5.29805 19.1871C5.27467 19.2184 5.2512 19.2498 5.2274 19.2811C5.18824 19.3326 5.14817 19.3835 5.10621 19.4334C5.0644 19.4832 5.02064 19.5319 4.97514 19.5788C4.92969 19.6256 4.882 19.6714 4.83315 19.7152C4.77867 19.7639 4.72351 19.8115 4.66771 19.859C4.61198 19.9064 4.55572 19.9534 4.49938 20C4.44286 20.0468 4.38616 20.0931 4.32915 20.1393C4.27211 20.1855 4.21482 20.2314 4.15724 20.2771C4.12278 20.3045 4.08819 20.3318 4.05352 20.359C4.04606 20.3822 4.03906 20.4046 4.03223 20.426C3.98178 20.5845 3.94522 20.6991 3.8756 20.8328C3.87023 20.8467 3.86802 20.8597 3.86529 20.8755C3.86477 20.8786 3.86414 20.8817 3.86356 20.885C3.85987 20.9055 3.85483 20.9285 3.84161 20.9554C3.81523 21.0092 3.7567 21.0769 3.61583 21.1115C3.58024 21.1203 3.49084 21.0718 3.41609 21.0032C3.36367 20.9551 3.3324 20.9098 3.33067 20.8841C3.2993 20.9037 3.26757 20.9228 3.23595 20.942C3.22332 20.9496 3.19701 20.9451 3.16238 20.929C3.12775 20.9129 3.08777 20.8866 3.05076 20.8556C3.01373 20.8246 2.9825 20.7912 2.96344 20.7624C2.9444 20.7335 2.93913 20.7117 2.94851 20.7013C2.97346 20.6739 2.99835 20.6467 3.02275 20.619C3.04718 20.5912 3.071 20.5633 3.09454 20.5349C3.11809 20.5066 3.14121 20.4779 3.16413 20.449C3.18694 20.4201 3.2096 20.391 3.232 20.3616C3.25458 20.3321 3.27639 20.3028 3.29852 20.2731C3.31177 20.2552 3.32519 20.2372 3.33823 20.2193C3.34312 20.2127 3.34777 20.2062 3.35251 20.1997C3.35638 20.1944 3.36032 20.1891 3.36435 20.1836C3.40642 20.1258 3.44858 20.0671 3.49006 20.0088C3.53177 19.9502 3.57323 19.8915 3.6145 19.8327C3.6558 19.7738 3.69681 19.7148 3.73778 19.6556C3.77872 19.5966 3.8195 19.5374 3.86017 19.478C3.90066 19.4187 3.94123 19.3592 3.98133 19.2995C4.01234 19.2533 4.04278 19.2073 4.073 19.1609C4.0791 19.138 4.08547 19.1156 4.09194 19.0936C4.11076 19.0296 4.1234 18.9605 4.13571 18.8923C4.08056 18.9868 4.04603 19.0706 4.01321 19.1504C4.00881 19.1611 4.00446 19.1718 4.00008 19.1823C3.95529 19.2903 3.90894 19.3921 3.81246 19.5014C3.53804 19.8122 3.37686 19.9908 3.26395 20.092C3.15105 20.1931 3.08281 20.2206 2.98981 20.2225C2.85841 20.2252 2.71104 20.3165 2.65764 20.3791C2.63824 20.4018 2.55722 20.3673 2.47674 20.3019C2.39624 20.2366 2.34666 20.1651 2.36606 20.1424C2.42244 20.0763 2.57899 19.9752 2.73539 19.9719C2.80505 19.9705 2.86427 19.9519 2.97545 19.8523C3.08664 19.7527 3.24626 19.5757 3.52121 19.2643C3.61422 19.1589 3.65904 19.0611 3.70335 18.9543C3.70769 18.9439 3.71196 18.9332 3.71635 18.9226C3.71639 18.9225 3.71644 18.9224 3.71648 18.9224C3.7569 18.824 3.80088 18.7169 3.88358 18.5914C4.07418 18.3021 4.31494 17.9003 4.35541 17.7915C4.36336 17.7701 4.37015 17.7487 4.37736 17.7262C4.40506 17.6398 4.43852 17.5356 4.56284 17.3402C4.59003 17.2975 4.62452 17.2496 4.66379 17.1987C4.68524 17.0919 4.70776 16.9895 4.73739 16.9087C4.76296 16.8389 4.76941 16.7607 4.77131 16.6814C4.77185 16.6586 4.77198 16.6353 4.77213 16.612C4.77251 16.5559 4.77291 16.4998 4.77877 16.4496C4.78344 16.4095 4.78575 16.3655 4.78817 16.3189C4.797 16.1494 4.80758 15.9462 4.94132 15.7785C5.08308 15.6007 5.22234 15.463 5.34437 15.3458C5.24783 15.4263 5.16523 15.4818 5.0951 15.5271C5.08188 15.5356 5.06915 15.5438 5.0569 15.5516C4.97033 15.6069 4.9074 15.6471 4.86039 15.7067C4.6359 15.9916 4.57505 16.1173 4.54997 16.2945C4.54336 16.3411 4.54039 16.3961 4.53715 16.4553C4.53069 16.5735 4.52328 16.7088 4.48432 16.829C4.44804 16.941 4.41921 17.0757 4.3886 17.2185C4.38856 17.2185 4.38853 17.2186 4.3885 17.2186C4.38252 17.2465 4.37646 17.2747 4.37027 17.3031C4.33258 17.4763 4.29007 17.6561 4.22731 17.8138C4.2206 17.8307 4.21331 17.8515 4.20498 17.8754C4.15691 18.0136 4.07251 18.2561 3.84353 18.4503C3.79324 18.4929 3.7307 18.5289 3.65925 18.5699C3.63749 18.5824 3.6148 18.5953 3.59149 18.6091C3.49087 18.6686 3.37344 18.7447 3.24168 18.866C3.13294 18.9662 3.01278 19.0982 2.88794 19.2352C2.82644 19.3027 2.76374 19.3714 2.70082 19.4381C2.51077 19.6398 2.32574 19.8158 2.14097 19.9915C2.14094 19.9915 2.14091 19.9915 2.14088 19.9916C2.11905 20.0123 2.03647 19.9756 1.9566 19.9096C1.87677 19.8436 1.82969 19.7732 1.85148 19.7525C2.03636 19.5767 2.22094 19.4013 2.41036 19.2003C2.47232 19.1346 2.53452 19.0665 2.59578 18.9992C2.72124 18.8615 2.84304 18.7277 2.95279 18.6266C3.08679 18.5032 3.20639 18.4257 3.3084 18.3654C3.33297 18.3509 3.35636 18.3375 3.37855 18.3247C3.4492 18.2842 3.50803 18.2505 3.55573 18.2101C3.77744 18.022 3.85878 17.7888 3.90715 17.6502C3.91573 17.6257 3.92333 17.6041 3.93043 17.5863C3.99196 17.4316 4.03389 17.2546 4.07155 17.0816C4.07766 17.0536 4.08372 17.0256 4.08967 16.9978C4.08965 16.9978 4.08964 16.9977 4.08962 16.9976C4.12022 16.8549 4.14962 16.7178 4.18658 16.6037C4.2241 16.4879 4.2305 16.3656 4.23652 16.2513C4.23975 16.1899 4.24298 16.1309 4.25071 16.0763C4.27732 15.8884 4.34299 15.7568 4.56821 15.4711ZM3.37877 20.8535C3.46056 20.8272 3.50512 20.7879 3.53011 20.7521C3.4985 20.7741 3.46654 20.7958 3.43426 20.8172C3.41588 20.8294 3.3974 20.8415 3.37877 20.8535ZM4.96096 17.4279C4.95838 17.4408 4.9558 17.4538 4.95322 17.4668C4.97138 17.4397 4.9897 17.4127 5.00799 17.3858C5.03044 17.3527 5.05303 17.3197 5.07564 17.2868C5.03484 17.3352 4.99595 17.3827 4.96096 17.4279ZM5.23354 16.0144C5.10742 16.1725 5.09744 16.3589 5.08851 16.527C5.08594 16.5755 5.08338 16.6224 5.07822 16.6666C5.07608 16.685 5.07476 16.704 5.07387 16.7235C5.13608 16.656 5.19387 16.5945 5.24124 16.5441C5.38259 16.3939 5.4811 16.3231 5.56767 16.2608C5.59272 16.2428 5.61676 16.2254 5.64055 16.2071C5.64595 16.1804 5.65202 16.1531 5.65943 16.1265C5.6697 16.0891 5.68227 16.05 5.69541 16.0137C5.70857 15.9772 5.72315 15.9411 5.73871 15.9066C5.75439 15.8719 5.77111 15.8384 5.78856 15.8057C5.80496 15.775 5.82208 15.745 5.83865 15.7159C5.8396 15.7143 5.84055 15.7126 5.8415 15.711C5.85897 15.6802 5.87604 15.6504 5.88975 15.6214C5.90364 15.5918 5.91308 15.5655 5.91699 15.5385C5.92191 15.5049 5.92785 15.4711 5.9345 15.4383C5.94114 15.4055 5.94854 15.3735 5.9566 15.3421C5.96469 15.3106 5.97328 15.2799 5.98245 15.2496C5.98541 15.2398 5.98856 15.2296 5.9916 15.22C5.99301 15.2155 5.99437 15.2111 5.99579 15.2066C5.95869 15.2504 5.91964 15.2955 5.87849 15.3414C5.81905 15.4077 5.74977 15.4738 5.67339 15.5467C5.54311 15.6711 5.39217 15.8155 5.23354 16.0144ZM6.51695 14.5096C6.50201 14.5296 6.48131 14.5598 6.45461 14.5988C6.44829 14.6081 6.44173 14.6179 6.43474 14.628C6.43499 14.6279 6.43518 14.6276 6.43543 14.6275C6.46207 14.6098 6.48628 14.5931 6.51142 14.5743C6.55618 14.5408 6.59845 14.5073 6.63974 14.4723C6.68118 14.4371 6.72111 14.4009 6.75975 14.3636C6.79844 14.3263 6.83579 14.2876 6.87138 14.2481C6.90729 14.2082 6.94138 14.1679 6.97389 14.1256C6.98425 14.1121 6.99445 14.0984 7.00446 14.0846C6.97318 14.1082 6.94228 14.134 6.90965 14.1613C6.88359 14.1831 6.85639 14.2057 6.82703 14.229C6.81579 14.2379 6.80141 14.248 6.78463 14.2598C6.7181 14.3067 6.61365 14.3801 6.51695 14.5096ZM7.19175 13.6888C7.1976 13.6776 7.2036 13.6667 7.20981 13.656C7.2275 13.6258 7.24639 13.5977 7.2654 13.5705C7.27876 13.5514 7.29231 13.5328 7.30559 13.5144C7.31119 13.5067 7.31675 13.4989 7.32227 13.4912C7.33153 13.4783 7.34057 13.4654 7.34952 13.4526C7.27187 13.5306 7.19782 13.6082 7.12555 13.6932C7.1246 13.6943 7.12372 13.6955 7.12276 13.6966C7.14627 13.6939 7.16926 13.6914 7.19175 13.6888Z" fill="white"/>
<path d="M9.16005 17.9855C9.27201 17.9935 9.37482 18.0275 9.50466 18.0704C9.50473 18.0704 9.5048 18.0704 9.50487 18.0704C9.52342 18.0766 9.54253 18.083 9.56229 18.0894C9.72141 18.1414 9.92857 18.204 10.2444 18.2559C10.5933 18.3132 10.8638 18.4403 11.0259 18.5544C11.0562 18.5757 11.0882 18.5886 11.1704 18.6047C11.2243 18.6152 11.2974 18.6267 11.4028 18.6434C11.4589 18.6522 11.5242 18.6625 11.6006 18.6748C11.8535 18.7158 12.2529 18.7418 12.621 18.7657C12.8444 18.7801 13.0562 18.7939 13.2167 18.8097C13.4514 18.833 13.6767 18.8701 13.9216 18.9106C14.1459 18.9477 14.3866 18.9876 14.6661 19.0219C14.8806 19.0482 15.0835 19.141 15.2891 19.2431C15.3152 19.256 15.3415 19.2692 15.3678 19.2823C15.5491 19.3732 15.7345 19.4662 15.9382 19.5274C16.3012 19.6364 16.5986 19.6276 16.928 19.6179C17.0568 19.6141 17.1905 19.6101 17.3349 19.613C17.5633 19.6176 17.8898 19.6469 18.2175 19.6775C18.2455 19.6801 18.2734 19.6826 18.3013 19.6852C18.3015 19.6852 18.3016 19.6852 18.3017 19.6852C18.6017 19.7132 18.8962 19.7407 19.1131 19.7503C19.4577 19.7654 19.5895 19.7457 19.6993 19.7293C19.7407 19.7231 19.7789 19.7173 19.8242 19.714C19.9873 19.7024 20.2302 19.7267 20.4763 19.7513C20.4773 19.7514 20.4782 19.7515 20.4792 19.7515C20.52 19.7556 20.5462 19.8427 20.5376 19.946C20.529 20.0494 20.489 20.1299 20.4481 20.1258C20.3177 20.1128 20.1905 20.1001 20.0762 20.0925C20.0631 20.1808 20.0269 20.2456 19.9902 20.2419C19.8981 20.2327 19.6103 20.2767 19.1596 20.3502C19.1885 20.3688 19.2126 20.3866 19.2336 20.4034C19.2583 20.4231 19.277 20.4398 19.2931 20.4541C19.3268 20.484 19.3491 20.5038 19.3904 20.5203C19.4871 20.5431 19.6407 20.5586 19.8025 20.5748C19.8433 20.5789 19.8695 20.6659 19.861 20.7691C19.8524 20.8724 19.8123 20.9529 19.7714 20.9489C19.7706 20.9488 19.7698 20.9488 19.769 20.9487C19.6089 20.9327 19.4502 20.9168 19.3492 20.8926C19.3235 20.8865 19.3015 20.8799 19.285 20.8742C19.2718 20.8696 19.2554 20.8636 19.2466 20.8567C19.2454 20.8558 19.2432 20.854 19.2405 20.8513C19.2405 20.8512 19.2405 20.8512 19.2404 20.8511C19.239 20.8496 19.2315 20.842 19.2241 20.8261C19.2226 20.8229 19.2194 20.8157 19.2159 20.8043C19.2149 20.8033 19.2138 20.8024 19.2128 20.8014C19.198 20.7884 19.1829 20.775 19.1665 20.7619C19.1023 20.7106 18.9994 20.6443 18.7805 20.5651C18.5791 20.4922 18.233 20.4388 17.7987 20.4031C17.8274 20.4133 17.8562 20.4231 17.885 20.4327C17.9575 20.4568 18.0305 20.4794 18.1035 20.5012C18.1315 20.5095 18.1591 20.5176 18.1873 20.5258C18.2326 20.5389 18.278 20.5518 18.3235 20.5646C18.3542 20.5732 18.385 20.5817 18.4157 20.5902C18.4158 20.5902 18.4159 20.5902 18.416 20.5902C18.4586 20.6021 18.5014 20.614 18.5445 20.6262C18.5596 20.6307 18.5745 20.635 18.5893 20.6392C18.6482 20.656 18.7061 20.6724 18.7719 20.7005C18.7799 20.7049 18.7884 20.7104 18.7948 20.715C18.8016 20.7198 18.8081 20.7247 18.8143 20.7296C18.8198 20.734 18.8249 20.7384 18.8299 20.7425C18.8306 20.743 18.8312 20.7436 18.8319 20.7441C18.8375 20.7487 18.8428 20.753 18.8479 20.757C18.853 20.761 18.8579 20.7649 18.8628 20.7683C18.8629 20.7683 18.8629 20.7683 18.863 20.7683C18.8681 20.7718 18.872 20.7745 18.8774 20.7776C18.8843 20.7815 18.8902 20.7845 18.8974 20.7876C18.9044 20.7907 18.9117 20.7935 18.9191 20.796C18.9265 20.7985 18.9341 20.8008 18.9418 20.803C18.9495 20.8051 18.9573 20.8072 18.9652 20.8091C18.9731 20.811 18.9811 20.8128 18.9892 20.8146C18.9973 20.8163 19.0054 20.8181 19.0136 20.8198C19.0325 20.8239 19.0491 20.8461 19.0597 20.8824C19.0703 20.9187 19.074 20.9658 19.07 21.014C19.066 21.0622 19.0546 21.1079 19.0382 21.1415C19.0218 21.1751 19.0018 21.1937 18.9826 21.1939C18.9774 21.194 18.9721 21.1941 18.9668 21.1941C18.9637 21.1941 18.9605 21.1941 18.9574 21.1941C18.9489 21.1941 18.9403 21.1942 18.9317 21.194C18.9231 21.1939 18.9145 21.1935 18.9057 21.193C18.897 21.1925 18.8881 21.1919 18.8791 21.1909C18.8702 21.1899 18.8611 21.1885 18.8519 21.1866C18.8428 21.1849 18.8326 21.1822 18.8235 21.1792C18.8169 21.1771 18.8088 21.1737 18.802 21.1707C18.7949 21.1675 18.788 21.1641 18.7814 21.1605C18.7747 21.157 18.7683 21.1533 18.7621 21.1498C18.7615 21.1494 18.7608 21.1491 18.7602 21.1487C18.7547 21.1456 18.7495 21.1426 18.7445 21.1399C18.739 21.1369 18.7337 21.1343 18.7287 21.132C18.7232 21.1295 18.7198 21.1284 18.7156 21.1271C18.6599 21.1165 18.5904 21.1121 18.5242 21.1079C18.5158 21.1074 18.5075 21.1068 18.4994 21.1062C18.4558 21.1036 18.4123 21.1012 18.3689 21.0988C18.3373 21.0971 18.3057 21.0953 18.2741 21.0935C18.2275 21.0908 18.1808 21.0879 18.1342 21.0847C18.1052 21.0827 18.0768 21.0807 18.048 21.0785C17.9726 21.0727 17.8971 21.0661 17.8216 21.0577C17.7462 21.0494 17.6704 21.0393 17.5949 21.0265C17.5196 21.0137 17.4416 20.9974 17.3668 20.9762C17.3118 20.9604 17.2561 20.9362 17.2047 20.9116C17.177 20.8984 17.15 20.8851 17.1234 20.8718C17.1233 20.8717 17.1233 20.8716 17.1232 20.8716C17.0998 20.8599 17.0768 20.8484 17.0538 20.8373C17.0047 20.8135 16.9563 20.7919 16.9077 20.7731C16.8591 20.7543 16.8106 20.7382 16.7614 20.7249C16.7126 20.7117 16.6628 20.7009 16.6133 20.6928C16.5635 20.6846 16.5144 20.679 16.4627 20.6749C16.3947 20.6698 16.3269 20.6676 16.2573 20.666C16.1882 20.6644 16.1184 20.6639 16.0484 20.6634C16.024 20.6632 15.9995 20.6629 15.975 20.6627C15.9749 20.6627 15.9748 20.6627 15.9747 20.6627C15.9293 20.6624 15.8838 20.6622 15.8383 20.6618C15.768 20.6611 15.6976 20.6602 15.627 20.6584C15.5563 20.6566 15.4854 20.6539 15.4142 20.6492C15.343 20.6445 15.27 20.638 15.1971 20.6259C15.1321 20.6154 15.0667 20.603 15.0028 20.5909C14.9859 20.5877 14.969 20.5845 14.9521 20.5813C14.872 20.5662 14.7943 20.553 14.717 20.5455C14.6399 20.5378 14.5623 20.5354 14.4837 20.5372C14.4053 20.539 14.3256 20.5448 14.245 20.553C14.1642 20.5612 14.0841 20.5718 14.0024 20.5838C13.9212 20.5958 13.8396 20.6092 13.7569 20.6236C13.711 20.6316 13.6622 20.6384 13.6162 20.6438C13.5697 20.6493 13.5237 20.6537 13.4783 20.6576C13.4598 20.6592 13.4415 20.6606 13.4233 20.6621C13.3967 20.6643 13.3704 20.6664 13.3444 20.6688C13.3007 20.6728 13.2579 20.6773 13.2162 20.6834C13.1746 20.6894 13.134 20.6971 13.0946 20.7073C13.0538 20.7179 13.02 20.7294 12.9792 20.7463C12.8808 20.7773 12.8208 20.7844 12.7541 20.7925C12.741 20.7941 12.7276 20.7958 12.7136 20.7977C12.6337 20.8063 12.5542 20.8111 12.476 20.8133C12.397 20.8154 12.3194 20.8149 12.2411 20.8119C12.1635 20.8089 12.0856 20.8034 12.0081 20.7958C11.9308 20.7881 11.8538 20.7783 11.7767 20.7662C11.6998 20.7541 11.6214 20.7394 11.5463 20.7232C11.5029 20.7139 11.4569 20.7024 11.4143 20.691C11.3835 20.6828 11.3532 20.6744 11.3235 20.666C11.3114 20.6626 11.2994 20.6593 11.2874 20.656C11.2463 20.6445 11.2062 20.6338 11.1674 20.6249C11.1286 20.616 11.0909 20.609 11.0538 20.6045C11.0167 20.6 10.9802 20.5981 10.9434 20.5988C10.9053 20.5997 10.8735 20.6024 10.8326 20.6088C10.8059 20.613 10.7798 20.6173 10.7537 20.6217C10.7147 20.6282 10.676 20.6349 10.6369 20.642C10.5979 20.649 10.5594 20.6564 10.5206 20.6641C10.5082 20.6666 10.495 20.6693 10.4825 20.6719C10.4439 20.6799 10.4056 20.6884 10.3673 20.6975C10.3291 20.7065 10.2913 20.7162 10.2535 20.7266C10.2155 20.7371 10.1781 20.7482 10.1399 20.7604C10.075 20.7812 10.0138 20.7884 9.96051 20.7921C9.90657 20.7958 9.8564 20.7962 9.80758 20.7965C9.79843 20.7965 9.78929 20.7966 9.78014 20.7966C9.74077 20.7968 9.70206 20.7968 9.66386 20.7975C9.61679 20.7983 9.5705 20.8002 9.52397 20.803C9.47784 20.8059 9.43118 20.8098 9.38511 20.8151C9.3386 20.8205 9.29403 20.8268 9.24589 20.8351C9.19829 20.8431 9.14966 20.8548 9.09637 20.8674C9.04356 20.8799 8.98817 20.8927 8.93227 20.9033C8.87643 20.914 8.81988 20.9225 8.76396 20.9283C8.70792 20.9341 8.6519 20.9374 8.59684 20.9384C8.54149 20.9395 8.48664 20.9383 8.43221 20.9353C8.37791 20.9324 8.32197 20.9277 8.26973 20.9216C8.18514 20.9118 8.10104 20.9009 8.01682 20.8895C7.93306 20.8782 7.84909 20.8663 7.76531 20.8541C7.68169 20.8419 7.59799 20.8295 7.51445 20.8168C7.43087 20.8042 7.34731 20.7914 7.26389 20.7785C7.24544 20.7757 7.22698 20.7728 7.20853 20.77C7.14356 20.76 7.0786 20.7499 7.0139 20.7401C7.01346 20.74 7.01302 20.7399 7.01258 20.7398C6.9293 20.7271 6.84752 20.7147 6.76486 20.7031C6.73451 20.6989 6.70535 20.6949 6.67569 20.6911C6.646 20.6874 6.61684 20.6839 6.58739 20.6807C6.5579 20.6775 6.52856 20.6746 6.49963 20.6723C6.47038 20.6699 6.44184 20.668 6.41297 20.6669C6.38652 20.6658 6.36018 20.6656 6.33142 20.6652C6.32879 20.6652 6.32617 20.6652 6.32354 20.6652C6.29206 20.6648 6.25635 20.6633 6.22333 20.6596C6.13591 20.6495 6.0506 20.6412 5.96361 20.6343C5.87658 20.6274 5.78963 20.622 5.70189 20.6171C5.66763 20.6152 5.6332 20.6135 5.59876 20.6117C5.54519 20.6089 5.49142 20.6061 5.43751 20.6029C5.34882 20.5976 5.26003 20.5913 5.17083 20.5829C5.08197 20.5745 4.99272 20.5639 4.90407 20.5508C4.81548 20.5378 4.72632 20.5223 4.63851 20.5046C4.54068 20.485 4.44352 20.4641 4.34596 20.4427C4.24857 20.4213 4.15117 20.3992 4.05423 20.3768C3.95694 20.3544 3.85994 20.3315 3.76293 20.3084C3.66586 20.2852 3.56888 20.2616 3.47186 20.2377C3.4138 20.2234 3.35577 20.209 3.29772 20.1944C3.26587 20.2007 3.23532 20.2068 3.20595 20.2127C2.98889 20.2558 2.83195 20.2869 2.62714 20.3004C2.60739 20.3034 2.59109 20.3086 2.57127 20.3148C2.56749 20.316 2.56349 20.3172 2.5594 20.3184C2.53351 20.3264 2.50386 20.3346 2.46326 20.338C2.38227 20.3448 2.26002 20.332 2.10881 20.2317C2.07062 20.2064 2.05326 20.1047 2.07006 20.0045C2.08186 19.9342 2.10736 19.8833 2.13469 19.8679C2.08779 19.852 2.04105 19.8356 1.99444 19.8192C1.97583 19.8127 1.95987 19.788 1.95018 19.75C1.9405 19.7121 1.93786 19.6641 1.94286 19.6161C1.94785 19.568 1.96014 19.5236 1.97708 19.4919C1.994 19.4602 2.01416 19.444 2.0332 19.4463C2.08369 19.4526 2.13401 19.4588 2.18438 19.4644C2.2348 19.4701 2.28504 19.4751 2.33545 19.4796C2.38586 19.4842 2.43629 19.4882 2.4869 19.4919C2.53732 19.4956 2.58786 19.499 2.63853 19.502C2.68951 19.5051 2.73957 19.5077 2.79044 19.5103C2.82092 19.5118 2.85177 19.5134 2.88207 19.5148C2.89336 19.5153 2.90439 19.5157 2.91541 19.5162C2.92442 19.5166 2.93348 19.517 2.9428 19.5175C3.04088 19.5217 3.13994 19.5256 3.23814 19.5291C3.33681 19.5327 3.43539 19.5359 3.53399 19.539C3.63265 19.542 3.73124 19.5447 3.82989 19.5473C3.92849 19.55 4.02704 19.5524 4.1258 19.5546C4.2242 19.5568 4.32301 19.5588 4.42162 19.5604C4.4979 19.5616 4.57356 19.5624 4.64938 19.5629C4.67983 19.5557 4.70992 19.5489 4.73961 19.5425C4.82603 19.5238 4.91322 19.4971 4.99911 19.4706C4.84968 19.4751 4.72863 19.4912 4.61337 19.5067C4.59792 19.5088 4.58257 19.5109 4.56726 19.5129C4.41108 19.5335 4.26051 19.5494 4.06155 19.527C3.49569 19.4633 3.16779 19.4238 2.96477 19.3831C2.76179 19.3425 2.67663 19.2997 2.60019 19.2222C2.49219 19.1127 2.27269 19.0376 2.16024 19.0263C2.11939 19.0223 2.09321 18.9351 2.10178 18.8318C2.11035 18.7285 2.15044 18.648 2.19129 18.6521C2.31003 18.6639 2.54786 18.7415 2.67641 18.8718C2.73367 18.9299 2.80168 18.9698 3.00157 19.0099C3.20148 19.0499 3.52636 19.089 4.09332 19.1528C4.28512 19.1744 4.42999 19.1593 4.58451 19.139C4.59967 19.137 4.61494 19.1348 4.63034 19.1328C4.63043 19.1328 4.63053 19.1328 4.63062 19.1328C4.77259 19.1137 4.92718 19.0929 5.13322 19.0949C5.6081 19.0994 6.24851 19.0855 6.40227 19.0608C6.43245 19.0559 6.46171 19.0501 6.49257 19.044C6.61102 19.0207 6.75402 18.9926 7.07119 18.9919C7.14056 18.9918 7.22154 18.995 7.30973 19.0006C7.44598 18.9609 7.57809 18.9246 7.69191 18.9059C7.79015 18.8898 7.88252 18.8529 7.97248 18.8117C7.99837 18.7998 8.02448 18.7873 8.05055 18.7748C8.11341 18.7448 8.1763 18.7148 8.23701 18.6926C8.28541 18.6748 8.33636 18.653 8.3902 18.6298C8.58636 18.5456 8.82143 18.4446 9.11527 18.4669C9.42676 18.4905 9.69158 18.5336 9.91979 18.5733C9.75292 18.5353 9.62494 18.4956 9.51846 18.4608C9.49838 18.4543 9.47914 18.4479 9.46062 18.4418C9.3298 18.3986 9.23469 18.3672 9.13063 18.3598C8.63361 18.3242 8.44477 18.3408 8.22716 18.4155C8.16986 18.4351 8.10621 18.4623 8.03764 18.4916C7.90059 18.5501 7.74383 18.617 7.57862 18.6491C7.42474 18.679 7.25143 18.7275 7.06779 18.7789C7.06772 18.7789 7.06765 18.7789 7.06758 18.7789C7.03169 18.7889 6.99539 18.799 6.95878 18.8092C6.73556 18.871 6.50107 18.9323 6.27503 18.9646C6.25085 18.9681 6.22181 18.9732 6.18847 18.9791C5.99601 19.0132 5.65815 19.0731 5.25865 18.9847C5.1709 18.9653 5.08079 18.932 4.97797 18.8938C4.94665 18.8822 4.91414 18.87 4.88016 18.8578C4.73347 18.805 4.55473 18.747 4.31419 18.7013C4.11567 18.6636 3.87245 18.6335 3.61989 18.6022C3.49549 18.5868 3.36883 18.5709 3.24412 18.5539C2.86741 18.5025 2.52328 18.4414 2.1798 18.3804C2.17973 18.3803 2.17966 18.3803 2.17959 18.3803C2.13901 18.3731 2.11403 18.2835 2.12384 18.1803C2.13366 18.0772 2.17451 17.9994 2.21508 18.0066C2.55876 18.0677 2.90183 18.1287 3.27728 18.18C3.4001 18.1968 3.52577 18.2125 3.64968 18.2278C3.90346 18.2593 4.15008 18.2898 4.35044 18.3278C4.59508 18.3743 4.77708 18.4333 4.92579 18.4869C4.96161 18.4998 4.99525 18.5123 5.02719 18.5242C5.12888 18.5619 5.2134 18.5934 5.29663 18.6118C5.68345 18.6973 6.00853 18.6399 6.20169 18.6058C6.23595 18.5997 6.26606 18.5945 6.29162 18.5909C6.51323 18.5592 6.74412 18.4989 6.96714 18.4371C7.00332 18.4271 7.03933 18.4171 7.07506 18.4071C7.07514 18.407 7.07521 18.407 7.07529 18.4069C7.25888 18.3556 7.43532 18.3063 7.59205 18.2758C7.75115 18.2448 7.89264 18.1841 8.02498 18.1274C8.09599 18.0969 8.16437 18.0677 8.23143 18.0447C8.46229 17.9655 8.66143 17.9499 9.16005 17.9855ZM2.20726 19.892C2.30187 19.9468 2.38126 19.9632 2.44123 19.9649C2.39138 19.9502 2.34169 19.9349 2.292 19.9192C2.26371 19.9103 2.23548 19.9012 2.20726 19.892ZM7.29148 19.3755C7.27504 19.3803 7.25847 19.3852 7.24185 19.3901C7.28659 19.3907 7.33133 19.3916 7.37599 19.3925C7.43082 19.3936 7.48564 19.3948 7.54043 19.3961C7.45381 19.3878 7.36982 19.3807 7.29148 19.3755ZM9.08562 18.8413C8.80851 18.8203 8.59266 18.9127 8.39802 18.9961C8.34196 19.0201 8.28761 19.0433 8.23412 19.0629C8.21193 19.071 8.18968 19.0802 8.16721 19.09C8.29218 19.106 8.40698 19.1215 8.50096 19.1343C8.7814 19.1724 8.93912 19.2173 9.07772 19.2568C9.11782 19.2682 9.15637 19.2791 9.19577 19.2893C9.22986 19.2794 9.26521 19.2697 9.3008 19.2616C9.35065 19.2501 9.40437 19.2395 9.45538 19.231C9.50658 19.2224 9.55848 19.2151 9.60934 19.2097C9.66061 19.2041 9.71129 19.2001 9.76165 19.1972C9.80904 19.1944 9.85619 19.1927 9.90182 19.1909C9.90443 19.1908 9.90704 19.1907 9.90965 19.1906C9.95788 19.1888 10.0048 19.1871 10.0481 19.183C10.0922 19.1787 10.129 19.1724 10.1622 19.1612C10.2037 19.1471 10.2461 19.1339 10.288 19.1218C10.3299 19.1096 10.3715 19.0985 10.413 19.0884C10.4545 19.0782 10.4956 19.0688 10.5368 19.0602C10.5501 19.0574 10.564 19.0545 10.5771 19.0519C10.5832 19.0507 10.5893 19.0494 10.5953 19.0482C10.5169 19.0405 10.4355 19.0319 10.3514 19.022C10.2299 19.0077 10.1009 18.9849 9.95856 18.9598C9.71572 18.9171 9.43416 18.8677 9.08562 18.8413ZM11.789 19.1114C11.7548 19.1096 11.7045 19.1084 11.6397 19.107C11.6244 19.1066 11.6082 19.1064 11.5913 19.106C11.5917 19.1061 11.5921 19.1062 11.5924 19.1063C11.6335 19.1192 11.6714 19.1306 11.7124 19.1417C11.7855 19.1614 11.8567 19.179 11.9287 19.1949C12.001 19.2109 12.0733 19.225 12.1458 19.2375C12.2183 19.25 12.2913 19.2606 12.3637 19.2693C12.4369 19.2781 12.5092 19.285 12.5823 19.2896C12.6056 19.2911 12.629 19.2923 12.6524 19.2933C12.6011 19.2796 12.5476 19.2675 12.4912 19.2547C12.4461 19.2444 12.399 19.2337 12.3497 19.2215C12.3308 19.2168 12.308 19.2102 12.2814 19.2024C12.176 19.1715 12.0107 19.123 11.789 19.1114ZM13.2434 19.2374C13.2606 19.2363 13.2776 19.2354 13.2944 19.2349C13.3423 19.2335 13.3887 19.2342 13.4342 19.2356C13.4662 19.2366 13.4977 19.2379 13.5288 19.2392C13.542 19.2398 13.5551 19.2402 13.5681 19.2407C13.5898 19.2416 13.6114 19.2423 13.6329 19.2429C13.4839 19.2195 13.3381 19.1989 13.1857 19.1838C13.1837 19.1836 13.1816 19.1835 13.1796 19.1833C13.2014 19.2017 13.2226 19.2198 13.2434 19.2374Z" fill="white"/>
</svg>
