<svg width="100" height="32" viewBox="0 0 100 32" fill="none" xmlns="http://www.w3.org/2000/svg">
<path d="M40.4269 17.0897C40.324 18.2134 40.4374 19.2977 40.8681 20.5408C40.8683 20.5415 40.8685 20.5421 40.8687 20.5428C40.9312 20.7195 41.0015 20.9004 41.0798 21.0832C41.5332 22.1226 42.2447 23.3356 43.6166 24.5192C44.1723 24.992 44.8271 25.4412 45.5875 25.8428C48.523 27.3439 51.1059 27.3706 52.601 27.3077C52.8828 27.2896 53.1748 27.2882 53.9084 27.2328C54.3885 27.1919 55.0398 27.1318 55.9687 26.9351C56.4616 26.8285 57.0328 26.6818 57.6887 26.4448C58.0795 26.303 58.506 26.1272 58.9504 25.9028C61.212 24.7958 62.9021 21.9225 62.9964 19.0872C63.1094 16.9796 62.3392 15.0285 61.4868 13.8111C60.3314 12.1252 58.7395 10.9373 56.9349 10.0518C56.7962 9.98402 56.6513 9.92073 56.5 9.86114C54.4557 9.11988 52.4086 9.0201 50.0366 8.92431C48.2109 8.87155 46.4783 8.97366 44.6889 9.12456C44.4529 9.14427 44.2423 9.16384 44.0159 9.18475C42.4555 9.32925 40.8527 9.50904 39.148 9.68958C36.0872 10.0168 33.6405 10.2472 30.9409 10.5365C29.8847 10.6507 28.7908 10.7759 27.6022 10.9285C25.732 11.1674 23.0318 11.5642 20.3398 12.0168C20.11 12.0553 19.8809 12.094 19.6534 12.1329C19.6523 12.133 19.6511 12.1332 19.65 12.1334C17.1782 12.5544 14.7783 13.0113 13.0106 13.3657C10.1901 13.9345 9.17304 14.1619 8.25587 14.3579C7.91807 14.4317 7.64907 14.4903 7.26289 14.5837C5.94703 14.9497 4.01211 15.2802 1.95934 16.4862C1.95016 16.4928 1.94105 16.4995 1.93201 16.5062C1.729 16.6696 1.62637 16.7619 1.49059 17.0866C1.39201 17.3732 1.49537 17.5926 1.54172 17.5727C1.59323 17.5652 1.60495 17.3703 1.73401 17.1932C1.8916 16.9797 1.98591 16.9437 2.16195 16.8032C3.21055 16.1231 4.14472 15.8852 5.09287 15.5694C5.1648 15.6403 5.41789 15.6318 5.71876 15.5425C6.46149 15.3188 8.73381 14.7522 12.3564 14.108C12.1101 14.1762 11.9074 14.2355 11.7315 14.2886C11.525 14.351 11.3695 14.4003 11.2364 14.4426C10.9683 14.529 10.7566 14.5941 10.4161 14.6843C9.62856 14.8775 8.3938 15.1669 7.08761 15.5192C6.75684 15.6084 6.52832 15.7604 6.55744 15.8598C6.58719 15.9591 6.86156 15.9689 7.19028 15.8803C7.19671 15.8786 7.20315 15.8769 7.20958 15.8752C8.49493 15.5287 9.76252 15.2314 10.5874 15.0295C10.7992 14.9777 10.988 14.931 11.1239 14.8966C11.2282 14.8701 11.3595 14.8365 11.4321 14.8145C11.4418 14.8116 11.4601 14.8059 11.4819 14.7986C11.4823 14.7985 11.4827 14.7984 11.483 14.7982C11.4952 14.7941 11.5576 14.7734 11.6228 14.7438C11.636 14.7378 11.6646 14.7245 11.6973 14.7061C11.7062 14.7034 11.715 14.7006 11.7239 14.6978C11.8475 14.6591 11.9745 14.6195 12.1133 14.5781C12.6699 14.4142 13.5044 14.1755 15.33 13.7623C17.0044 13.3842 19.8286 12.8432 23.3973 12.2948C23.1564 12.3397 22.9156 12.3847 22.6758 12.4296C22.0706 12.5428 21.477 12.6548 20.8613 12.7721C20.6279 12.8166 20.3986 12.8607 20.166 12.9055C19.7898 12.9781 19.4243 13.0496 19.044 13.1244C18.7864 13.1751 18.5299 13.2259 18.2753 13.277C18.2747 13.2771 18.2741 13.2772 18.2735 13.2773C17.9201 13.3481 17.569 13.4194 17.2186 13.4918C17.0967 13.5172 16.9739 13.5427 16.8488 13.5687C16.3547 13.6716 15.8755 13.773 15.3362 13.8993C15.2709 13.9156 15.2002 13.9341 15.1476 13.9483C15.0911 13.9636 15.0369 13.9784 14.9858 13.9928C14.9419 14.0053 14.8951 14.0184 14.8524 14.0304C14.8466 14.0321 14.8408 14.0337 14.8351 14.0353C14.7868 14.0489 14.7408 14.0617 14.6967 14.074C14.6526 14.0863 14.6102 14.0981 14.5684 14.1094C14.568 14.1094 14.5676 14.1095 14.5673 14.1096C14.5236 14.1213 14.4905 14.1301 14.4443 14.1419C14.3863 14.1567 14.3365 14.1692 14.2761 14.1837C14.2178 14.1977 14.157 14.212 14.0958 14.2262C14.0345 14.2403 13.9722 14.2545 13.9091 14.2686C13.846 14.2828 13.782 14.2971 13.7176 14.3113C13.6533 14.3256 13.5883 14.3398 13.5231 14.3542C13.4579 14.3685 13.3921 14.383 13.3263 14.3975C13.1738 14.4311 13.0369 14.4805 12.9332 14.538C12.8284 14.5957 12.776 14.6543 12.7865 14.7015C12.7972 14.7487 12.87 14.781 12.9899 14.7918C13.1082 14.8029 13.2539 14.7935 13.4069 14.7642C13.4483 14.7562 13.49 14.7483 13.532 14.7402C13.5569 14.7355 13.5821 14.7306 13.6072 14.7257C13.6746 14.7128 13.743 14.6998 13.812 14.6865C13.881 14.6731 13.9507 14.6595 14.0214 14.6456C14.0923 14.6317 14.1643 14.6174 14.2375 14.6026C14.3105 14.5878 14.3853 14.5724 14.4615 14.5562C14.5357 14.5405 14.6206 14.522 14.6967 14.5048C14.7522 14.4923 14.8208 14.4762 14.878 14.4625C14.9374 14.4484 14.998 14.4337 15.0523 14.4201C15.1065 14.4066 15.159 14.3932 15.2093 14.3805C15.2147 14.3791 15.22 14.3778 15.2254 14.3764C15.2699 14.3652 15.3128 14.3543 15.3535 14.3442C15.399 14.3328 15.4422 14.3223 15.4834 14.3126C15.5287 14.3018 15.5563 14.2957 15.5903 14.2883C16.0398 14.1964 16.6088 14.0913 17.1561 13.9928C17.2226 13.9809 17.2888 13.9689 17.3545 13.9572C17.7034 13.8948 18.055 13.8331 18.4095 13.7719C18.6671 13.7273 18.9267 13.683 19.188 13.6386C19.5684 13.5741 19.9407 13.5118 20.3214 13.4487C20.5572 13.4097 20.7896 13.3714 21.0268 13.3326C21.6535 13.2301 22.2551 13.1333 22.8769 13.0338C23.4963 12.9348 24.1206 12.8357 24.7393 12.7372C25.3565 12.6388 26.0078 12.5346 26.6255 12.4325C27.0811 12.357 27.5484 12.2728 27.9812 12.1939C28.2137 12.1515 28.4419 12.1098 28.6662 12.069C28.667 12.0688 28.6677 12.0687 28.6685 12.0685C28.8652 12.0327 29.0596 11.9975 29.2527 11.9633C29.6666 11.8897 30.0738 11.8203 30.4812 11.7547C30.8873 11.6893 31.2945 11.6276 31.7042 11.5695C32.1109 11.5119 32.5242 11.4572 32.9329 11.4068C33.3416 11.3564 33.7512 11.3094 34.1772 11.2638C34.7389 11.2039 35.2896 11.1503 35.8618 11.0977C36.4337 11.0452 37.0067 10.9962 37.5763 10.9503C37.7766 10.9341 37.9704 10.9188 38.1767 10.9028C38.1775 10.9028 38.1783 10.9027 38.1791 10.9026C38.5554 10.8736 38.9305 10.8459 39.3031 10.8196C39.8775 10.7791 40.4493 10.7415 41.0381 10.7053C41.6256 10.6693 42.1867 10.6376 42.7845 10.6059C43.3803 10.5743 43.9814 10.5451 44.572 10.5158C45.125 10.4889 45.6725 10.4649 46.1947 10.4464C46.3332 10.4415 46.4682 10.437 46.6075 10.4327C47.2963 10.4122 47.9297 10.4025 48.556 10.4071C49.2211 10.4122 49.8204 10.4307 50.4701 10.468C51.1363 10.5069 51.7158 10.5567 52.3958 10.6381C53.0219 10.7149 53.6845 10.8204 54.2769 10.9553C54.9082 11.0986 55.4995 11.2724 56.0186 11.526C56.0678 11.5504 56.1152 11.5752 56.1606 11.6002C56.4288 11.7447 56.6836 11.8926 56.9309 12.0465C57.2381 12.2378 57.5241 12.433 57.8029 12.6425C57.9144 12.7264 58.0213 12.81 58.1311 12.8994C58.2898 13.029 58.434 13.1542 58.5798 13.2889C58.8237 13.5145 59.0434 13.7426 59.2439 13.9767C59.4427 14.2088 59.6219 14.4469 59.7788 14.6864C59.94 14.9336 60.0591 15.1453 60.1826 15.4033C60.4872 16.0318 60.6194 16.4398 60.7406 16.8947C60.7638 16.9855 60.7855 17.0784 60.8056 17.175C60.9229 17.7283 60.9706 18.2932 60.9504 18.8489C60.9301 19.4099 60.8432 19.9601 60.6912 20.4988C60.5407 21.032 60.3254 21.5508 60.0522 22.0285C59.7797 22.5051 59.4492 22.9428 59.0693 23.3141C58.7555 23.6212 58.4021 23.885 58.0369 24.0758C57.9515 24.1204 57.8649 24.1636 57.7774 24.2055C57.4851 24.3458 57.1616 24.48 56.854 24.5907C56.6316 24.671 56.41 24.7427 56.1877 24.8074C56.0979 24.8335 56.0077 24.8586 55.9176 24.8824C55.6077 24.9643 55.302 25.0313 55.0025 25.0849C54.7043 25.1382 54.4119 25.1783 54.1239 25.2065C53.8364 25.2347 53.5527 25.251 53.2687 25.2566C52.9746 25.2618 52.7297 25.2579 52.4176 25.2407C52.2142 25.2291 52.0157 25.2135 51.818 25.1939C51.5222 25.1646 51.2296 25.1264 50.9372 25.0788C50.645 25.0311 50.3585 24.9749 50.074 24.9093C49.9822 24.8882 49.8858 24.8649 49.7947 24.8417C49.5131 24.7701 49.2382 24.6902 48.9674 24.6008C48.6977 24.5117 48.4349 24.4141 48.1781 24.3073C47.9212 24.2003 47.6738 24.0857 47.428 23.959C47.011 23.7439 46.6293 23.5233 46.3089 23.3134C45.985 23.1014 45.6999 22.888 45.4395 22.6645C45.4013 22.6317 45.3636 22.5986 45.3264 22.5652C45.3164 22.5562 45.3064 22.5471 45.2964 22.538C45.0955 22.3556 44.9086 22.1627 44.7371 21.9622C44.5255 21.7148 44.337 21.4564 44.1685 21.1848C44.0018 20.9159 43.8546 20.6318 43.7334 20.3444C43.6112 20.0538 43.5162 19.7693 43.4403 19.4579C43.3659 19.1507 43.317 18.8329 43.2969 18.4874C43.2771 18.1446 43.2887 17.7856 43.3347 17.4288C43.3806 17.0711 43.4605 16.7155 43.5718 16.3689C43.6841 16.0195 43.826 15.6842 43.9975 15.3559C44.1668 15.0317 44.3678 14.7123 44.5887 14.4115C44.8127 14.1056 45.0667 13.8073 45.3234 13.5387C45.7388 13.1031 46.2144 12.6919 46.7131 12.3223C47.2116 11.9522 47.7567 11.6061 48.3139 11.2954C48.4321 11.2295 48.553 11.1639 48.6765 11.0988C48.9687 10.9407 49.4013 10.7959 49.8513 10.698C50.4248 10.5709 51.0784 10.498 51.6962 10.4614C51.8382 10.453 51.9837 10.4461 52.1324 10.4408C52.6493 10.4226 53.1333 10.4223 53.6769 10.4364C53.6806 10.4365 53.6843 10.4366 53.688 10.4366C54.3186 10.4526 55.0312 10.4945 55.6671 10.5465C55.9088 10.5662 56.1447 10.5873 56.3878 10.6111C56.6314 10.635 56.8743 10.6609 57.1037 10.687C57.3375 10.7136 57.5729 10.7422 57.807 10.7724C58.0438 10.803 58.277 10.8348 58.5146 10.8693C58.7235 10.8996 58.9303 10.9313 59.1594 10.9675C59.1803 10.9708 59.2012 10.9741 59.2222 10.9774C59.473 11.0172 59.7612 11.0632 60.0322 11.1057C60.7461 11.2173 61.4177 11.3321 62.1333 11.4634C62.8268 11.5908 63.5282 11.7283 64.2373 11.8742C64.5097 11.9303 64.7846 11.988 65.0607 12.0467C65.4887 12.1378 65.929 12.2336 66.3566 12.3284C67.0625 12.4848 67.7828 12.6486 68.4964 12.8134C69.208 12.9778 69.9308 13.1473 70.6443 13.3161C71.3591 13.4853 72.0789 13.6573 72.792 13.8291C73.5851 14.02 74.3714 14.2124 75.1643 14.4099C75.95 14.6055 76.7462 14.8073 77.5289 15.0087C78.3035 15.2077 79.1138 15.42 79.8855 15.6243C80.6804 15.8353 81.4532 16.0428 82.2442 16.2584C82.7201 16.3881 83.1881 16.5165 83.6473 16.6432C83.8944 16.7261 84.1349 16.8072 84.3607 16.8837C86.0056 17.4422 87.2354 17.8671 88.8136 18.3954C88.9679 18.4488 89.0907 18.4944 89.2379 18.5492C89.266 18.5597 89.2957 18.5706 89.3258 18.5819C89.5178 18.6533 89.7254 18.7302 90.0578 18.8433C90.6914 19.0598 91.6295 19.3576 92.9035 19.6852C93.2622 19.7802 93.471 19.7444 93.4404 19.6276C93.4168 19.5449 93.2713 19.441 93.0494 19.3493C93.261 19.4127 93.4541 19.4702 93.6278 19.5214C93.7801 19.5655 94.0432 19.6468 94.1954 19.6913C94.3118 19.7251 94.5315 19.7747 94.5983 19.7582C94.7484 19.7701 94.7597 19.7237 94.773 19.6773C94.78 19.6541 94.7918 19.6334 94.7675 19.6025C94.7558 19.5871 94.7298 19.5674 94.6934 19.5449C94.6814 19.5307 94.6658 19.5158 94.6452 19.5002C94.5734 19.441 94.366 19.3523 94.2547 19.3159C93.8303 19.1758 93.4732 19.0596 93.049 18.9215C92.6886 18.8043 92.2274 18.6545 91.8662 18.5378C91.4725 18.4104 91.0532 18.2751 90.6711 18.1521C90.2747 18.0246 89.8561 17.8906 89.4736 17.7684C89.0821 17.6433 88.6475 17.5051 88.2719 17.386C88.0365 17.3115 87.7933 17.2347 87.5499 17.1581C87.4592 17.1295 87.3702 17.1014 87.2804 17.0732C87.207 17.0501 87.1323 17.0268 87.0627 17.0049C86.3161 16.7705 85.4976 16.5164 84.7413 16.284C83.9477 16.0403 83.1908 15.8102 82.398 15.5724C81.6148 15.3375 80.8417 15.1082 80.0539 14.878C79.2856 14.6533 78.481 14.4215 77.71 14.2025C76.9312 13.9813 76.1403 13.7603 75.3598 13.5456C74.7526 13.3786 74.1489 13.2146 73.5473 13.0532C73.3118 12.9824 73.0783 12.913 72.8474 12.845C72.1746 12.6469 71.505 12.4447 70.8428 12.2483C72.0304 12.5563 72.9824 12.826 73.8836 13.0855C74.0044 13.1204 74.1243 13.155 74.2437 13.1896C75.4691 13.5449 76.6531 13.8915 78.2403 14.3264C82.794 15.5815 85.3684 16.3695 87.0179 16.8491C88.6618 17.3319 89.3787 17.5236 90.0224 17.6532C91 17.8576 92.7732 18.3724 93.6662 18.6676C93.965 18.7658 94.2798 18.7818 94.3078 18.6819C94.3419 18.584 94.0794 18.4081 93.7788 18.3093C92.837 17.9979 90.9036 17.4326 89.7665 17.199C89.2646 17.0965 88.7016 16.952 87.0782 16.4753C85.4516 16.0027 82.8975 15.2203 78.3298 13.9615C76.7977 13.5418 75.6574 13.2077 74.4423 12.8549C74.3239 12.8206 74.2046 12.7859 74.0841 12.7512C74.0834 12.751 74.0826 12.7508 74.0819 12.7506C72.97 12.4301 71.7537 12.0848 70.1028 11.6725C66.3032 10.6957 61.1201 9.6544 59.8801 9.45371C59.6366 9.40856 59.4031 9.36509 59.1587 9.32081C58.2098 9.16083 57.0577 8.91547 54.4277 8.72173C53.875 8.68519 53.155 8.65596 52.4425 8.66289C51.3008 8.62655 50.2402 8.66601 49.2621 8.86305C48.7575 8.9633 48.2075 9.11996 47.7589 9.32285C47.5033 9.43735 47.259 9.55106 47.0238 9.66531C46.8312 9.75933 46.6359 9.85869 46.4486 9.95797C45.9915 10.2007 45.5415 10.4674 45.1188 10.7587C44.7831 10.9902 44.4404 11.2423 44.0826 11.541C42.8447 12.5955 41.2495 14.2497 40.9135 17.0819C40.6184 20.0837 42.0091 22.497 43.542 23.9485C42.3941 22.8608 41.7747 21.7698 41.3799 20.8244C41.3059 20.6448 41.2411 20.4701 41.1837 20.2998C40.7877 19.0928 40.7119 18.1317 40.7997 17.1346C41.6653 12.3359 43.8239 11.4886 45.1786 10.3687C45.5916 10.0932 46.058 9.8199 46.566 9.55722C46.9084 9.37927 47.24 9.22169 47.6188 9.05166C48.4602 8.67035 49.462 8.50176 50.3689 8.41978C51.6819 8.29988 53.1311 8.366 54.6119 8.51993C54.6125 8.51996 54.6131 8.52 54.6137 8.52003C54.903 8.55018 55.2206 8.58598 55.5066 8.62247C57.3199 8.85087 59.1732 9.19013 60.9997 9.54845C61.1918 9.58628 61.4227 9.63333 61.6896 9.68901C63.2305 10.0081 65.9142 10.618 69.1944 11.3335C69.9145 11.49 70.6681 11.6445 71.5235 11.8257C71.7843 11.8809 72.0551 11.9387 72.3374 12C73.5578 12.2654 75.0381 12.6027 76.9899 13.1072C78.5982 13.5227 80.5668 14.0662 82.5828 14.6464C83.5896 14.9359 84.6051 15.2332 85.5942 15.5258C88.6119 16.4197 91.3934 17.2676 94.1148 18.1365C94.1153 18.1366 94.1158 18.1368 94.1163 18.137C94.4549 18.2455 94.7273 18.2451 94.7425 18.1409C94.7799 18.0442 94.5168 17.8704 94.1976 17.7684C91.4638 16.896 88.6907 16.0513 85.681 15.1599C84.7051 14.8712 83.6971 14.5761 82.6931 14.2873C80.6644 13.7034 78.6676 13.1522 77.0407 12.7321C75.0534 12.2188 73.5428 11.8753 72.3037 11.6065C72.0056 11.542 71.7249 11.4822 71.4585 11.4259C70.6111 11.2471 69.9018 11.1024 69.2177 10.9539C66.0353 10.2612 63.4432 9.6694 61.8942 9.3462C61.6183 9.28832 61.3774 9.239 61.1731 9.19854C59.3736 8.84393 57.5565 8.50545 55.7154 8.26709C55.4329 8.22995 55.1246 8.19351 54.8282 8.16151C54.8276 8.16141 54.827 8.16131 54.8264 8.16121C53.3494 7.99952 51.8289 7.9202 50.4735 8.0315C49.4542 8.11617 48.3915 8.2825 47.443 8.71132C47.1859 8.82616 46.9407 8.94106 46.7057 9.05668C46.1562 9.32833 45.6399 9.61617 45.1497 9.93223C43.6548 11.1222 41.3386 12.044 40.4269 17.0897ZM92.4783 19.1806C91.6823 18.9693 91.0252 18.768 90.5828 18.6228C90.9624 18.7333 91.3993 18.8626 91.7895 18.9772C92.0052 19.0404 92.2392 19.1096 92.4783 19.1806ZM52.3506 9.03934C52.4773 9.0435 52.6065 9.04873 52.7378 9.05501C52.3877 9.05171 51.9956 9.05682 51.6293 9.0725C51.1899 9.0909 50.7259 9.12655 50.2797 9.18563C51.013 9.08408 51.6679 9.04987 52.3506 9.03934ZM41.2864 17.127C41.5867 14.5912 42.9299 13.0825 44.1039 12.0272C44.4484 11.7251 44.8023 11.4504 45.1653 11.1915C45.3131 11.0863 45.4612 10.9868 45.6171 10.8866C44.7605 11.5208 44.0502 12.2104 43.5373 12.8342C42.0151 14.7212 41.7598 16.2053 41.6799 17.3882C41.6632 17.7372 41.6718 18.0737 41.7032 18.4133C41.7111 18.6964 41.7369 18.9897 41.7832 19.2843C41.8473 19.6966 41.9573 20.1364 42.0997 20.5433C42.2416 20.9515 42.4229 21.3546 42.6331 21.7328C42.8447 22.1139 43.0874 22.475 43.3558 22.8122C43.6087 23.1301 43.8854 23.4269 44.1736 23.6942C44.19 23.7094 44.2065 23.7246 44.2231 23.7398C44.2372 23.7526 44.2512 23.7653 44.2653 23.778C44.5573 24.0409 44.8606 24.2765 45.1471 24.4791C45.4543 24.6963 45.7184 24.862 45.9534 25.0071C46.2486 25.1888 46.5594 25.3591 46.8745 25.513C47.1901 25.6673 47.5107 25.8061 47.8363 25.9314C48.1618 26.0567 48.4893 26.1676 48.822 26.2665C48.9291 26.2983 49.0417 26.3303 49.149 26.3594C49.1985 26.3728 49.248 26.386 49.2975 26.3988C48.6366 26.2515 47.9576 26.0546 47.2744 25.7912C46.2914 25.4092 45.2605 24.8934 44.2698 24.0886C44.2164 24.0449 44.1631 24.0004 44.1102 23.9551C42.5214 22.5882 40.9982 20.2291 41.2864 17.127ZM59.3436 25.2009C59.1974 25.2967 59.0039 25.4141 58.765 25.5319C58.587 25.6196 58.3787 25.715 58.1492 25.8094C58.0252 25.8604 57.8932 25.9118 57.7554 25.9625C57.7586 25.9612 57.7619 25.9599 57.7652 25.9586C58.1031 25.821 58.4129 25.6785 58.7363 25.5091C58.7409 25.5068 58.7454 25.5044 58.75 25.502C59.3543 25.1837 59.8687 24.7709 60.3165 24.3004C60.7693 23.8232 61.1477 23.2894 61.4574 22.7217C61.7674 22.1529 62.0081 21.5483 62.1773 20.931C62.3479 20.3075 62.4463 19.6742 62.473 19.031C62.4814 18.826 62.4824 18.6199 62.4758 18.4145C62.5019 18.8718 62.4886 19.3535 62.4271 19.8534C62.3776 20.2547 62.2975 20.6676 62.178 21.0958C62.1324 21.2589 62.0732 21.4561 61.9928 21.6826C61.6669 22.554 61.0485 24.0363 59.3436 25.2009ZM60.8184 13.61C60.73 13.491 60.6381 13.3737 60.5433 13.259C60.2773 12.9368 59.9906 12.6374 59.7032 12.369C59.4957 12.1753 59.2898 11.9986 59.0768 11.828C58.9876 11.7566 58.8921 11.6826 58.8046 11.6167C58.6559 11.5046 58.5036 11.3951 58.3477 11.2883C59.4372 12.0137 60.4089 12.8973 61.1796 14.0269C61.1897 14.0417 61.1996 14.0566 61.2096 14.0715C61.0827 13.9114 60.9493 13.754 60.8184 13.61Z" fill="white"/>
<path d="M95.4652 14.2437C95.4298 14.1887 95.3745 14.1518 95.3047 14.1053C95.3047 14.1052 95.3047 14.1052 95.3046 14.1052C95.2947 14.0985 95.2843 14.0917 95.2738 14.0846C95.1887 14.0273 95.0824 13.95 94.9575 13.8099C94.8194 13.655 94.6418 13.5775 94.5028 13.5505C94.4769 13.5454 94.4577 13.5351 94.423 13.5C94.4002 13.477 94.3717 13.4443 94.3306 13.3971C94.3087 13.372 94.2833 13.3428 94.2533 13.3088C94.1538 13.1963 94.0297 12.9987 93.9154 12.8166C93.8461 12.706 93.7803 12.6012 93.7258 12.5246C93.6461 12.4126 93.5569 12.3127 93.4598 12.2041C93.3709 12.1047 93.2754 11.9981 93.1748 11.8681C93.0976 11.7683 92.9665 11.7088 92.8268 11.6527C92.809 11.6455 92.7911 11.6384 92.7731 11.6313C92.6491 11.5822 92.5223 11.5321 92.4181 11.4559C92.2323 11.3202 92.1639 11.1586 92.0883 10.9797C92.0587 10.9097 92.028 10.8371 91.9887 10.7623C91.9265 10.644 91.8182 10.4866 91.7085 10.3292C91.6992 10.3158 91.6899 10.3023 91.6806 10.2889C91.6805 10.2888 91.6805 10.2888 91.6804 10.2887C91.58 10.1447 91.4814 10.0033 91.4179 9.89362C91.3171 9.71936 91.3003 9.63969 91.2864 9.57321C91.2812 9.54822 91.2764 9.52504 91.2676 9.49945C91.236 9.40731 91.1533 9.29154 91.0694 9.17417C91.0691 9.17372 91.0688 9.17326 91.0685 9.1728C91.0546 9.15332 90.9734 9.18424 90.8872 9.24185C90.801 9.29946 90.7424 9.36199 90.7563 9.38147C90.8007 9.44364 90.844 9.50431 90.8796 9.56077C90.8074 9.61307 90.7612 9.66542 90.7737 9.68295C90.8051 9.72685 90.8408 9.90144 90.8929 10.1772C90.8695 10.1715 90.8482 10.168 90.8285 10.1655C90.8053 10.1626 90.7862 10.1613 90.7699 10.1601C90.7357 10.1577 90.7131 10.156 90.6885 10.1427C90.6444 10.1034 90.5919 10.0302 90.5368 9.95309C90.5229 9.93364 90.4418 9.96446 90.3556 10.022C90.2694 10.0796 90.2108 10.1422 90.2247 10.1617C90.2249 10.162 90.2252 10.1624 90.2255 10.1628C90.28 10.2392 90.3341 10.3148 90.3805 10.3557C90.3923 10.3662 90.4035 10.3744 90.4126 10.3802C90.4199 10.3848 90.4293 10.3903 90.4373 10.3915C90.4384 10.3917 90.4405 10.3919 90.4435 10.3919C90.4436 10.3919 90.4437 10.3919 90.4437 10.3919C90.4454 10.3919 90.4538 10.3919 90.4693 10.3876C90.4724 10.3868 90.4794 10.3848 90.49 10.3807C90.4911 10.3808 90.4922 10.3809 90.4933 10.381C90.5082 10.382 90.5235 10.3832 90.5389 10.3851C90.5991 10.3927 90.6821 10.4129 90.8057 10.4878C90.9194 10.5568 91.0533 10.7121 91.1945 10.9232C91.1785 10.9132 91.1627 10.9031 91.1472 10.8928C91.1081 10.8669 91.0702 10.8399 91.033 10.8125C91.0187 10.802 91.0047 10.7917 90.9905 10.781C90.9678 10.7638 90.9451 10.7464 90.9226 10.7289C90.9074 10.7171 90.8923 10.7053 90.8772 10.6934C90.8771 10.6934 90.8771 10.6933 90.8771 10.6933C90.8561 10.6768 90.835 10.6604 90.8135 10.6439C90.8059 10.6382 90.7984 10.6325 90.791 10.6269C90.7616 10.6044 90.7328 10.5823 90.692 10.5619C90.6862 10.56 90.6793 10.5583 90.6738 10.5573C90.6679 10.5562 90.6621 10.5552 90.6563 10.5545C90.6512 10.5539 90.6461 10.5534 90.6413 10.5529C90.6407 10.5528 90.64 10.5527 90.6394 10.5527C90.6341 10.5521 90.6291 10.5515 90.6243 10.5508C90.6196 10.5502 90.615 10.5496 90.6108 10.5488C90.6108 10.5487 90.6108 10.5487 90.6108 10.5487C90.6065 10.5478 90.6032 10.5471 90.5992 10.5458C90.5941 10.5442 90.59 10.5426 90.5855 10.5404C90.5811 10.5383 90.5768 10.5359 90.5728 10.5333C90.5687 10.5307 90.5648 10.5278 90.561 10.5249C90.5572 10.5219 90.5535 10.5188 90.5498 10.5156C90.5462 10.5125 90.5426 10.5091 90.539 10.5058C90.5355 10.5024 90.5319 10.499 90.5283 10.4956C90.52 10.4877 90.4968 10.4903 90.463 10.5034C90.4293 10.5164 90.388 10.5387 90.3478 10.5656C90.3076 10.5924 90.2714 10.6219 90.2469 10.6478C90.2223 10.6737 90.2115 10.6939 90.2162 10.7041C90.2175 10.7069 90.2187 10.7098 90.22 10.7126C90.2208 10.7142 90.2217 10.7159 90.2225 10.7176C90.2246 10.722 90.2267 10.7266 90.2291 10.7311C90.2314 10.7355 90.2339 10.7399 90.2365 10.7443C90.2392 10.7487 90.242 10.753 90.2452 10.7572C90.2483 10.7614 90.2518 10.7655 90.2558 10.7695C90.2596 10.7733 90.2644 10.7773 90.2693 10.7806C90.2729 10.783 90.2778 10.7855 90.2821 10.7876C90.2866 10.7897 90.2913 10.7916 90.2961 10.7933C90.3008 10.795 90.3056 10.7965 90.3102 10.7979C90.3106 10.7981 90.3111 10.7982 90.3116 10.7984C90.3156 10.7997 90.3195 10.8009 90.3231 10.8021C90.3271 10.8035 90.3307 10.8049 90.3339 10.8064C90.3375 10.808 90.3393 10.8093 90.3414 10.8108C90.3647 10.8348 90.3861 10.8692 90.4067 10.9021C90.4093 10.9062 90.4119 10.9103 90.4144 10.9143C90.4278 10.936 90.4409 10.9577 90.454 10.9794C90.4636 10.9952 90.4731 11.011 90.4828 11.0268C90.4969 11.05 90.5113 11.0731 90.5259 11.0961C90.535 11.1104 90.544 11.1243 90.5533 11.1384C90.5774 11.1753 90.6023 11.2118 90.6287 11.2474C90.6551 11.2829 90.683 11.3177 90.7133 11.351C90.7434 11.3842 90.7772 11.4171 90.8144 11.4457C90.8419 11.4666 90.8769 11.4836 90.911 11.4981C90.9293 11.5059 90.9476 11.5133 90.9658 11.5206C90.9659 11.5206 90.9659 11.5206 90.966 11.5206C90.982 11.5269 90.9977 11.5332 91.013 11.5396C91.0459 11.5533 91.0767 11.5678 91.1052 11.5838C91.1337 11.5998 91.1599 11.6172 91.1838 11.6363C91.2075 11.6553 91.2294 11.6761 91.249 11.6981C91.2686 11.7202 91.286 11.7432 91.3027 11.7684C91.3244 11.8017 91.3435 11.8364 91.3627 11.8723C91.3816 11.908 91.3999 11.9446 91.4182 11.9812C91.4245 11.9941 91.431 12.0068 91.4374 12.0197C91.4375 12.0198 91.4375 12.0198 91.4375 12.0199C91.4493 12.0437 91.4611 12.0676 91.4731 12.0914C91.4916 12.1282 91.5103 12.1649 91.5299 12.2013C91.5494 12.2376 91.5699 12.2737 91.592 12.309C91.6142 12.3441 91.6384 12.3793 91.6672 12.4116C91.6928 12.4405 91.7201 12.4688 91.7468 12.4963C91.7538 12.5035 91.7609 12.5108 91.7679 12.5181C91.8012 12.5526 91.8323 12.5869 91.8584 12.6239C91.8847 12.6607 91.9065 12.7004 91.925 12.7429C91.9435 12.7852 91.9589 12.8302 91.9724 12.877C91.986 12.9239 91.9973 12.9716 92.0079 13.021C92.0183 13.07 92.0277 13.12 92.0364 13.1711C92.0413 13.1994 92.0479 13.2287 92.055 13.2558C92.0622 13.2831 92.0701 13.3097 92.0784 13.3357C92.0817 13.3462 92.0852 13.3567 92.0885 13.3671C92.0934 13.3822 92.0983 13.3972 92.1029 13.4121C92.1107 13.4373 92.1177 13.4622 92.1231 13.4873C92.1286 13.5124 92.1323 13.5378 92.1337 13.5639C92.135 13.5909 92.1338 13.6146 92.1298 13.6448C92.1283 13.7127 92.1375 13.7481 92.1476 13.7874C92.1496 13.7952 92.1515 13.8032 92.1535 13.8115C92.1665 13.8581 92.1826 13.9026 92.2007 13.945C92.219 13.9879 92.2393 14.0285 92.2618 14.0684C92.2841 14.1078 92.3087 14.1461 92.335 14.1831C92.3613 14.22 92.3893 14.2556 92.4193 14.2901C92.4493 14.3246 92.4818 14.3584 92.5148 14.3898C92.5338 14.4079 92.5554 14.4263 92.576 14.4429C92.5909 14.455 92.6058 14.4666 92.6205 14.478C92.6265 14.4827 92.6325 14.4873 92.6384 14.4919C92.6586 14.5078 92.678 14.5234 92.6955 14.5394C92.713 14.5553 92.7287 14.5716 92.7419 14.5888C92.7552 14.6062 92.7662 14.6245 92.7749 14.6443C92.7839 14.6648 92.7897 14.683 92.7947 14.7079C92.7979 14.7242 92.8008 14.7402 92.8038 14.7562C92.8081 14.7801 92.8123 14.804 92.8162 14.8283C92.8201 14.8525 92.8236 14.8766 92.8269 14.9011C92.8279 14.909 92.829 14.9173 92.83 14.9252C92.8329 14.9498 92.8355 14.9743 92.8374 14.9992C92.8394 15.024 92.8408 15.049 92.8415 15.0743C92.8422 15.0997 92.8423 15.1252 92.8416 15.1516C92.8403 15.1966 92.8498 15.2326 92.8602 15.2627C92.8708 15.293 92.8833 15.3197 92.8955 15.3457C92.8978 15.3505 92.9 15.3554 92.9023 15.3602C92.9122 15.3811 92.9221 15.4016 92.9312 15.4221C92.9425 15.4474 92.9527 15.4728 92.9621 15.4988C92.9715 15.5246 92.98 15.5513 92.9872 15.5784C92.9945 15.6057 93.0004 15.6325 93.0057 15.6621C93.0109 15.6914 93.0133 15.7231 93.0161 15.7577C93.0189 15.792 93.022 15.8279 93.0272 15.8628C93.0324 15.8978 93.0395 15.932 93.0488 15.9645C93.0581 15.9971 93.0696 16.0284 93.0827 16.058C93.0959 16.0878 93.111 16.1161 93.1273 16.1434C93.1436 16.1706 93.162 16.1977 93.1805 16.2221C93.2104 16.2618 93.2412 16.3006 93.2724 16.3392C93.3035 16.3776 93.3351 16.4159 93.3669 16.4539C93.3986 16.4918 93.4306 16.5296 93.4627 16.5672C93.4948 16.6049 93.5271 16.6424 93.5594 16.6799C93.5665 16.6881 93.5736 16.6964 93.5808 16.7047C93.6059 16.7339 93.631 16.763 93.656 16.7921C93.6562 16.7923 93.6564 16.7925 93.6566 16.7927C93.6886 16.8302 93.7201 16.867 93.7511 16.9047C93.7624 16.9186 93.7733 16.9319 93.7841 16.9456C93.7949 16.9594 93.8053 16.973 93.8155 16.9869C93.8258 17.0008 93.8357 17.0149 93.8451 17.0289C93.8546 17.0432 93.8635 17.0573 93.8718 17.0719C93.8795 17.0853 93.8864 17.0991 93.894 17.1141C93.8947 17.1155 93.8954 17.1169 93.8961 17.1183C93.9044 17.1347 93.9148 17.1528 93.9264 17.1683C93.9573 17.2093 93.9861 17.2501 94.0142 17.2925C94.0423 17.3349 94.0692 17.3781 94.0957 17.4219C94.106 17.439 94.1163 17.4563 94.1266 17.4736C94.1427 17.5004 94.1588 17.5274 94.1753 17.5542C94.2024 17.5984 94.2304 17.642 94.2603 17.6848C94.2902 17.7274 94.3221 17.7691 94.3558 17.8092C94.3896 17.8493 94.4256 17.8884 94.463 17.9257C94.5048 17.9673 94.5474 18.0079 94.5906 18.0484C94.6337 18.0889 94.6775 18.129 94.7213 18.1686C94.7653 18.2085 94.8096 18.248 94.8542 18.2873C94.8988 18.3267 94.9436 18.3658 94.9888 18.4048C95.0158 18.4281 95.043 18.4513 95.0703 18.4745C95.073 18.4945 95.0755 18.5138 95.078 18.5323C95.0965 18.6691 95.1099 18.768 95.1506 18.8831C95.1531 18.8951 95.1528 18.9063 95.1525 18.92C95.1524 18.9226 95.1524 18.9253 95.1524 18.9281C95.1522 18.9459 95.1527 18.9658 95.1602 18.989C95.175 19.0352 95.2172 19.0932 95.3414 19.1216C95.3728 19.1287 95.4643 19.0857 95.5457 19.0253C95.6029 18.983 95.6399 18.9433 95.6461 18.921C95.6717 18.9376 95.6976 18.9538 95.7235 18.9701C95.7338 18.9765 95.759 18.9723 95.794 18.9579C95.8289 18.9435 95.8706 18.9203 95.9104 18.893C95.9502 18.8657 95.9851 18.8363 96.0079 18.8111C96.0307 18.7859 96.0395 18.7669 96.0326 18.758C96.0144 18.7346 95.9962 18.7112 95.9786 18.6875C95.9609 18.6638 95.9438 18.6398 95.9271 18.6155C95.9103 18.5912 95.894 18.5667 95.8779 18.5418C95.862 18.5171 95.8462 18.4921 95.8306 18.467C95.815 18.4416 95.8 18.4165 95.7848 18.391C95.7757 18.3757 95.7665 18.3602 95.7576 18.3449C95.7543 18.3392 95.7511 18.3336 95.7479 18.328C95.7453 18.3235 95.7426 18.3189 95.7398 18.3142C95.7112 18.2646 95.6826 18.2143 95.6546 18.1642C95.6264 18.1139 95.5984 18.0635 95.5707 18.013C95.543 17.9625 95.5155 17.9118 95.4881 17.861C95.4607 17.8103 95.4335 17.7595 95.4064 17.7085C95.3795 17.6576 95.3525 17.6065 95.3261 17.5552C95.3056 17.5156 95.2856 17.476 95.2659 17.4362C95.2643 17.4164 95.2624 17.3971 95.2603 17.3781C95.2543 17.3228 95.2549 17.2631 95.2557 17.2041C95.2899 17.2853 95.307 17.3576 95.3231 17.4264C95.3253 17.4356 95.3274 17.4448 95.3296 17.4539C95.3518 17.547 95.3766 17.6347 95.4464 17.7282C95.6452 17.9944 95.7626 18.1473 95.8491 18.2336C95.9357 18.3199 95.994 18.3429 96.0798 18.3435C96.201 18.3443 96.3212 18.4216 96.3595 18.4752C96.3734 18.4947 96.4546 18.4638 96.5408 18.4062C96.627 18.3486 96.6857 18.286 96.6717 18.2666C96.6313 18.2099 96.5043 18.1242 96.3601 18.1232C96.2958 18.1228 96.2443 18.1074 96.1591 18.0224C96.0739 17.9374 95.9576 17.7859 95.7585 17.5192C95.6911 17.429 95.667 17.3448 95.6451 17.2527C95.6429 17.2437 95.6408 17.2345 95.6387 17.2253C95.6387 17.2253 95.6386 17.2252 95.6386 17.2252C95.6187 17.1404 95.5971 17.0481 95.5428 16.9403C95.4179 16.6918 95.2666 16.3464 95.2485 16.2525C95.245 16.2341 95.2425 16.2156 95.2398 16.1962C95.2296 16.1217 95.2172 16.0317 95.1369 15.8639C95.1193 15.8271 95.0959 15.786 95.0686 15.7423C95.0678 15.65 95.0652 15.5616 95.0521 15.4919C95.0409 15.4317 95.0489 15.364 95.0613 15.2953C95.0648 15.2755 95.0689 15.2553 95.0729 15.2351C95.0825 15.1865 95.0922 15.1378 95.0957 15.0944C95.0985 15.0597 95.1042 15.0216 95.1103 14.9812C95.1323 14.8344 95.1588 14.6584 95.0648 14.5146C94.9652 14.3622 94.8608 14.2445 94.7687 14.1444C94.8437 14.213 94.9103 14.2602 94.9672 14.2985C94.9779 14.3058 94.9883 14.3127 94.9982 14.3193C95.0685 14.3662 95.1197 14.4003 95.1526 14.4514C95.3097 14.6957 95.3436 14.804 95.3353 14.9572C95.3331 14.9976 95.326 15.0452 95.3185 15.0964C95.3033 15.1989 95.2861 15.316 95.3007 15.4198C95.3144 15.5164 95.317 15.6329 95.3199 15.7562C95.32 15.7563 95.32 15.7563 95.32 15.7563C95.3206 15.7804 95.3212 15.8048 95.3218 15.8294C95.3259 15.979 95.3332 16.1344 95.3632 16.2703C95.3664 16.2849 95.3694 16.3028 95.3728 16.3235C95.3927 16.4427 95.4277 16.6518 95.6051 16.8175C95.6441 16.8538 95.6956 16.8843 95.7544 16.919C95.7724 16.9296 95.7911 16.9405 95.8102 16.9521C95.8928 17.0025 95.988 17.0671 96.0884 17.1707C96.1712 17.2561 96.259 17.3691 96.3502 17.4864C96.3951 17.5442 96.4409 17.603 96.4873 17.6601C96.6273 17.8326 96.7673 17.983 96.9071 18.133C96.9071 18.1331 96.9072 18.1331 96.9072 18.1331C96.9237 18.1509 97.0067 18.118 97.0925 18.0598C97.1782 18.0017 97.2343 17.9401 97.2179 17.9224C97.078 17.7723 96.9383 17.6224 96.7987 17.4505C96.753 17.3942 96.7076 17.3359 96.6628 17.2784C96.5712 17.1605 96.4823 17.0459 96.3986 16.9597C96.2965 16.8543 96.1996 16.7885 96.1159 16.7375C96.0957 16.7252 96.0764 16.7139 96.0581 16.7031C95.9999 16.6688 95.9515 16.6403 95.9145 16.6058C95.7427 16.4454 95.7089 16.2443 95.6888 16.1247C95.6853 16.1035 95.6821 16.0849 95.6787 16.0696C95.6493 15.9362 95.642 15.7833 95.638 15.6338C95.6373 15.6096 95.6367 15.5854 95.6361 15.5614C95.6362 15.5613 95.6362 15.5613 95.6362 15.5612C95.6333 15.4379 95.6306 15.3193 95.6167 15.2209C95.6026 15.121 95.6184 15.0151 95.6333 14.916C95.6412 14.8629 95.6487 14.8117 95.6513 14.7645C95.6602 14.6019 95.6228 14.4887 95.4652 14.2437ZM95.607 18.895C95.5359 18.8733 95.5017 18.8398 95.4849 18.809C95.5103 18.8277 95.536 18.8461 95.5621 18.8643C95.5769 18.8746 95.5919 18.8849 95.607 18.895ZM94.7525 15.9446C94.7526 15.9557 94.7527 15.967 94.7527 15.9783C94.7407 15.955 94.7286 15.9318 94.7165 15.9087C94.7016 15.8802 94.6865 15.8519 94.6715 15.8237C94.7006 15.8652 94.7281 15.9058 94.7525 15.9446ZM94.7521 14.7226C94.8407 14.8582 94.8167 15.0196 94.795 15.1652C94.7888 15.2072 94.7828 15.2478 94.7796 15.2861C94.7784 15.302 94.7762 15.3185 94.7735 15.3354C94.7279 15.2776 94.6854 15.225 94.6505 15.1819C94.5464 15.0534 94.4678 14.9931 94.3987 14.9402C94.3787 14.9249 94.3595 14.9101 94.3408 14.8945C94.3405 14.8715 94.3398 14.8478 94.3377 14.8249C94.3348 14.7926 94.3302 14.7588 94.3245 14.7275C94.3188 14.696 94.3117 14.6649 94.3035 14.6352C94.2951 14.6053 94.2856 14.5765 94.2753 14.5484C94.2656 14.5219 94.2551 14.4961 94.2449 14.4711C94.2443 14.4697 94.2437 14.4683 94.2431 14.4668C94.2324 14.4404 94.2219 14.4148 94.2144 14.3898C94.2068 14.3643 94.2028 14.3416 94.204 14.3183C94.2054 14.2892 94.2059 14.26 94.2056 14.2317C94.2053 14.2033 94.2042 14.1756 94.2023 14.1485C94.2004 14.1213 94.198 14.0948 94.1949 14.0686C94.1939 14.0602 94.1928 14.0514 94.1917 14.043C94.1912 14.0392 94.1907 14.0353 94.1902 14.0315C94.2167 14.069 94.2449 14.1076 94.2748 14.1469C94.318 14.2037 94.3704 14.2601 94.4281 14.3224C94.5266 14.4287 94.6407 14.5521 94.7521 14.7226ZM93.8318 13.4336C93.8421 13.4507 93.8558 13.4767 93.8736 13.5102C93.8778 13.5181 93.8822 13.5265 93.8868 13.5352C93.8866 13.5351 93.8865 13.5349 93.8863 13.5348C93.8648 13.5197 93.8453 13.5056 93.8254 13.4896C93.7899 13.4611 93.7567 13.4325 93.7247 13.4027C93.6926 13.3727 93.6621 13.3418 93.633 13.3099C93.6038 13.278 93.5761 13.2449 93.5502 13.2111C93.524 13.177 93.4996 13.1424 93.4771 13.1061C93.4699 13.0946 93.4629 13.0829 93.4561 13.071C93.4808 13.0911 93.5048 13.1131 93.5302 13.1363C93.5505 13.1549 93.5716 13.1742 93.5946 13.194C93.6035 13.2016 93.615 13.2102 93.6284 13.2203C93.6817 13.2601 93.7653 13.3225 93.8318 13.4336ZM93.3532 12.7302C93.3498 12.7205 93.3462 12.7111 93.3423 12.702C93.3313 12.676 93.3188 12.6518 93.3061 12.6285C93.2971 12.6121 93.2879 12.5961 93.2788 12.5804C93.275 12.5737 93.2713 12.567 93.2675 12.5604C93.2613 12.5494 93.2552 12.5383 93.2492 12.5273C93.3072 12.5939 93.3619 12.6604 93.4137 12.7332C93.4144 12.7341 93.415 12.7351 93.4157 12.7361C93.3944 12.7341 93.3736 12.7321 93.3532 12.7302Z" fill="white"/>
<path d="M93.0549 19.3364C93.003 19.3632 92.9669 19.4117 92.9214 19.473C92.9213 19.473 92.9213 19.473 92.9213 19.473C92.9148 19.4818 92.9081 19.4909 92.9011 19.5001C92.845 19.5746 92.7698 19.6671 92.6362 19.7691C92.4885 19.8817 92.4101 20.0432 92.3796 20.1739C92.3739 20.1983 92.3637 20.2156 92.3301 20.2444C92.308 20.2633 92.2768 20.2864 92.2319 20.3199C92.208 20.3376 92.1802 20.3583 92.1477 20.3828C92.0404 20.4638 91.8541 20.5572 91.6823 20.6432C91.5781 20.6954 91.4792 20.7448 91.4067 20.7872C91.3006 20.8492 91.2053 20.9221 91.1018 21.0013C91.007 21.0739 90.9052 21.152 90.7818 21.2317C90.6871 21.2929 90.6272 21.4118 90.57 21.5394C90.5627 21.5556 90.5555 21.572 90.5482 21.5884C90.4981 21.7017 90.4469 21.8177 90.3728 21.9082C90.2407 22.0697 90.0897 22.114 89.9224 22.1631C89.857 22.1822 89.7891 22.2021 89.7189 22.2301C89.6078 22.2743 89.459 22.3578 89.3101 22.4426C89.2974 22.4499 89.2846 22.457 89.272 22.4643C89.2719 22.4643 89.2718 22.4643 89.2718 22.4644C89.1355 22.5421 89.0018 22.6184 88.8986 22.665C88.7346 22.739 88.6608 22.7445 88.5992 22.749C88.5761 22.7507 88.5546 22.7522 88.5308 22.7572C88.4449 22.7754 88.3354 22.8398 88.2242 22.905C88.2238 22.9053 88.2234 22.9055 88.2229 22.9057C88.2045 22.9166 88.2296 22.9993 88.2789 23.0905C88.3283 23.1817 88.3832 23.2469 88.4017 23.236C88.4605 23.2015 88.518 23.1678 88.5712 23.141C88.6163 23.2179 88.6624 23.2696 88.679 23.2599C88.7206 23.2355 88.8822 23.2245 89.1374 23.2113C89.1312 23.2331 89.1271 23.2533 89.124 23.272C89.1204 23.294 89.1184 23.3123 89.1167 23.328C89.1131 23.3607 89.1106 23.3823 89.0974 23.4044C89.0595 23.4418 88.9902 23.4827 88.9172 23.5256C88.8988 23.5364 88.9238 23.619 88.9731 23.7102C89.0224 23.8013 89.0774 23.8665 89.0959 23.8557C89.0962 23.8555 89.0966 23.8553 89.097 23.8551C89.1693 23.8127 89.2408 23.7706 89.2803 23.7312C89.2903 23.7212 89.2984 23.7114 89.304 23.7034C89.3086 23.697 89.3141 23.6887 89.3155 23.681C89.3156 23.68 89.3159 23.678 89.3161 23.6751C89.316 23.675 89.316 23.6749 89.316 23.6749C89.3161 23.6733 89.3165 23.6651 89.3132 23.6496C89.3125 23.6464 89.311 23.6394 89.3077 23.6286C89.3078 23.6275 89.3079 23.6265 89.3081 23.6255C89.3097 23.6111 89.3113 23.5965 89.3137 23.5819C89.3231 23.5246 89.345 23.4471 89.4188 23.3376C89.4867 23.2369 89.6347 23.1283 89.8341 23.0202C89.8243 23.0343 89.8144 23.0482 89.8043 23.0619C89.779 23.0962 89.7527 23.1292 89.726 23.1616C89.7158 23.1739 89.7057 23.1861 89.6953 23.1983C89.6786 23.218 89.6618 23.2376 89.6448 23.257C89.6334 23.2701 89.6219 23.2832 89.6104 23.2962C89.6103 23.2962 89.6103 23.2963 89.6103 23.2963C89.5943 23.3144 89.5783 23.3326 89.5623 23.3511C89.5568 23.3577 89.5513 23.3642 89.5458 23.3706C89.524 23.396 89.5026 23.4209 89.4822 23.4576C89.4802 23.4629 89.4784 23.4694 89.4772 23.4746C89.476 23.4802 89.4748 23.4857 89.4739 23.4912C89.4731 23.496 89.4725 23.5009 89.4718 23.5054C89.4717 23.506 89.4716 23.5066 89.4716 23.5073C89.4708 23.5123 89.47 23.5171 89.4692 23.5216C89.4685 23.5261 89.4677 23.5305 89.4668 23.5344C89.4668 23.5344 89.4668 23.5344 89.4667 23.5344C89.4657 23.5384 89.465 23.5415 89.4636 23.5452C89.4619 23.5499 89.4603 23.5537 89.4581 23.5578C89.456 23.5617 89.4536 23.5655 89.451 23.5691C89.4485 23.5727 89.4457 23.5761 89.4429 23.5793C89.44 23.5826 89.437 23.5858 89.4339 23.5889C89.4309 23.592 89.4277 23.595 89.4244 23.598C89.4212 23.601 89.4179 23.6041 89.4146 23.6071C89.407 23.614 89.4085 23.6368 89.4191 23.6712C89.4297 23.7056 89.4485 23.7486 89.4715 23.7911C89.4945 23.8336 89.5201 23.8726 89.5429 23.8999C89.5656 23.9272 89.5837 23.9404 89.5933 23.9372C89.5959 23.9363 89.5986 23.9355 89.6012 23.9346C89.6027 23.9341 89.6043 23.9335 89.6059 23.9329C89.6101 23.9314 89.6143 23.93 89.6185 23.9284C89.6227 23.9267 89.6268 23.9249 89.6309 23.9229C89.6351 23.9209 89.6392 23.9188 89.6432 23.9163C89.6472 23.9138 89.6511 23.911 89.6548 23.9077C89.6585 23.9046 89.6624 23.9004 89.6656 23.8961C89.668 23.893 89.6705 23.8885 89.6725 23.8846C89.6746 23.8806 89.6766 23.8763 89.6783 23.8719C89.6801 23.8676 89.6816 23.8631 89.6832 23.8589C89.6833 23.8585 89.6835 23.8581 89.6837 23.8576C89.685 23.8539 89.6863 23.8503 89.6876 23.847C89.689 23.8433 89.6905 23.84 89.6919 23.8371C89.6936 23.8339 89.6948 23.8323 89.6963 23.8304C89.7192 23.8112 89.7517 23.795 89.7827 23.7796C89.7866 23.7777 89.7904 23.7757 89.7942 23.7738C89.8146 23.7638 89.8351 23.754 89.8555 23.7442C89.8704 23.7371 89.8853 23.73 89.9002 23.7228C89.922 23.7123 89.9439 23.7014 89.9656 23.6904C89.979 23.6836 89.9922 23.6768 90.0055 23.6697C90.0403 23.6513 90.0748 23.6321 90.1085 23.6114C90.1422 23.5907 90.1753 23.5683 90.2071 23.5436C90.2388 23.5189 90.2703 23.4907 90.2981 23.4585C90.3184 23.4347 90.3354 23.4032 90.3501 23.3721C90.358 23.3554 90.3656 23.3387 90.3729 23.3222C90.373 23.3221 90.373 23.322 90.373 23.3219C90.3794 23.3074 90.3858 23.2929 90.3923 23.279C90.4063 23.249 90.4208 23.2212 90.4367 23.1958C90.4525 23.1704 90.4695 23.1474 90.488 23.1269C90.5064 23.1065 90.5264 23.0881 90.5473 23.0721C90.5684 23.0561 90.5902 23.0424 90.6141 23.0297C90.6455 23.0131 90.6781 22.9993 90.7118 22.9856C90.7454 22.9721 90.7797 22.9594 90.8141 22.9467C90.8261 22.9422 90.8381 22.9376 90.8502 22.9332C90.8502 22.9332 90.8503 22.9332 90.8503 22.9331C90.8726 22.9249 90.895 22.9167 90.9174 22.9084C90.9519 22.8955 90.9864 22.8823 91.0205 22.8683C91.0547 22.8543 91.0886 22.8394 91.1219 22.8227C91.155 22.806 91.1883 22.7873 91.2191 22.7638C91.2467 22.7429 91.2737 22.7204 91.3 22.6983C91.307 22.6924 91.3139 22.6866 91.3209 22.6807C91.354 22.6532 91.3867 22.6277 91.4216 22.6074C91.4565 22.587 91.4938 22.5712 91.5336 22.5591C91.5731 22.5469 91.6151 22.5381 91.6585 22.5313C91.7022 22.5245 91.7464 22.52 91.7921 22.5165C91.8375 22.513 91.8838 22.5107 91.931 22.5091C91.9572 22.5082 91.9843 22.5057 92.0095 22.5025C92.0348 22.4993 92.0596 22.4952 92.0838 22.4907C92.0936 22.4889 92.1033 22.487 92.113 22.4852C92.1271 22.4825 92.141 22.4797 92.1549 22.4773C92.1783 22.4732 92.2014 22.4698 92.2247 22.4679C92.248 22.466 92.2714 22.4658 92.2954 22.4681C92.3202 22.4704 92.3419 22.4747 92.3695 22.4828C92.4317 22.4934 92.4646 22.4892 92.5011 22.4848C92.5083 22.4839 92.5157 22.4831 92.5234 22.4823C92.5667 22.476 92.6082 22.4664 92.6478 22.4546C92.6879 22.4427 92.726 22.4286 92.7635 22.4122C92.8006 22.3959 92.8368 22.3773 92.8718 22.3569C92.9067 22.3364 92.9405 22.3141 92.9734 22.2897C93.0062 22.2654 93.0386 22.2385 93.0687 22.2108C93.0861 22.1948 93.1038 22.1765 93.12 22.1588C93.1316 22.146 93.1429 22.1331 93.154 22.1204C93.1585 22.1152 93.163 22.1101 93.1675 22.105C93.1828 22.0876 93.198 22.0709 93.2133 22.0561C93.2287 22.0414 93.2442 22.0284 93.2606 22.0179C93.277 22.0074 93.2943 21.9993 93.3128 21.9935C93.3321 21.9876 93.349 21.9844 93.372 21.9829C93.3871 21.9821 93.4019 21.9814 93.4167 21.9807C93.4388 21.9797 93.4609 21.9789 93.4833 21.9784C93.5057 21.9779 93.528 21.9777 93.5506 21.9779C93.5578 21.978 93.5655 21.978 93.5728 21.9782C93.5955 21.9786 93.6181 21.9795 93.641 21.9809C93.6639 21.9823 93.6868 21.9843 93.7101 21.9871C93.7335 21.9898 93.7568 21.9932 93.7811 21.9975C93.8223 22.0048 93.8557 22.0005 93.8837 21.9945C93.912 21.9883 93.937 21.9798 93.9613 21.9715C93.9658 21.97 93.9704 21.9684 93.9749 21.9669C93.9945 21.9601 94.0137 21.9533 94.0329 21.9473C94.0565 21.9398 94.0803 21.9333 94.1045 21.9277C94.1286 21.9222 94.1534 21.9175 94.1785 21.9142C94.2039 21.9109 94.2287 21.9087 94.2562 21.9077C94.2832 21.9066 94.3124 21.9085 94.3443 21.9104C94.3759 21.9124 94.4089 21.9142 94.4412 21.9139C94.4735 21.9136 94.5052 21.9114 94.5354 21.9067C94.5657 21.9021 94.5948 21.8953 94.6225 21.8865C94.6504 21.8778 94.677 21.8671 94.7027 21.8549C94.7283 21.8428 94.7539 21.8287 94.7771 21.8141C94.8147 21.7905 94.8516 21.766 94.8883 21.741C94.9248 21.7161 94.9612 21.6907 94.9973 21.6651C95.0334 21.6395 95.0694 21.6136 95.1052 21.5877C95.1411 21.5616 95.1769 21.5355 95.2125 21.5093C95.2204 21.5035 95.2283 21.4978 95.2362 21.492C95.264 21.4716 95.2918 21.4512 95.3195 21.431C95.3197 21.4308 95.3198 21.4307 95.32 21.4305C95.3557 21.4045 95.3908 21.3791 95.4267 21.3542C95.4398 21.3451 95.4525 21.3364 95.4655 21.3278C95.4786 21.3192 95.4915 21.311 95.5047 21.3029C95.5179 21.2949 95.5312 21.2872 95.5445 21.28C95.5579 21.2727 95.5712 21.266 95.585 21.26C95.5976 21.2544 95.6106 21.2495 95.6247 21.2442C95.6259 21.2437 95.6272 21.2432 95.6285 21.2427C95.6439 21.2369 95.661 21.2293 95.6757 21.2202C95.7146 21.1958 95.7532 21.1734 95.7932 21.1519C95.8333 21.1305 95.8739 21.1103 95.9153 21.0906C95.9314 21.0829 95.9477 21.0753 95.9639 21.0677C95.9892 21.0557 96.0146 21.0438 96.0399 21.0315C96.0815 21.0112 96.1227 20.99 96.1632 20.9668C96.2035 20.9436 96.243 20.9185 96.2812 20.8912C96.3194 20.864 96.3567 20.8344 96.3925 20.8032C96.4324 20.7684 96.4714 20.7327 96.5103 20.6964C96.5491 20.66 96.5877 20.6232 96.6259 20.5861C96.6643 20.5489 96.7023 20.5114 96.7402 20.4736C96.7782 20.4357 96.8159 20.3976 96.8535 20.3592C96.876 20.3362 96.8984 20.313 96.9208 20.2898C96.9393 20.2898 96.9571 20.29 96.9742 20.2901C97.1004 20.2907 97.1917 20.291 97.299 20.2673C97.31 20.2664 97.3204 20.2682 97.3329 20.2704C97.3353 20.2708 97.3378 20.2711 97.3404 20.2715C97.3567 20.2742 97.3749 20.2763 97.3965 20.2722C97.4395 20.2641 97.4945 20.2312 97.5256 20.1148C97.5334 20.0853 97.4976 19.991 97.4455 19.9041C97.409 19.8431 97.3742 19.8019 97.3539 19.7929C97.3702 19.7704 97.3862 19.7475 97.4021 19.7246C97.4085 19.7155 97.4056 19.6906 97.3938 19.6548C97.382 19.6191 97.3624 19.5756 97.339 19.5334C97.3155 19.4911 97.2901 19.4534 97.2678 19.428C97.2456 19.4025 97.2286 19.3915 97.2202 19.3969C97.1979 19.4114 97.1757 19.4258 97.1532 19.4397C97.1307 19.4536 97.1081 19.4669 97.0851 19.4798C97.0621 19.4927 97.0389 19.5052 97.0155 19.5174C96.9921 19.5295 96.9686 19.5414 96.9448 19.553C96.921 19.5647 96.8973 19.5758 96.8733 19.5871C96.8588 19.5938 96.8443 19.6006 96.8299 19.6072C96.8245 19.6097 96.8192 19.6119 96.814 19.6143C96.8097 19.6162 96.8054 19.6183 96.801 19.6203C96.7543 19.6413 96.707 19.6622 96.6599 19.6825C96.6126 19.703 96.5652 19.7232 96.5177 19.7432C96.4702 19.7633 96.4226 19.783 96.3749 19.8026C96.3273 19.8223 96.2796 19.8418 96.2316 19.8611C96.1839 19.8803 96.1359 19.8994 96.0877 19.9182C96.0505 19.9326 96.0134 19.9466 95.9761 19.9603C95.9579 19.9592 95.94 19.9584 95.9225 19.9578C95.8716 19.9562 95.8167 19.9475 95.7627 19.9388C95.8386 19.9167 95.9056 19.9099 95.9694 19.9036C95.9779 19.9027 95.9864 19.9019 95.9949 19.9011C96.0812 19.8921 96.1627 19.88 96.2514 19.825C96.5037 19.6687 96.6487 19.5757 96.7315 19.5036C96.8142 19.4316 96.8377 19.3782 96.8417 19.2953C96.8474 19.1781 96.9232 19.0723 96.974 19.0425C96.9924 19.0316 96.9673 18.9489 96.918 18.8577C96.8687 18.7665 96.8137 18.7013 96.7952 18.7122C96.7416 18.7436 96.6578 18.8549 96.651 18.9944C96.648 19.0565 96.6318 19.1043 96.5503 19.1752C96.4689 19.2462 96.3251 19.3383 96.0723 19.4949C95.9868 19.5479 95.9085 19.5598 95.8232 19.5686C95.8148 19.5695 95.8063 19.5703 95.7978 19.5711C95.7977 19.5711 95.7977 19.5712 95.7976 19.5712C95.719 19.579 95.6335 19.5875 95.5323 19.6254C95.2992 19.7127 94.9761 19.8125 94.8893 19.8173C94.8722 19.8182 94.8552 19.8181 94.8373 19.8181C94.7684 19.818 94.6854 19.8178 94.5281 19.8728C94.4937 19.8849 94.455 19.902 94.4138 19.9225C94.3291 19.9108 94.2478 19.9014 94.1833 19.9046C94.1277 19.9073 94.0659 19.8905 94.0033 19.8692C93.9853 19.8631 93.9669 19.8564 93.9486 19.8498C93.9044 19.8339 93.8601 19.8181 93.8204 19.8088C93.7887 19.8014 93.7539 19.7907 93.7172 19.7794C93.5833 19.7382 93.4229 19.6889 93.2872 19.7604C93.1433 19.8361 93.031 19.9213 92.9354 19.9969C93.0014 19.9335 93.0474 19.8755 93.0849 19.8256C93.092 19.8162 93.0988 19.8072 93.1053 19.7984C93.1512 19.7367 93.1845 19.6919 93.2328 19.6669C93.4633 19.5479 93.564 19.5297 93.7043 19.5585C93.7412 19.566 93.7846 19.5793 93.8313 19.5935C93.9247 19.622 94.0315 19.6545 94.1273 19.6543C94.2165 19.6542 94.3235 19.6673 94.4368 19.6812C94.4368 19.6811 94.4369 19.6811 94.4369 19.6811C94.459 19.6838 94.4814 19.6865 94.504 19.6892C94.6415 19.7055 94.7843 19.7194 94.9103 19.7088C94.9238 19.7076 94.9404 19.7071 94.9595 19.7066C95.0696 19.7034 95.263 19.6979 95.4222 19.5485C95.4571 19.5157 95.4872 19.47 95.5214 19.4177C95.5318 19.4018 95.5426 19.3852 95.5541 19.3683C95.6036 19.2951 95.6668 19.2118 95.7659 19.1286C95.8477 19.06 95.955 18.9904 96.0663 18.918C96.1212 18.8823 96.177 18.8459 96.2313 18.8087C96.3953 18.6965 96.539 18.5814 96.6823 18.4664C96.6824 18.4664 96.6824 18.4664 96.6824 18.4663C96.6994 18.4527 96.6726 18.368 96.6227 18.2772C96.5729 18.1864 96.5187 18.1237 96.5017 18.1373C96.3583 18.2524 96.2151 18.3673 96.0516 18.4791C95.9982 18.5157 95.9428 18.5518 95.8882 18.5873C95.7763 18.6601 95.6675 18.7307 95.585 18.7999C95.4842 18.8845 95.4198 18.9694 95.3696 19.0436C95.3575 19.0614 95.3463 19.0785 95.3357 19.0948C95.3018 19.1464 95.2737 19.1895 95.2406 19.2206C95.0864 19.3652 94.9004 19.3707 94.79 19.374C94.7704 19.3746 94.7532 19.3751 94.7389 19.3763C94.6154 19.3868 94.4748 19.3732 94.3375 19.3569C94.3152 19.3543 94.293 19.3516 94.2709 19.3489C94.2709 19.3489 94.2708 19.3488 94.2707 19.3488C94.1575 19.3349 94.0486 19.3216 93.9577 19.3218C93.8655 19.3219 93.7689 19.2923 93.6786 19.2646C93.6302 19.2497 93.5836 19.2355 93.5404 19.2266C93.3915 19.1961 93.2861 19.217 93.0549 19.3364ZM97.3285 19.8272C97.3056 19.893 97.2735 19.9217 97.2446 19.9337C97.2628 19.9117 97.2807 19.8893 97.2985 19.8665C97.3086 19.8536 97.3186 19.8405 97.3285 19.8272ZM94.5865 20.2556C94.5967 20.257 94.6071 20.2585 94.6174 20.2599C94.5956 20.2684 94.5738 20.277 94.5521 20.2856C94.5254 20.2962 94.4988 20.307 94.4723 20.3177C94.5115 20.2951 94.55 20.274 94.5865 20.2556ZM93.4653 20.091C93.5933 20.0236 93.7404 20.0686 93.8732 20.1093C93.9114 20.121 93.9484 20.1323 93.9834 20.1405C93.998 20.1438 94.013 20.1482 94.0284 20.153C93.9735 20.1893 93.9235 20.2234 93.8825 20.2513C93.7604 20.3347 93.7019 20.4026 93.6505 20.4623C93.6356 20.4796 93.6213 20.4961 93.6063 20.5122C93.5851 20.5093 93.5634 20.5069 93.5422 20.5058C93.5125 20.5042 93.4813 20.5042 93.4523 20.5054C93.4232 20.5067 93.3944 20.5093 93.3668 20.5133C93.339 20.5173 93.3122 20.5226 93.286 20.5289C93.2613 20.5347 93.2372 20.5413 93.2139 20.5478C93.2125 20.5482 93.2112 20.5486 93.2099 20.5489C93.1852 20.5557 93.1612 20.5624 93.138 20.5663C93.1143 20.5702 93.0933 20.5711 93.072 20.5668C93.0453 20.5614 93.0185 20.557 92.9925 20.5535C92.9665 20.5499 92.941 20.5473 92.9161 20.5454C92.891 20.5436 92.8666 20.5424 92.8425 20.5419C92.8347 20.5417 92.8266 20.5416 92.8189 20.5415C92.8154 20.5415 92.8118 20.5414 92.8083 20.5414C92.8438 20.5208 92.8803 20.4987 92.9176 20.4751C92.9714 20.4409 93.0254 20.3979 93.0849 20.3504C93.1864 20.2695 93.3043 20.1758 93.4653 20.091ZM92.245 20.8074C92.2612 20.7998 92.2856 20.79 92.317 20.7773C92.3244 20.7743 92.3323 20.7712 92.3405 20.7679C92.3404 20.7681 92.3402 20.7682 92.3401 20.7684C92.3254 20.7872 92.3116 20.8041 92.2962 20.8212C92.2686 20.8517 92.241 20.8799 92.2123 20.9068C92.1835 20.9339 92.1539 20.9592 92.1235 20.9831C92.093 21.007 92.0615 21.0294 92.0295 21.0499C91.9971 21.0706 91.9643 21.0895 91.9301 21.1064C91.9192 21.1118 91.9082 21.117 91.897 21.122C91.9165 21.1008 91.9376 21.0805 91.96 21.0591C91.9778 21.042 91.9965 21.0242 92.0156 21.0045C92.0229 20.997 92.0313 20.987 92.041 20.9754C92.0797 20.9292 92.1404 20.8567 92.245 20.8074ZM91.5801 21.1755C91.5711 21.1775 91.5623 21.1797 91.5538 21.1822C91.5295 21.1894 91.5068 21.1982 91.4849 21.2074C91.4695 21.2138 91.4545 21.2206 91.4396 21.2272C91.4334 21.23 91.4271 21.2327 91.4209 21.2355C91.4105 21.2401 91.4001 21.2444 91.3897 21.2488C91.4532 21.2016 91.5164 21.1576 91.5853 21.1174C91.5862 21.1168 91.5872 21.1164 91.5881 21.1159C91.5854 21.1362 91.5827 21.1561 91.5801 21.1755Z" fill="white"/>
</svg>
