<svg width="100" height="32" viewBox="0 0 100 32" fill="none" xmlns="http://www.w3.org/2000/svg">
<path d="M45.0355 22.0613C45.3126 23.0758 45.6923 23.9387 46.4827 24.9616C46.4831 24.9622 46.4836 24.9628 46.484 24.9633C46.602 25.1092 46.7355 25.2661 46.9166 25.4401C46.9634 25.4848 47.0118 25.5289 47.0638 25.5728C48.7667 26.7012 50.2067 26.9598 52.8252 27.2309C55.4632 27.428 57.6994 26.7796 59.0006 26.0031C59.1506 25.917 59.2889 25.8292 59.4161 25.7424C59.6487 25.5767 59.9074 25.4225 60.4622 24.9399C60.8197 24.6185 61.2912 24.1634 61.8125 23.3929C62.0872 22.9826 62.3735 22.4795 62.6213 21.8537C63.6017 19.8413 63.2949 15.8851 61.1973 13.5221C60.0226 12.0452 58.5982 11.0181 57.4994 10.3404C57.3381 10.2413 57.1735 10.1435 57.0055 10.0471C55.3291 9.14268 53.6592 8.9306 51.9184 8.73056C50.1591 8.55451 48.266 8.50607 46.0812 8.53726C44.4261 8.56256 42.7891 8.70764 41.1776 8.89181C40.9706 8.91539 40.7619 8.93976 40.5521 8.96479C39.1142 9.13702 37.6507 9.33683 36.0737 9.53664C33.2591 9.89623 31.0058 10.144 28.521 10.4512C27.5468 10.5727 26.5404 10.7046 25.4473 10.8639C23.7221 11.1144 21.239 11.5258 18.7725 11.9899C18.5586 12.03 18.3454 12.0703 18.1338 12.1107C18.1327 12.1109 18.1317 12.1111 18.1306 12.1113C15.8776 12.5404 13.6439 13.0138 12.0255 13.3749C9.45831 13.9498 8.46222 14.1971 7.67217 14.3825C7.39244 14.449 7.07401 14.5284 6.74215 14.6169C5.54966 14.9832 3.75868 15.3227 1.88565 16.5321C1.8776 16.5386 1.86962 16.545 1.86168 16.5515C1.69165 16.6994 1.57154 16.827 1.472 17.1267C1.39722 17.3961 1.49509 17.5905 1.54178 17.5728C1.59349 17.5647 1.60792 17.3893 1.72005 17.2218C1.85056 17.0261 1.95905 16.964 2.10474 16.8379C3.03296 16.1724 3.91429 15.9187 4.79227 15.5991C4.87332 15.6655 5.0928 15.6616 5.36015 15.5741C6.07132 15.3387 8.14896 14.7702 11.4527 14.1164C11.2333 14.1842 11.0547 14.2426 10.896 14.2958C10.6988 14.3609 10.5504 14.4122 10.4236 14.4563C10.1599 14.5482 9.98643 14.6092 9.68094 14.699C8.97262 14.8918 7.83861 15.1856 6.63318 15.5441C6.34367 15.6303 6.13516 15.7831 6.16056 15.8836C6.19956 15.9801 6.45677 15.9882 6.74441 15.9027C6.75009 15.901 6.75579 15.8993 6.76147 15.8977C7.9491 15.5446 9.12041 15.241 9.85088 15.0425C10.0396 14.9913 10.2047 14.9458 10.3293 14.9109C10.4288 14.883 10.5542 14.8477 10.6235 14.8247C10.6327 14.8217 10.6502 14.8158 10.671 14.8082C10.6713 14.808 10.6717 14.8079 10.672 14.8077C10.6836 14.8035 10.743 14.782 10.805 14.7515C10.8175 14.7453 10.8447 14.7317 10.8756 14.7129C10.8841 14.71 10.8926 14.7071 10.901 14.7042C11.0235 14.6628 11.1289 14.6254 11.2539 14.5839C11.7274 14.4262 12.5451 14.1721 14.1891 13.7579C15.7131 13.3749 18.3327 12.8162 21.6026 12.2516C21.3856 12.297 21.1639 12.3433 20.9413 12.3898C20.3824 12.5066 19.8263 12.6235 19.2766 12.7409C19.0689 12.7853 18.8521 12.8316 18.6366 12.8779C18.2885 12.9528 17.9424 13.028 17.5996 13.1034C17.3679 13.1544 17.1372 13.2054 16.9084 13.2566C16.9078 13.2567 16.9073 13.2569 16.9068 13.257C16.577 13.3304 16.2487 13.4046 15.922 13.4796C15.8076 13.506 15.695 13.5321 15.5837 13.5579C15.1416 13.6607 14.7117 13.762 14.1993 13.8944C14.138 13.9113 14.0717 13.9305 14.0225 13.9452C13.9695 13.9609 13.9187 13.9762 13.8709 13.991C13.8287 14.0041 13.7886 14.0168 13.7501 14.0289C13.745 14.0305 13.7398 14.0321 13.7347 14.0338C13.6917 14.0473 13.6507 14.0601 13.6113 14.0723C13.5721 14.0845 13.5343 14.0963 13.497 14.1075C13.4967 14.1076 13.4963 14.1077 13.496 14.1078C13.4571 14.1194 13.4275 14.1282 13.3863 14.14C13.3345 14.1547 13.2901 14.1671 13.2362 14.1815C13.1841 14.1955 13.1299 14.2097 13.0752 14.2238C13.0205 14.2379 12.9648 14.2519 12.9085 14.266C12.8537 14.2798 12.7896 14.2955 12.7294 14.3103C12.6685 14.3252 12.6069 14.3402 12.5451 14.3552C12.4834 14.3702 12.4211 14.3854 12.3588 14.4007C12.2152 14.4357 12.0829 14.4873 11.9909 14.5447C11.8988 14.602 11.8542 14.6603 11.8657 14.7073C11.8772 14.7542 11.9442 14.7864 12.0527 14.7972C12.1613 14.808 12.3028 14.7964 12.447 14.7656C12.4863 14.7572 12.5258 14.7488 12.5656 14.7403C12.5892 14.7352 12.613 14.73 12.6368 14.725C12.7007 14.7113 12.7656 14.6975 12.831 14.6835C12.8961 14.6694 12.9634 14.6548 13.0252 14.6413C13.0885 14.6275 13.1529 14.6133 13.2184 14.5985C13.2837 14.5838 13.3505 14.5685 13.4185 14.5524C13.4849 14.5368 13.5608 14.5184 13.6287 14.5012C13.6783 14.4888 13.7395 14.4727 13.7906 14.4591C13.8439 14.4449 13.8965 14.4307 13.9472 14.4167C13.998 14.4026 14.0473 14.3888 14.0944 14.3756C14.0994 14.3742 14.1044 14.3729 14.1095 14.3715C14.1511 14.3598 14.1914 14.3486 14.2296 14.3381C14.2723 14.3263 14.3128 14.3155 14.3514 14.3054C14.3939 14.2942 14.4199 14.2878 14.4518 14.2801C14.8846 14.182 15.3831 14.0795 15.879 13.9799C15.941 13.9674 16.0029 13.955 16.0641 13.9427C16.3892 13.8778 16.7206 13.8129 17.048 13.7497C17.2797 13.7049 17.5133 13.6603 17.7486 13.6157C18.0949 13.55 18.4453 13.4843 18.7983 13.4188C19.018 13.3781 19.2337 13.3383 19.446 13.2994C20.0051 13.1969 20.5727 13.0944 21.1464 12.9914C21.7189 12.8887 22.2787 12.7889 22.8535 12.686C23.4259 12.5835 24.0175 12.4769 24.5859 12.3713C25.0046 12.2933 25.4347 12.2063 25.8335 12.1248C26.0488 12.0808 26.2555 12.0382 26.4613 11.9961C26.462 11.9959 26.4627 11.9958 26.4634 11.9956C26.6437 11.9587 26.8219 11.9224 26.9991 11.887C27.3791 11.811 27.7534 11.7391 28.1286 11.6708C28.5037 11.6026 28.8755 11.5386 29.252 11.4778C29.6254 11.4175 30.0056 11.36 30.3824 11.3066C30.7604 11.253 31.1345 11.2034 31.5265 11.1545C32.0421 11.0905 32.5537 11.032 33.0775 10.9749C33.6016 10.9179 34.1304 10.8636 34.6572 10.812C34.8414 10.794 35.0257 10.7762 35.2099 10.7588C35.2106 10.7587 35.2113 10.7586 35.212 10.7586C35.5494 10.7267 35.9013 10.6945 36.245 10.6641C36.7779 10.6169 37.3073 10.5724 37.8375 10.5298C38.3785 10.4863 38.9182 10.445 39.455 10.4053C39.9855 10.366 40.5534 10.3255 41.1104 10.2844C41.6124 10.2477 42.0891 10.2137 42.5946 10.1816C42.7259 10.1733 42.8566 10.1653 42.9869 10.1575C43.6115 10.1205 44.1709 10.0932 44.7813 10.0757C45.3811 10.0585 45.9506 10.0533 46.5436 10.0593C47.15 10.0654 47.7395 10.0833 48.3271 10.1129C48.9528 10.1437 49.5328 10.1855 50.1257 10.242C50.7549 10.3014 51.3059 10.369 51.9235 10.4633C52.2658 10.5158 52.6144 10.5755 52.9276 10.6361C53.2516 10.6982 53.6067 10.774 53.9101 10.8501C54.0352 10.8813 54.1563 10.9132 54.2731 10.9459C54.4652 10.999 54.6505 11.0555 54.8207 11.113C55.1072 11.2101 55.361 11.3101 55.6236 11.4363C55.7897 11.5168 55.9352 11.5988 56.0607 11.6805C56.144 11.7332 56.2249 11.7858 56.3035 11.8381C56.5481 12.0016 56.7284 12.1321 56.9611 12.3111C57.5067 12.7248 57.8305 12.9938 58.1816 13.3049C58.2503 13.3663 58.3189 13.4292 58.3886 13.4949C58.7952 13.8745 59.1703 14.2739 59.5014 14.6896C59.8324 15.1046 60.1283 15.5482 60.3684 16.0038C60.6087 16.4585 60.8003 16.9382 60.929 17.4243C61.0579 17.9096 61.127 18.4081 61.1318 18.9085C61.1372 19.4084 61.0754 19.9196 60.9559 20.399C60.8876 20.6759 60.7939 20.9659 60.6874 21.23C60.6114 21.4193 60.526 21.6045 60.4347 21.7801C60.3971 21.8524 60.3584 21.9234 60.3187 21.9928C60.1819 22.2321 60.0321 22.456 59.8733 22.6615C59.7148 22.8667 59.5474 23.0542 59.3716 23.225C59.1961 23.3955 59.0128 23.549 58.8193 23.6876C58.6198 23.8294 58.4465 23.9358 58.217 24.0511C58.1649 24.077 58.1131 24.1016 58.0614 24.1249C57.9592 24.1714 57.8566 24.2148 57.7532 24.2557C57.515 24.35 57.2723 24.4308 57.023 24.4999C56.7739 24.569 56.5232 24.625 56.2681 24.67C56.186 24.6845 56.0989 24.6986 56.016 24.7107C55.7596 24.7482 55.5033 24.7742 55.2458 24.7902C54.9885 24.8061 54.7318 24.8117 54.4763 24.808C54.2189 24.8044 53.9652 24.7916 53.7079 24.7698C53.2692 24.7327 52.8488 24.686 52.4823 24.634C52.1117 24.5816 51.767 24.5211 51.4334 24.4506C51.3709 24.4374 51.3109 24.4242 51.2473 24.4099C50.9801 24.3495 50.7202 24.2823 50.4687 24.2079C50.1585 24.116 49.8611 24.0134 49.5825 23.8983C49.3109 23.7869 49.035 23.6484 48.8957 23.545C48.8703 23.5261 48.8528 23.509 48.8639 23.5156C48.8304 23.4797 48.6826 23.2957 48.5748 23.118C48.4294 22.8844 48.2948 22.6178 48.1741 22.3185C48.0543 22.0215 47.9534 21.701 47.8819 21.3777C47.8103 21.0546 47.7677 20.7278 47.7581 20.4117C47.7483 20.0948 47.7713 19.7855 47.8266 19.4909C47.8822 19.1939 47.9695 18.9119 48.0889 18.6389C48.2079 18.3658 48.3651 18.0952 48.5416 17.8503C48.8267 17.4535 49.1881 17.0843 49.6067 16.7466C49.8234 16.5717 50.048 16.4098 50.2968 16.2482C50.3672 16.1957 50.5993 16.0891 50.7892 16.028C51.2581 15.8718 51.832 15.7669 52.4029 15.692C52.9949 15.6155 53.5828 15.5691 54.2185 15.5371C54.3651 15.5299 54.4912 15.5243 54.6247 15.5192C55.083 15.5012 55.6186 15.4918 56.0752 15.4898C56.0785 15.4897 56.0818 15.4897 56.085 15.4896C56.6953 15.4869 57.3408 15.496 57.9469 15.5125C58.1752 15.5188 58.3976 15.526 58.6263 15.5347C58.8606 15.5437 59.0703 15.5526 59.2908 15.5632C59.5106 15.5737 59.7316 15.5854 59.9512 15.5983C60.1728 15.6112 60.3933 15.6253 60.6128 15.6407C60.8076 15.6544 61.0024 15.6694 61.2169 15.6865C61.2365 15.688 61.2561 15.6896 61.2757 15.6912C61.5108 15.7099 61.7805 15.7312 62.0337 15.7496C62.7067 15.7984 63.3319 15.8498 64.001 15.9104C64.6625 15.9705 65.3076 16.0344 65.9779 16.105C66.2418 16.1328 66.4938 16.1601 66.754 16.1886C67.1566 16.2328 67.563 16.2786 67.9724 16.3255C68.6416 16.4022 69.3093 16.4807 69.9879 16.5611C70.6605 16.6407 71.337 16.7213 72.0122 16.8017C72.6868 16.8819 73.3676 16.9629 74.0373 17.0424C74.7882 17.1315 75.5305 17.2208 76.2766 17.3124C77.0307 17.4051 77.7626 17.4963 78.514 17.592C79.2672 17.6881 79.9936 17.7818 80.7499 17.8816C81.4921 17.9793 82.2378 18.0791 82.9831 18.1804C83.4232 18.24 83.8678 18.3009 84.3201 18.3635C84.555 18.4101 84.7776 18.4547 84.9896 18.4974C86.5937 18.8189 87.7177 19.0505 89.2534 19.343C89.3974 19.3722 89.5123 19.3985 89.6502 19.4301C89.6765 19.4362 89.7043 19.4425 89.7326 19.4489C89.9132 19.4902 90.1514 19.542 90.4488 19.6003C91.0151 19.7121 91.9758 19.8767 93.1668 20.0019C93.4962 20.0387 93.6792 19.9704 93.6392 19.8602C93.6091 19.7826 93.4679 19.7034 93.2607 19.6482C93.4557 19.6772 93.6341 19.7032 93.7951 19.7262C93.9777 19.753 94.1907 19.7855 94.3387 19.8064C94.4772 19.8267 94.655 19.8359 94.7186 19.81C94.871 19.8007 94.8616 19.7506 94.8718 19.7034C94.8755 19.6795 94.8835 19.6572 94.8594 19.6308C94.8361 19.6046 94.7566 19.5699 94.732 19.5486C94.6689 19.5034 94.447 19.4443 94.3506 19.4275C93.9622 19.3584 93.6191 19.2984 93.1932 19.2234C92.8559 19.1643 92.4197 19.0875 92.0648 19.0253C91.7142 18.9637 91.2684 18.8854 90.9242 18.8251C90.5637 18.7618 90.1471 18.689 89.7785 18.6247C89.4088 18.5601 89.0304 18.4941 88.6314 18.4249C88.4027 18.3853 88.1828 18.3473 87.9549 18.3079C87.8705 18.2934 87.7876 18.2789 87.7041 18.2646C87.6359 18.2528 87.567 18.241 87.4956 18.2288C86.7404 18.099 86.0204 17.9763 85.2701 17.85C84.5483 17.7283 83.7736 17.5997 83.0514 17.481C82.307 17.3588 81.5665 17.2387 80.8254 17.1204C80.0703 17 79.3483 16.8863 78.5969 16.7701C77.8495 16.6545 77.1191 16.5433 76.369 16.4311C75.7955 16.3453 75.2292 16.2615 74.6568 16.178C74.4326 16.1378 74.2102 16.0986 73.9926 16.0606C73.3579 15.9497 72.7209 15.8325 72.0933 15.7188C73.2174 15.879 74.1102 16.0247 74.97 16.1671C75.0848 16.1862 75.1987 16.2052 75.3122 16.2241C76.4665 16.4169 77.5841 16.6037 79.102 16.822C83.3753 17.4402 85.8957 17.851 87.4332 18.0808C88.9753 18.314 89.6497 18.3948 90.2874 18.4325C91.1669 18.4817 92.8902 18.7277 93.7368 18.8797C94.0037 18.9272 94.3257 18.9 94.3291 18.7952C94.3597 18.6954 94.067 18.557 93.7985 18.5092C92.8973 18.3475 91.0683 18.0838 89.9805 18.0189C89.5337 17.9965 88.9648 17.9323 87.4447 17.7025C85.9312 17.4766 83.432 17.0689 79.1464 16.4489C77.6812 16.2383 76.6043 16.0583 75.4617 15.8671C75.3492 15.8483 75.2359 15.8293 75.1215 15.8103C75.1208 15.8102 75.12 15.8101 75.1193 15.81C74.0598 15.6343 72.9167 15.4474 71.3593 15.2379C67.7809 14.7409 62.931 14.2238 61.7791 14.1178C61.5524 14.0938 61.3348 14.0701 61.107 14.046C60.2271 13.959 59.1494 13.8269 56.7272 13.7497C56.1936 13.7354 55.583 13.7282 54.8932 13.7404C53.8949 13.7094 52.8638 13.723 52.005 13.8079C51.2373 13.8861 50.5223 13.9768 49.8369 14.1891C49.6138 14.2616 49.4048 14.3454 49.2111 14.4468C49.196 14.4548 49.1809 14.4629 49.1659 14.4711C48.7421 14.7008 48.3435 14.9497 47.9665 15.2382C47.6585 15.4742 47.3467 15.7387 47.0337 16.0617C45.9159 17.15 44.8147 19.3297 45.491 21.8914C45.8601 23.2157 46.3252 24.2468 47.3407 25.2564C48.6219 26.1596 49.5022 26.2591 50.4613 26.5161C49.2014 26.2082 48.3384 26.026 47.3121 25.2891C47.2243 25.2155 47.1402 25.1333 47.077 25.0681C46.9243 24.9094 46.8119 24.7726 46.7013 24.6297C45.9759 23.6533 45.6475 22.8737 45.4009 21.9749C44.8385 19.8057 45.3768 18.1014 45.9827 17.0533C46.6081 15.9867 47.2855 15.3821 47.9999 14.8523C48.2989 14.6354 48.6312 14.425 49.005 14.2182C49.1194 14.1539 49.2395 14.0955 49.3657 14.0419C50.5467 13.5723 51.7336 13.5245 53.0314 13.4548C54.1868 13.4064 55.5376 13.4484 56.8916 13.5405C56.8921 13.5406 56.8927 13.5406 56.8932 13.5406C57.1703 13.5588 57.4414 13.5788 57.708 13.6001C59.4014 13.733 61.1048 13.9228 62.8162 14.1127C62.9952 14.1327 63.2105 14.1581 63.4593 14.1881C64.9021 14.3607 67.4173 14.6916 70.4947 15.0106C71.1699 15.0803 71.8748 15.1422 72.6791 15.2162C72.9241 15.2387 73.1784 15.2623 73.4435 15.2877C74.5862 15.3974 75.9767 15.5422 77.8244 15.7826C79.3518 15.9815 81.1946 16.2475 83.1231 16.5401C84.0498 16.6804 85.0345 16.8327 85.9786 16.9801C88.85 17.4288 91.4903 17.85 94.0795 18.2859C94.08 18.286 94.0805 18.2861 94.0809 18.2862C94.4347 18.3465 94.6488 18.2972 94.6578 18.1935C94.6736 18.0911 94.4499 17.9677 94.1135 17.9105C91.5134 17.473 88.8832 17.0538 86.0174 16.606C85.0883 16.4611 84.1091 16.3096 83.1857 16.1697C81.2466 15.8755 79.3755 15.6054 77.8332 15.4048C75.9503 15.1599 74.5358 15.0131 73.3747 14.9021C73.0948 14.8754 72.8314 14.8509 72.5812 14.828C71.7848 14.7552 71.1226 14.6975 70.4814 14.6315C67.4982 14.3231 65.07 14.0022 63.6212 13.8276C63.3644 13.7964 63.1401 13.7699 62.9499 13.7485C61.2724 13.5611 59.579 13.3707 57.8854 13.2341C57.6124 13.2121 57.365 13.1923 57.079 13.1731C57.0784 13.1731 57.0778 13.173 57.0773 13.1729C55.6902 13.077 54.3528 13.0274 53.1299 13.0731C51.8603 13.1323 50.7872 13.1805 49.6163 13.5386C49.3274 13.6341 49.0562 13.7476 48.7989 13.8943C48.4964 14.0635 48.2258 14.2292 47.9435 14.4256C47.1459 14.9926 46.393 15.6414 45.6977 16.7951C45.0204 17.928 44.4425 19.782 45.0355 22.0613ZM92.7082 19.5675C91.9161 19.4739 91.3522 19.3853 90.8954 19.3024C91.2557 19.3543 91.6905 19.4193 92.0434 19.47C92.2329 19.4968 92.501 19.5376 92.7082 19.5675ZM54.8094 14.1175C54.9299 14.1209 55.0527 14.1249 55.1773 14.1294C54.8286 14.1313 54.517 14.1364 54.165 14.1476C53.7266 14.162 53.3338 14.182 52.9162 14.2143C53.5495 14.1584 54.2472 14.1285 54.8094 14.1175ZM45.8566 21.8052C45.2678 19.5182 46.1057 17.6323 47.1186 16.5331C47.41 16.2068 47.7241 15.9187 48.0453 15.6607C48.1756 15.5562 48.322 15.4466 48.457 15.3537C47.6825 15.9755 47.0795 16.7034 46.7125 17.3695C45.6394 19.4197 46.0297 20.8668 46.3113 21.8993C46.4069 22.2055 46.5196 22.4965 46.6497 22.7821C46.7394 23.0232 46.8501 23.2775 46.9744 23.5196C47.1527 23.8644 47.3652 24.2181 47.6405 24.5393C47.69 24.5967 47.7532 24.6638 47.8118 24.718C48.0945 24.9672 48.393 25.1133 48.6858 25.2538C49.051 25.4237 49.4222 25.5613 49.7954 25.6814C50.1469 25.7942 50.5024 25.8902 50.846 25.9706C50.8659 25.9753 50.8858 25.9799 50.9058 25.9844C51.2692 26.0681 51.6314 26.1363 51.9596 26.1903C52.2965 26.2458 52.577 26.2842 52.8284 26.3192C53.14 26.3626 53.4638 26.3961 53.785 26.417C54.1065 26.438 54.4291 26.4469 54.7502 26.4428C55.0732 26.4387 55.3932 26.4218 55.7145 26.3907C55.8187 26.3807 55.927 26.3686 56.03 26.3555C56.0774 26.3495 56.1249 26.3433 56.1722 26.3366C55.5484 26.4479 54.8949 26.5094 54.2218 26.5222C53.249 26.5397 52.2139 26.468 51.0904 26.2613C50.0111 26.0202 48.9283 25.8895 47.588 24.9738C46.6889 24.0855 46.2031 23.0674 45.8566 21.8052ZM62.711 19.9165C62.6706 20.1958 62.5954 20.6091 62.4317 21.1181C62.3929 21.2386 62.3486 21.3652 62.2989 21.4954C62.3 21.4923 62.3011 21.4891 62.3022 21.486C62.4137 21.1577 62.497 20.8487 62.5656 20.511C62.6871 19.9084 62.733 19.3097 62.7078 18.7105C62.6825 18.1091 62.5831 17.5114 62.418 16.9378C62.2538 16.3651 62.0209 15.8074 61.7417 15.2902C61.462 14.7711 61.1288 14.2785 60.7673 13.8256C60.651 13.6798 60.5273 13.5328 60.407 13.3964C60.6893 13.6995 60.9665 14.0322 61.2371 14.4122C61.4469 14.7067 61.6567 15.0372 61.8506 15.3984C61.9253 15.5379 62.0091 15.6993 62.1038 15.9053C62.4605 16.6906 62.9683 18.0739 62.711 19.9165ZM56.8604 10.4513C56.8385 10.438 56.8166 10.4248 56.7947 10.4116C56.7013 10.3553 56.6049 10.3014 56.5062 10.25C56.1649 10.0711 55.7651 9.91348 55.4464 9.80598C55.2073 9.72484 54.9589 9.651 54.7032 9.58324C54.5906 9.55347 54.5072 9.53236 54.408 9.50819C54.2466 9.46895 54.0824 9.43171 53.9155 9.39644C54.8412 9.5789 55.9019 9.85181 56.8176 10.3721C56.9837 10.4674 57.1468 10.5642 57.3068 10.6627C57.3204 10.671 57.3338 10.6795 57.3474 10.6879C57.1845 10.6061 57.0221 10.5273 56.8604 10.4513Z" fill="white"/>
<path d="M94.4343 15.4711C94.3837 15.407 94.3157 15.3635 94.2297 15.3087C94.2297 15.3086 94.2297 15.3086 94.2296 15.3085C94.2174 15.3007 94.2046 15.2927 94.1916 15.2843C94.0868 15.2167 93.9544 15.1257 93.788 14.9618C93.6041 14.7806 93.3945 14.6883 93.238 14.6549C93.2089 14.6487 93.1857 14.6365 93.1404 14.5953C93.1106 14.5683 93.0725 14.5301 93.0175 14.475C92.9882 14.4456 92.9542 14.4115 92.9141 14.3717C92.7813 14.24 92.6029 14.0096 92.4387 13.7973C92.339 13.6684 92.2445 13.5461 92.1684 13.4567C92.0571 13.3259 91.9383 13.209 91.809 13.082C91.6906 12.9657 91.5635 12.8409 91.4256 12.689C91.3199 12.5725 91.1646 12.5017 91.0009 12.4347C90.9801 12.4262 90.9591 12.4176 90.938 12.4091C90.7929 12.3505 90.6444 12.2906 90.5146 12.201C90.2832 12.0412 90.1733 11.8533 90.0515 11.6452C90.0039 11.5638 89.9545 11.4793 89.8952 11.3922C89.8016 11.2545 89.6493 11.0708 89.4955 10.8871C89.4824 10.8714 89.4694 10.8557 89.4563 10.8401C89.4562 10.84 89.4562 10.8399 89.4561 10.8398C89.3152 10.6717 89.177 10.5067 89.0839 10.3789C88.936 10.1758 88.9001 10.0835 88.8702 10.0063C88.8589 9.97736 88.8486 9.95047 88.8334 9.92075C88.7786 9.81369 88.6633 9.67855 88.5464 9.54153C88.546 9.541 88.5456 9.54047 88.5451 9.53993C88.5257 9.51719 88.4447 9.55175 88.3642 9.61709C88.2837 9.68244 88.2342 9.75389 88.2536 9.77663C88.3155 9.84921 88.3759 9.92004 88.4269 9.98588C88.3604 10.0453 88.3221 10.1052 88.3396 10.1256C88.3833 10.1769 88.4608 10.3794 88.5787 10.6992C88.5521 10.6922 88.5282 10.6877 88.5063 10.6846C88.4806 10.6809 88.4597 10.6791 88.4417 10.6775C88.4042 10.6742 88.3794 10.6719 88.3497 10.6562C88.2932 10.61 88.22 10.5246 88.1432 10.4346C88.1238 10.4118 88.0429 10.4463 87.9625 10.5116C87.882 10.5769 87.8324 10.6484 87.8518 10.6711C87.8522 10.6716 87.8525 10.672 87.8529 10.6725C87.929 10.7617 88.0043 10.8499 88.0637 10.898C88.0788 10.9102 88.0928 10.9199 88.1039 10.9267C88.1128 10.9322 88.1242 10.9387 88.1332 10.9402C88.1344 10.9404 88.1368 10.9407 88.14 10.9407C88.1401 10.9407 88.1401 10.9407 88.1402 10.9407C88.142 10.9407 88.1512 10.9409 88.1669 10.9362C88.1701 10.9352 88.1772 10.933 88.1878 10.9285C88.189 10.9286 88.1902 10.9287 88.1914 10.9288C88.2078 10.9303 88.2246 10.9318 88.2417 10.9343C88.3086 10.9439 88.403 10.9686 88.5534 11.0571C88.6918 11.1385 88.8714 11.3202 89.0713 11.5665C89.0518 11.5547 89.0325 11.5428 89.0133 11.5306C88.9652 11.5001 88.9182 11.4684 88.8718 11.4361C88.854 11.4237 88.8365 11.4115 88.8189 11.3989C88.7904 11.3787 88.762 11.3583 88.7337 11.3377C88.7147 11.3239 88.6956 11.3099 88.6766 11.296C88.6766 11.2959 88.6765 11.2959 88.6765 11.2958C88.6501 11.2765 88.6236 11.2571 88.5967 11.2377C88.5871 11.231 88.5778 11.2244 88.5685 11.2178C88.5317 11.1913 88.4956 11.1653 88.4469 11.1411C88.4402 11.1388 88.4323 11.1368 88.4261 11.1355C88.4195 11.1341 88.413 11.1329 88.4065 11.132C88.4009 11.1312 88.3953 11.1306 88.39 11.1299C88.3893 11.1298 88.3886 11.1297 88.3879 11.1296C88.382 11.1289 88.3764 11.1281 88.3711 11.1273C88.3658 11.1265 88.3607 11.1257 88.3561 11.1247C88.356 11.1246 88.356 11.1246 88.356 11.1246C88.3511 11.1235 88.3475 11.1226 88.3428 11.1211C88.3369 11.1191 88.3321 11.1173 88.3267 11.1147C88.3215 11.1121 88.3164 11.1093 88.3114 11.1062C88.3064 11.1031 88.3016 11.0998 88.2968 11.0963C88.292 11.0928 88.2873 11.0892 88.2826 11.0855C88.278 11.0817 88.2734 11.0778 88.2688 11.0739C88.2641 11.0699 88.2595 11.066 88.2548 11.0619C88.2442 11.0527 88.2196 11.0554 88.186 11.07C88.1523 11.0846 88.1126 11.1097 88.0751 11.1402C88.0375 11.1706 88.0049 11.2042 87.9841 11.2338C87.9633 11.2634 87.956 11.2866 87.9634 11.2985C87.9654 11.3018 87.9674 11.3051 87.9695 11.3083C87.9707 11.3103 87.972 11.3122 87.9732 11.3141C87.9765 11.3193 87.9798 11.3247 87.9834 11.3298C87.9869 11.335 87.9906 11.3402 87.9944 11.3452C87.9982 11.3503 88.0023 11.3554 88.0066 11.3603C88.011 11.3652 88.0157 11.3701 88.0208 11.3747C88.0258 11.3792 88.032 11.3839 88.038 11.3877C88.0423 11.3906 88.0483 11.3936 88.0534 11.396C88.0587 11.3985 88.0643 11.4008 88.0697 11.4028C88.0752 11.4048 88.0808 11.4066 88.086 11.4084C88.0866 11.4086 88.0871 11.4088 88.0877 11.409C88.0923 11.4105 88.0968 11.412 88.101 11.4134C88.1056 11.4151 88.1098 11.4168 88.1136 11.4186C88.1179 11.4205 88.1201 11.422 88.1228 11.4238C88.1533 11.4519 88.1842 11.492 88.2137 11.5303C88.2174 11.5351 88.2212 11.5399 88.2248 11.5446C88.2441 11.5698 88.2632 11.5951 88.2822 11.6205C88.2961 11.6389 88.3099 11.6573 88.3239 11.6757C88.3444 11.7027 88.3651 11.7297 88.386 11.7565C88.399 11.7732 88.4119 11.7895 88.425 11.8059C88.4594 11.8489 88.4945 11.8915 88.531 11.933C88.5675 11.9745 88.6055 12.0152 88.6456 12.0542C88.6856 12.0931 88.7295 12.1315 88.7762 12.1652C88.8107 12.1898 88.8523 12.21 88.8924 12.2273C88.914 12.2366 88.9355 12.2454 88.9568 12.2541C88.9568 12.2541 88.9569 12.2541 88.957 12.2541C88.9757 12.2617 88.9941 12.2691 89.0121 12.2768C89.0508 12.2932 89.0874 12.3104 89.1218 12.3293C89.1562 12.3482 89.1884 12.3687 89.2185 12.3912C89.2484 12.4135 89.2768 12.4379 89.3028 12.4636C89.3291 12.4895 89.353 12.5163 89.3766 12.5458C89.4076 12.5846 89.436 12.625 89.4648 12.6668C89.4932 12.7084 89.5211 12.751 89.5491 12.7937C89.5589 12.8086 89.5687 12.8235 89.5785 12.8385C89.5786 12.8386 89.5786 12.8386 89.5787 12.8387C89.5967 12.8664 89.6149 12.8942 89.6331 12.9219C89.6613 12.9648 89.6898 13.0075 89.719 13.0499C89.7483 13.0922 89.7785 13.1343 89.8102 13.1754C89.8421 13.2164 89.8762 13.2574 89.9146 13.2953C89.9487 13.3291 89.9845 13.3621 90.0195 13.3943C90.0288 13.4029 90.038 13.4114 90.0473 13.4199C90.0911 13.4604 90.1323 13.5005 90.1689 13.5436C90.2055 13.5866 90.238 13.6329 90.2674 13.6822C90.2968 13.7315 90.3236 13.7838 90.3486 13.8381C90.3738 13.8926 90.3967 13.9479 90.4191 14.0052C90.4413 14.0621 90.4626 14.12 90.4834 14.1792C90.495 14.2121 90.5087 14.246 90.5224 14.2775C90.5363 14.3092 90.5508 14.3401 90.5655 14.3703C90.5715 14.3825 90.5775 14.3946 90.5835 14.4067C90.5921 14.4243 90.6008 14.4417 90.6091 14.459C90.6231 14.4882 90.6362 14.5172 90.6477 14.5463C90.6592 14.5754 90.6689 14.6049 90.6762 14.635C90.6836 14.6663 90.6877 14.6937 90.69 14.7286C90.7035 14.8071 90.7213 14.8482 90.741 14.8939C90.7449 14.9028 90.7488 14.9121 90.7528 14.9218C90.7773 14.9759 90.8046 15.0276 90.8337 15.0769C90.863 15.1267 90.894 15.1741 90.9273 15.2205C90.9602 15.2665 90.9954 15.3112 91.0321 15.3543C91.0687 15.3974 91.107 15.439 91.1472 15.4793C91.1873 15.5196 91.23 15.5593 91.2727 15.596C91.2974 15.6173 91.3248 15.6389 91.3508 15.6585C91.3696 15.6726 91.3884 15.6863 91.4068 15.6997C91.4144 15.7052 91.4219 15.7106 91.4292 15.716C91.4547 15.7347 91.4792 15.7531 91.5017 15.7718C91.5242 15.7905 91.5447 15.8095 91.563 15.8297C91.5812 15.8499 91.5971 15.8713 91.611 15.8943C91.6253 15.9182 91.6356 15.9394 91.6466 15.9682C91.6536 15.9871 91.6604 16.0056 91.6671 16.0242C91.6772 16.0519 91.687 16.0797 91.6966 16.1078C91.7063 16.1359 91.7155 16.1638 91.7244 16.1922C91.7273 16.2013 91.7304 16.2109 91.7332 16.2201C91.7418 16.2485 91.7501 16.277 91.7577 16.3058C91.7654 16.3345 91.7725 16.3634 91.7789 16.3927C91.7853 16.4222 91.791 16.4516 91.7962 16.4822C91.8048 16.5342 91.8231 16.5759 91.841 16.6109C91.8593 16.6462 91.8787 16.6772 91.8977 16.7074C91.9013 16.7131 91.9048 16.7187 91.9084 16.7244C91.9238 16.7487 91.939 16.7725 91.9535 16.7964C91.9713 16.8258 91.988 16.8553 92.004 16.8856C92.0199 16.9156 92.0351 16.9465 92.0489 16.978C92.0628 17.0097 92.0752 17.0407 92.0875 17.0751C92.0997 17.1091 92.1094 17.1457 92.1201 17.1858C92.1307 17.2256 92.1421 17.2671 92.1555 17.3076C92.1689 17.3481 92.1842 17.3878 92.2016 17.4256C92.2189 17.4634 92.2383 17.4998 92.2591 17.5342C92.28 17.5688 92.3026 17.6019 92.3264 17.6336C92.3501 17.6653 92.376 17.6969 92.4015 17.7255C92.4427 17.7718 92.4847 17.8172 92.5271 17.8623C92.5693 17.9072 92.612 17.9519 92.6549 17.9963C92.6977 18.0406 92.7407 18.0849 92.7839 18.1289C92.827 18.1729 92.8703 18.2168 92.9136 18.2606C92.9232 18.2703 92.9327 18.28 92.9423 18.2897C92.976 18.3238 93.0097 18.3579 93.0432 18.3919C93.0435 18.3921 93.0437 18.3924 93.044 18.3926C93.087 18.4364 93.1293 18.4795 93.1712 18.5236C93.1866 18.5398 93.2013 18.5554 93.2161 18.5714C93.2308 18.5874 93.2451 18.6033 93.2593 18.6196C93.2735 18.6358 93.2874 18.6522 93.3007 18.6686C93.3141 18.6853 93.3269 18.7017 93.3392 18.7188C93.3504 18.7344 93.361 18.7505 93.3726 18.768C93.3737 18.7696 93.3747 18.7712 93.3758 18.7728C93.3885 18.7919 93.4037 18.813 93.4197 18.8311C93.4623 18.879 93.5026 18.9266 93.5425 18.9761C93.5824 19.0255 93.621 19.0758 93.6595 19.127C93.6745 19.1469 93.6894 19.1671 93.7045 19.1872C93.7278 19.2185 93.7513 19.2499 93.7751 19.2812C93.8143 19.3327 93.8543 19.3836 93.8963 19.4335C93.9381 19.4832 93.9819 19.5319 94.0274 19.5788C94.0728 19.6257 94.1205 19.6715 94.1694 19.7152C94.2238 19.7639 94.279 19.8115 94.3348 19.8591C94.3905 19.9065 94.4468 19.9535 94.5031 20.0001C94.5596 20.0468 94.6163 20.0932 94.6734 20.1393C94.7304 20.1855 94.7877 20.2314 94.8453 20.2772C94.8797 20.3046 94.9143 20.3318 94.949 20.3591C94.9564 20.3823 94.9634 20.4046 94.9703 20.4261C95.0207 20.5846 95.0573 20.6991 95.1269 20.8329C95.1323 20.8468 95.1345 20.8598 95.1372 20.8756C95.1377 20.8786 95.1384 20.8818 95.1389 20.885C95.1426 20.9056 95.1477 20.9286 95.1609 20.9555C95.1873 21.0092 95.2458 21.0769 95.3867 21.1116C95.4223 21.1204 95.5117 21.0719 95.5864 21.0033C95.6388 20.9551 95.6701 20.9099 95.6718 20.8841C95.7032 20.9037 95.7349 20.9229 95.7665 20.9421C95.7792 20.9497 95.8055 20.9452 95.8401 20.929C95.8748 20.9129 95.9147 20.8866 95.9517 20.8557C95.9888 20.8247 96.02 20.7913 96.0391 20.7624C96.0581 20.7336 96.0634 20.7118 96.054 20.7014C96.029 20.674 96.0042 20.6467 95.9798 20.619C95.9553 20.5913 95.9315 20.5633 95.908 20.535C95.8844 20.5067 95.8613 20.478 95.8384 20.449C95.8156 20.4202 95.7929 20.3911 95.7705 20.3617C95.7479 20.3321 95.7261 20.3029 95.704 20.2731C95.6907 20.2553 95.6773 20.2372 95.6643 20.2194C95.6594 20.2128 95.6547 20.2062 95.65 20.1997C95.6461 20.1944 95.6422 20.1891 95.6382 20.1837C95.5961 20.1258 95.5539 20.0672 95.5124 20.0089C95.4707 19.9503 95.4293 19.8916 95.388 19.8327C95.3467 19.7739 95.3057 19.7148 95.2647 19.6557C95.2238 19.5966 95.183 19.5375 95.1423 19.478C95.1018 19.4188 95.0613 19.3593 95.0212 19.2996C94.9902 19.2534 94.9597 19.2073 94.9295 19.161C94.9234 19.1381 94.917 19.1157 94.9106 19.0937C94.8917 19.0297 94.8791 18.9605 94.8668 18.8923C94.9219 18.9868 94.9565 19.0706 94.9893 19.1505C94.9937 19.1612 94.998 19.1718 95.0024 19.1824C95.0472 19.2904 95.0936 19.3922 95.19 19.5015C95.4645 19.8123 95.6256 19.9909 95.7386 20.092C95.8515 20.1932 95.9197 20.2207 96.0127 20.2226C96.1441 20.2253 96.2915 20.3166 96.3449 20.3791C96.3643 20.4019 96.4453 20.3673 96.5258 20.302C96.6063 20.2366 96.6558 20.1652 96.6364 20.1424C96.5801 20.0764 96.4235 19.9752 96.2671 19.972C96.1974 19.9706 96.1382 19.952 96.027 19.8524C95.9159 19.7528 95.7562 19.5758 95.4813 19.2644C95.3883 19.159 95.3435 19.0612 95.2992 18.9544C95.2948 18.9439 95.2905 18.9333 95.2862 18.9226C95.2861 18.9226 95.2861 18.9225 95.286 18.9225C95.2456 18.8241 95.2016 18.717 95.1189 18.5915C94.9283 18.3022 94.6876 17.9004 94.6471 17.7915C94.6391 17.7702 94.6324 17.7488 94.6251 17.7263C94.5974 17.6399 94.564 17.5357 94.4397 17.3403C94.4125 17.2976 94.378 17.2497 94.3387 17.1987C94.3173 17.0919 94.2947 16.9896 94.2651 16.9087C94.2395 16.839 94.2331 16.7608 94.2312 16.6815C94.2306 16.6586 94.2305 16.6353 94.2304 16.6121C94.23 16.556 94.2296 16.4999 94.2237 16.4496C94.2191 16.4096 94.2168 16.3655 94.2143 16.319C94.2055 16.1494 94.1949 15.9462 94.0612 15.7785C93.9194 15.6008 93.7802 15.4631 93.6581 15.3458C93.7547 15.4263 93.8373 15.4819 93.9074 15.5272C93.9206 15.5357 93.9334 15.5438 93.9456 15.5517C94.0322 15.6069 94.0951 15.6472 94.1421 15.7068C94.3666 15.9917 94.4274 16.1174 94.4525 16.2946C94.4591 16.3412 94.4621 16.3961 94.4653 16.4553C94.4718 16.5736 94.4792 16.7088 94.5182 16.8291C94.5545 16.941 94.5833 17.0758 94.6139 17.2185C94.6139 17.2186 94.614 17.2186 94.614 17.2187C94.62 17.2466 94.626 17.2748 94.6322 17.3032C94.6699 17.4763 94.7124 17.6561 94.7752 17.8139C94.7819 17.8307 94.7892 17.8516 94.7975 17.8755C94.8456 18.0136 94.93 18.2561 95.159 18.4503C95.2093 18.493 95.2718 18.529 95.3433 18.57C95.365 18.5825 95.3877 18.5954 95.411 18.6092C95.5116 18.6686 95.6291 18.7448 95.7608 18.8661C95.8696 18.9662 95.9897 19.0982 96.1146 19.2353C96.1761 19.3028 96.2388 19.3714 96.3017 19.4382C96.4917 19.6398 96.6768 19.8159 96.8615 19.9915C96.8616 19.9916 96.8616 19.9916 96.8616 19.9916C96.8835 20.0124 96.966 19.9756 97.0459 19.9096C97.1257 19.8436 97.1728 19.7733 97.151 19.7525C96.9661 19.5768 96.7816 19.4014 96.5921 19.2004C96.5302 19.1347 96.468 19.0665 96.4067 18.9993C96.2813 18.8616 96.1595 18.7277 96.0497 18.6267C95.9157 18.5033 95.7961 18.4258 95.6941 18.3655C95.6695 18.351 95.6461 18.3376 95.6239 18.3248C95.5533 18.2842 95.4945 18.2506 95.4468 18.2101C95.2251 18.0221 95.1437 17.7889 95.0954 17.6503C95.0868 17.6257 95.0792 17.6042 95.0721 17.5863C95.0105 17.4317 94.9686 17.2547 94.931 17.0817C94.9248 17.0536 94.9188 17.0257 94.9128 16.9979C94.9128 16.9978 94.9129 16.9977 94.9129 16.9977C94.8823 16.855 94.8529 16.7178 94.8159 16.6038C94.7784 16.488 94.772 16.3657 94.766 16.2513C94.7627 16.19 94.7595 16.131 94.7518 16.0764C94.7252 15.8884 94.6595 15.7569 94.4343 15.4711ZM95.6237 20.8535C95.5419 20.8273 95.4974 20.788 95.4724 20.7521C95.504 20.7742 95.536 20.7958 95.5682 20.8173C95.5866 20.8295 95.6051 20.8416 95.6237 20.8535ZM94.0415 17.4279C94.0441 17.4408 94.0467 17.4538 94.0493 17.4669C94.0311 17.4398 94.0128 17.4128 93.9945 17.3859C93.9721 17.3528 93.9495 17.3198 93.9269 17.2869C93.9677 17.3353 94.0065 17.3828 94.0415 17.4279ZM93.769 16.0144C93.8951 16.1726 93.9051 16.359 93.914 16.5271C93.9166 16.5755 93.9191 16.6224 93.9243 16.6667C93.9264 16.6851 93.9277 16.7041 93.9286 16.7236C93.8664 16.6561 93.8086 16.5945 93.7613 16.5442C93.6199 16.394 93.5214 16.3231 93.4348 16.2609C93.4098 16.2428 93.3857 16.2255 93.362 16.2072C93.3566 16.1805 93.3505 16.1531 93.3431 16.1265C93.3328 16.0892 93.3202 16.05 93.3071 16.0137C93.2939 15.9772 93.2794 15.9411 93.2638 15.9067C93.2481 15.8719 93.2314 15.8385 93.2139 15.8058C93.1975 15.7751 93.1804 15.745 93.1639 15.716C93.1629 15.7143 93.162 15.7127 93.161 15.711C93.1435 15.6803 93.1265 15.6505 93.1128 15.6214C93.0989 15.5919 93.0894 15.5656 93.0855 15.5386C93.0806 15.505 93.0747 15.4712 93.068 15.4384C93.0614 15.4056 93.054 15.3735 93.0459 15.3421C93.0378 15.3107 93.0292 15.28 93.0201 15.2497C93.0171 15.2399 93.0139 15.2297 93.0109 15.22C93.0095 15.2156 93.0081 15.2111 93.0067 15.2067C93.0438 15.2505 93.0829 15.2955 93.124 15.3414C93.1835 15.4077 93.2527 15.4738 93.3291 15.5468C93.4594 15.6712 93.6103 15.8155 93.769 16.0144ZM92.4856 14.5097C92.5005 14.5297 92.5212 14.5599 92.5479 14.5989C92.5542 14.6081 92.5608 14.6179 92.5678 14.6281C92.5675 14.6279 92.5673 14.6277 92.5671 14.6275C92.5404 14.6098 92.5162 14.5932 92.4911 14.5744C92.4463 14.5409 92.4041 14.5074 92.3628 14.4723C92.3213 14.4372 92.2814 14.401 92.2428 14.3637C92.2041 14.3263 92.1667 14.2877 92.1311 14.2482C92.0952 14.2083 92.0611 14.1679 92.0286 14.1256C92.0182 14.1122 92.0081 14.0985 91.998 14.0847C92.0293 14.1083 92.0602 14.1341 92.0929 14.1613C92.1189 14.1831 92.1461 14.2058 92.1755 14.2291C92.1867 14.238 92.2011 14.2481 92.2179 14.2599C92.2844 14.3067 92.3889 14.3802 92.4856 14.5097ZM91.8108 13.6889C91.8049 13.6777 91.7989 13.6667 91.7927 13.6561C91.775 13.6259 91.7561 13.5977 91.7371 13.5706C91.7237 13.5515 91.7102 13.5329 91.6969 13.5145C91.6913 13.5067 91.6858 13.499 91.6802 13.4913C91.671 13.4784 91.6619 13.4655 91.653 13.4527C91.7306 13.5306 91.8047 13.6083 91.8769 13.6933C91.8779 13.6944 91.8788 13.6956 91.8797 13.6967C91.8562 13.694 91.8332 13.6914 91.8108 13.6889Z" fill="white"/>
<path d="M89.8424 17.9856C89.7305 17.9936 89.6277 18.0275 89.4978 18.0705C89.4978 18.0705 89.4977 18.0705 89.4976 18.0705C89.4791 18.0766 89.46 18.083 89.4402 18.0895C89.2811 18.1414 89.0739 18.204 88.7581 18.2559C88.4092 18.3133 88.1387 18.4404 87.9766 18.5545C87.9463 18.5757 87.9143 18.5887 87.8321 18.6048C87.7782 18.6153 87.7051 18.6268 87.5997 18.6434C87.5436 18.6523 87.4783 18.6625 87.4019 18.6749C87.149 18.7158 86.7496 18.7419 86.3815 18.7657C86.1581 18.7802 85.9463 18.7939 85.7858 18.8098C85.5511 18.833 85.3258 18.8702 85.0809 18.9107C84.8566 18.9478 84.6159 18.9877 84.3364 19.0219C84.1219 19.0482 83.919 19.1411 83.7134 19.2431C83.6873 19.2561 83.661 19.2692 83.6347 19.2824C83.4534 19.3733 83.268 19.4663 83.0643 19.5274C82.7013 19.6364 82.4039 19.6277 82.0745 19.618C81.9457 19.6142 81.812 19.6102 81.6676 19.6131C81.4392 19.6177 81.1127 19.647 80.785 19.6775C80.757 19.6801 80.7291 19.6826 80.7012 19.6852C80.701 19.6852 80.7009 19.6852 80.7008 19.6853C80.4008 19.7133 80.1063 19.7408 79.8894 19.7503C79.5448 19.7654 79.413 19.7458 79.3032 19.7293C79.2619 19.7231 79.2236 19.7173 79.1783 19.7141C79.0152 19.7024 78.7723 19.7267 78.5262 19.7514C78.5252 19.7514 78.5243 19.7515 78.5233 19.7516C78.4825 19.7557 78.4563 19.8428 78.4649 19.9461C78.4735 20.0494 78.5135 20.1299 78.5544 20.1259C78.6848 20.1128 78.812 20.1001 78.9263 20.0926C78.9394 20.1809 78.9756 20.2456 79.0123 20.2419C79.1044 20.2328 79.3922 20.2768 79.8429 20.3502C79.814 20.3689 79.7899 20.3867 79.7689 20.4034C79.7442 20.4231 79.7255 20.4399 79.7094 20.4542C79.6758 20.4841 79.6534 20.5038 79.6122 20.5203C79.5154 20.5431 79.3618 20.5587 79.2 20.5749C79.1592 20.579 79.133 20.6659 79.1415 20.7692C79.1501 20.8725 79.1902 20.953 79.2311 20.949C79.2319 20.9489 79.2327 20.9488 79.2335 20.9488C79.3936 20.9327 79.5523 20.9168 79.6533 20.8927C79.679 20.8865 79.701 20.8799 79.7175 20.8742C79.7307 20.8697 79.7471 20.8636 79.7559 20.8568C79.7571 20.8559 79.7593 20.8541 79.762 20.8513C79.762 20.8513 79.762 20.8512 79.7621 20.8512C79.7635 20.8496 79.771 20.842 79.7784 20.8261C79.7799 20.8229 79.7831 20.8158 79.7866 20.8043C79.7876 20.8034 79.7887 20.8025 79.7897 20.8015C79.8045 20.7884 79.8196 20.7751 79.836 20.7619C79.9002 20.7107 80.0031 20.6443 80.222 20.5651C80.4234 20.4923 80.7695 20.4389 81.2038 20.4032C81.1751 20.4133 81.1463 20.4232 81.1175 20.4328C81.045 20.4569 80.972 20.4794 80.899 20.5012C80.871 20.5095 80.8434 20.5177 80.8152 20.5258C80.7699 20.5389 80.7245 20.5519 80.679 20.5646C80.6483 20.5732 80.6175 20.5817 80.5868 20.5903C80.5867 20.5903 80.5866 20.5903 80.5865 20.5903C80.5439 20.6022 80.5011 20.6141 80.458 20.6263C80.4429 20.6307 80.428 20.635 80.4132 20.6393C80.3543 20.6561 80.2964 20.6725 80.2306 20.7005C80.2226 20.705 80.2141 20.7105 80.2077 20.7151C80.2009 20.7199 80.1944 20.7248 80.1882 20.7297C80.1827 20.7341 80.1776 20.7384 80.1726 20.7425C80.1719 20.7431 80.1713 20.7436 80.1706 20.7442C80.165 20.7488 80.1597 20.753 80.1546 20.757C80.1495 20.7611 80.1446 20.7649 80.1397 20.7684C80.1396 20.7684 80.1396 20.7684 80.1395 20.7684C80.1344 20.7719 80.1305 20.7745 80.1251 20.7776C80.1182 20.7815 80.1123 20.7846 80.1051 20.7877C80.0981 20.7907 80.0908 20.7935 80.0834 20.7961C80.076 20.7986 80.0684 20.8009 80.0607 20.8031C80.053 20.8052 80.0452 20.8073 80.0373 20.8092C80.0294 20.8111 80.0214 20.8128 80.0133 20.8146C80.0052 20.8164 79.9971 20.8182 79.9889 20.8199C79.97 20.8239 79.9534 20.8461 79.9428 20.8824C79.9322 20.9187 79.9285 20.9659 79.9325 21.0141C79.9365 21.0622 79.9479 21.1079 79.9643 21.1416C79.9807 21.1751 80.0007 21.1938 80.0199 21.194C80.0251 21.194 80.0304 21.1942 80.0357 21.1942C80.0388 21.1942 80.042 21.1941 80.0451 21.1942C80.0536 21.1942 80.0622 21.1943 80.0708 21.1941C80.0794 21.1939 80.088 21.1936 80.0968 21.1931C80.1055 21.1926 80.1144 21.192 80.1234 21.1909C80.1323 21.1899 80.1414 21.1886 80.1507 21.1867C80.1597 21.1849 80.1699 21.1823 80.179 21.1793C80.1856 21.1771 80.1937 21.1737 80.2005 21.1707C80.2076 21.1676 80.2145 21.1641 80.2211 21.1606C80.2278 21.157 80.2342 21.1533 80.2404 21.1498C80.241 21.1495 80.2417 21.1491 80.2423 21.1488C80.2478 21.1457 80.253 21.1427 80.258 21.14C80.2635 21.137 80.2688 21.1343 80.2738 21.1321C80.2793 21.1295 80.2827 21.1284 80.2869 21.1272C80.3426 21.1166 80.4121 21.1122 80.4783 21.108C80.4867 21.1074 80.495 21.1068 80.5031 21.1063C80.5467 21.1037 80.5902 21.1013 80.6336 21.0989C80.6652 21.0971 80.6968 21.0954 80.7284 21.0936C80.775 21.0909 80.8217 21.0879 80.8683 21.0848C80.8973 21.0828 80.9257 21.0807 80.9545 21.0785C81.0299 21.0728 81.1054 21.0661 81.1809 21.0578C81.2563 21.0494 81.3321 21.0394 81.4076 21.0265C81.4829 21.0138 81.5609 20.9975 81.6357 20.9763C81.6907 20.9605 81.7465 20.9362 81.7978 20.9117C81.8255 20.8985 81.8525 20.8851 81.8791 20.8718C81.8792 20.8718 81.8792 20.8717 81.8793 20.8716C81.9027 20.86 81.9257 20.8484 81.9487 20.8374C81.9978 20.8136 82.0462 20.792 82.0948 20.7731C82.1434 20.7543 82.1919 20.7382 82.2411 20.7249C82.2899 20.7117 82.3397 20.701 82.3892 20.6929C82.439 20.6847 82.4881 20.679 82.5398 20.675C82.6078 20.6698 82.6756 20.6677 82.7452 20.666C82.8143 20.6645 82.8841 20.6639 82.9541 20.6634C82.9785 20.6633 83.003 20.6629 83.0275 20.6628C83.0276 20.6628 83.0277 20.6628 83.0278 20.6628C83.0732 20.6625 83.1187 20.6622 83.1642 20.6618C83.2345 20.6612 83.3049 20.6603 83.3755 20.6585C83.4462 20.6566 83.5171 20.6539 83.5883 20.6493C83.6595 20.6446 83.7325 20.638 83.8054 20.626C83.8704 20.6154 83.9358 20.6031 83.9997 20.5909C84.0166 20.5877 84.0335 20.5845 84.0504 20.5813C84.1305 20.5662 84.2082 20.5531 84.2855 20.5456C84.3626 20.5379 84.4402 20.5355 84.5188 20.5373C84.5972 20.5391 84.6769 20.5448 84.7575 20.553C84.8383 20.5613 84.9184 20.5718 85.0001 20.5839C85.0813 20.5959 85.1629 20.6092 85.2456 20.6237C85.2916 20.6316 85.3403 20.6384 85.3863 20.6439C85.4328 20.6493 85.4788 20.6538 85.5242 20.6577C85.5427 20.6592 85.561 20.6607 85.5792 20.6622C85.6058 20.6644 85.6321 20.6665 85.6581 20.6689C85.7018 20.6728 85.7446 20.6774 85.7863 20.6834C85.8279 20.6895 85.8685 20.6972 85.9079 20.7074C85.9487 20.718 85.9825 20.7294 86.0233 20.7463C86.1217 20.7774 86.1817 20.7845 86.2484 20.7926C86.2615 20.7942 86.275 20.7959 86.2889 20.7977C86.3688 20.8064 86.4483 20.8112 86.5265 20.8134C86.6055 20.8155 86.6831 20.815 86.7614 20.812C86.839 20.809 86.9169 20.8035 86.9944 20.7958C87.0717 20.7882 87.1487 20.7784 87.2258 20.7662C87.3027 20.7541 87.3811 20.7395 87.4562 20.7233C87.4996 20.714 87.5456 20.7025 87.5882 20.6911C87.619 20.6829 87.6493 20.6744 87.679 20.6661C87.6911 20.6627 87.7031 20.6593 87.7151 20.656C87.7562 20.6446 87.7963 20.6338 87.8351 20.625C87.8739 20.6161 87.9116 20.609 87.9487 20.6046C87.9858 20.6001 88.0223 20.5982 88.0591 20.5989C88.0972 20.5998 88.129 20.6025 88.1699 20.6088C88.1966 20.6131 88.2227 20.6174 88.2488 20.6217C88.2878 20.6282 88.3265 20.635 88.3656 20.642C88.4046 20.6491 88.4431 20.6564 88.4819 20.6642C88.4943 20.6667 88.5075 20.6693 88.52 20.6719C88.5586 20.68 88.5969 20.6884 88.6352 20.6975C88.6734 20.7066 88.7112 20.7162 88.7491 20.7267C88.787 20.7372 88.8244 20.7483 88.8626 20.7605C88.9275 20.7813 88.9887 20.7884 89.042 20.7922C89.0959 20.7958 89.1461 20.7962 89.1949 20.7965C89.2041 20.7966 89.2132 20.7966 89.2224 20.7967C89.2617 20.7968 89.3004 20.7968 89.3386 20.7975C89.3857 20.7984 89.432 20.8002 89.4785 20.8031C89.5247 20.8059 89.5713 20.8099 89.6174 20.8152C89.6639 20.8206 89.7085 20.8269 89.7566 20.8351C89.8042 20.8432 89.8528 20.8548 89.9061 20.8675C89.9589 20.88 90.0143 20.8928 90.0702 20.9034C90.1261 20.914 90.1826 20.9225 90.2385 20.9283C90.2946 20.9341 90.3506 20.9374 90.4057 20.9385C90.461 20.9395 90.5159 20.9383 90.5703 20.9354C90.6246 20.9325 90.6805 20.9277 90.7328 20.9217C90.8174 20.9119 90.9015 20.901 90.9857 20.8896C91.0694 20.8782 91.1534 20.8663 91.2372 20.8541C91.3208 20.842 91.4045 20.8295 91.4881 20.8169C91.5716 20.8042 91.6552 20.7914 91.7386 20.7786C91.7571 20.7757 91.7755 20.7729 91.794 20.77C91.8589 20.76 91.9239 20.75 91.9886 20.7401C91.989 20.74 91.9895 20.7399 91.9899 20.7398C92.0732 20.7272 92.155 20.7148 92.2376 20.7032C92.268 20.699 92.2972 20.695 92.3268 20.6912C92.3565 20.6874 92.3857 20.6839 92.4151 20.6807C92.4446 20.6775 92.4739 20.6747 92.5029 20.6723C92.5321 20.67 92.5607 20.6681 92.5895 20.667C92.616 20.6659 92.6423 20.6657 92.6711 20.6653C92.6737 20.6653 92.6763 20.6652 92.679 20.6652C92.7104 20.6649 92.7462 20.6633 92.7792 20.6597C92.8666 20.6496 92.9519 20.6413 93.0389 20.6344C93.1259 20.6275 93.2129 20.622 93.3006 20.6172C93.3349 20.6153 93.3693 20.6136 93.4037 20.6118C93.4573 20.609 93.5111 20.6061 93.565 20.6029C93.6537 20.5977 93.7425 20.5914 93.8317 20.583C93.9205 20.5745 94.0098 20.5639 94.0984 20.5509C94.187 20.5378 94.2762 20.5223 94.364 20.5047C94.4618 20.485 94.559 20.4642 94.6565 20.4428C94.7539 20.4213 94.8513 20.3993 94.9483 20.3769C95.0456 20.3544 95.1426 20.3316 95.2396 20.3084C95.3366 20.2852 95.4336 20.2617 95.5306 20.2378C95.5887 20.2235 95.6467 20.209 95.7048 20.1945C95.7366 20.2007 95.7672 20.2069 95.7966 20.2127C96.0136 20.2558 96.1705 20.2869 96.3754 20.3005C96.3951 20.3034 96.4114 20.3086 96.4312 20.3149C96.435 20.316 96.439 20.3172 96.4431 20.3185C96.469 20.3265 96.4986 20.3347 96.5392 20.3381C96.6202 20.3448 96.7425 20.332 96.8937 20.2318C96.9319 20.2065 96.9492 20.1048 96.9324 20.0045C96.9206 19.9342 96.8951 19.8833 96.8678 19.8679C96.9147 19.8521 96.9614 19.8356 97.0081 19.8193C97.0267 19.8127 97.0426 19.7881 97.0523 19.7501C97.062 19.7121 97.0646 19.6642 97.0596 19.6161C97.0546 19.5681 97.0424 19.5237 97.0254 19.492C97.0085 19.4603 96.9883 19.444 96.9693 19.4464C96.9188 19.4526 96.8685 19.4589 96.8181 19.4645C96.7677 19.4701 96.7175 19.4751 96.667 19.4797C96.6166 19.4842 96.5662 19.4883 96.5156 19.492C96.4652 19.4956 96.4146 19.499 96.364 19.5021C96.313 19.5051 96.2629 19.5077 96.2121 19.5103C96.1816 19.5119 96.1507 19.5134 96.1204 19.5148C96.1091 19.5154 96.0981 19.5158 96.0871 19.5162C96.0781 19.5166 96.069 19.5171 96.0597 19.5175C95.9616 19.5218 95.8626 19.5257 95.7644 19.5292C95.6657 19.5327 95.5671 19.536 95.4685 19.539C95.3699 19.5421 95.2713 19.5448 95.1726 19.5474C95.074 19.55 94.9755 19.5525 94.8767 19.5547C94.7783 19.5568 94.6795 19.5589 94.5809 19.5605C94.5046 19.5617 94.4289 19.5625 94.3531 19.563C94.3227 19.5557 94.2926 19.549 94.2629 19.5425C94.1765 19.5238 94.0893 19.4971 94.0034 19.4706C94.1528 19.4751 94.2739 19.4913 94.3891 19.5068C94.4046 19.5088 94.4199 19.5109 94.4352 19.5129C94.5914 19.5335 94.742 19.5494 94.941 19.5271C95.5068 19.4634 95.8347 19.4239 96.0377 19.3832C96.2407 19.3425 96.3259 19.2998 96.4023 19.2223C96.5103 19.1128 96.7298 19.0377 96.8423 19.0264C96.8831 19.0223 96.9093 18.9352 96.9007 18.8319C96.8921 18.7286 96.8521 18.6481 96.8112 18.6521C96.6925 18.664 96.4546 18.7415 96.3261 18.8719C96.2688 18.9299 96.2008 18.9699 96.0009 19.0099C95.801 19.05 95.4761 19.0891 94.9092 19.1528C94.7174 19.1744 94.5725 19.1594 94.418 19.139C94.4028 19.137 94.3876 19.1349 94.3722 19.1328C94.3721 19.1328 94.372 19.1328 94.3719 19.1328C94.2299 19.1138 94.0753 19.093 93.8693 19.095C93.3944 19.0995 92.754 19.0855 92.6002 19.0608C92.5701 19.056 92.5408 19.0501 92.5099 19.0441C92.3915 19.0207 92.2485 18.9926 91.9313 18.992C91.8619 18.9918 91.781 18.995 91.6928 19.0007C91.5565 18.961 91.4244 18.9247 91.3106 18.906C91.2124 18.8898 91.12 18.853 91.03 18.8117C91.0041 18.7998 90.978 18.7873 90.952 18.7749C90.8891 18.7448 90.8262 18.7148 90.7655 18.6926C90.7171 18.6749 90.6661 18.653 90.6123 18.6299C90.4161 18.5457 90.1811 18.4447 89.8872 18.467C89.5757 18.4905 89.3109 18.5337 89.0827 18.5733C89.2496 18.5353 89.3776 18.4956 89.484 18.4609C89.5041 18.4543 89.5234 18.448 89.5419 18.4419C89.6727 18.3987 89.7678 18.3673 89.8719 18.3598C90.3689 18.3243 90.5577 18.3409 90.7753 18.4155C90.8326 18.4352 90.8963 18.4624 90.9649 18.4916C91.1019 18.5501 91.2587 18.617 91.4239 18.6492C91.5778 18.6791 91.7511 18.7276 91.9347 18.779C91.9348 18.779 91.9349 18.7789 91.9349 18.7789C91.9708 18.789 92.0071 18.7991 92.0437 18.8092C92.2669 18.8711 92.5014 18.9324 92.7275 18.9647C92.7517 18.9682 92.7807 18.9733 92.814 18.9792C93.0065 19.0133 93.3444 19.0732 93.7439 18.9848C93.8316 18.9654 93.9217 18.932 94.0245 18.8939C94.0559 18.8823 94.0884 18.8701 94.1223 18.8579C94.269 18.805 94.4478 18.747 94.6883 18.7014C94.8868 18.6637 95.1301 18.6336 95.3826 18.6023C95.507 18.5868 95.6337 18.571 95.7584 18.554C96.1351 18.5025 96.4792 18.4415 96.8227 18.3804C96.8228 18.3804 96.8228 18.3804 96.8229 18.3804C96.8635 18.3732 96.8885 18.2836 96.8787 18.1804C96.8688 18.0773 96.828 17.9995 96.7874 18.0067C96.4437 18.0678 96.1007 18.1288 95.7252 18.1801C95.6024 18.1968 95.4767 18.2125 95.3528 18.2279C95.099 18.2594 94.8524 18.2898 94.6521 18.3279C94.4074 18.3743 94.2254 18.4334 94.0767 18.487C94.0409 18.4999 94.0072 18.5124 93.9753 18.5242C93.8736 18.5619 93.7891 18.5934 93.7059 18.6118C93.3191 18.6974 92.994 18.6399 92.8008 18.6059C92.7666 18.5998 92.7364 18.5946 92.7109 18.5909C92.4893 18.5592 92.2584 18.4989 92.0354 18.4372C91.9992 18.4272 91.9632 18.4172 91.9274 18.4072C91.9274 18.4071 91.9273 18.4071 91.9272 18.407C91.7436 18.3557 91.5672 18.3063 91.4104 18.2758C91.2514 18.2449 91.1099 18.1842 90.9775 18.1274C90.9065 18.097 90.8381 18.0678 90.7711 18.0448C90.5402 17.9656 90.3411 17.9499 89.8424 17.9856ZM96.7952 19.892C96.7006 19.9469 96.6212 19.9633 96.5613 19.965C96.6111 19.9502 96.6608 19.9349 96.7105 19.9193C96.7388 19.9104 96.767 19.9013 96.7952 19.892ZM91.711 19.3756C91.7275 19.3804 91.744 19.3853 91.7606 19.3901C91.7159 19.3908 91.6712 19.3917 91.6265 19.3926C91.5717 19.3936 91.5169 19.3949 91.4621 19.3962C91.5487 19.3879 91.6327 19.3807 91.711 19.3756ZM89.9169 18.8413C90.194 18.8204 90.4098 18.9127 90.6045 18.9961C90.6605 19.0201 90.7149 19.0434 90.7684 19.0629C90.7906 19.0711 90.8128 19.0802 90.8353 19.09C90.7103 19.1061 90.5955 19.1216 90.5015 19.1344C90.2211 19.1725 90.0634 19.2174 89.9248 19.2568C89.8847 19.2682 89.8461 19.2791 89.8067 19.2893C89.7726 19.2795 89.7373 19.2698 89.7017 19.2617C89.6519 19.2502 89.5981 19.2396 89.5471 19.231C89.4959 19.2224 89.444 19.2152 89.3932 19.2097C89.3419 19.2042 89.2912 19.2002 89.2409 19.1973C89.1935 19.1945 89.1463 19.1927 89.1007 19.191C89.0981 19.1909 89.0955 19.1908 89.0928 19.1907C89.0446 19.1889 88.9977 19.1871 88.9544 19.183C88.9103 19.1787 88.8735 19.1725 88.8403 19.1612C88.7988 19.1472 88.7564 19.1339 88.7145 19.1218C88.6726 19.1097 88.631 19.0986 88.5895 19.0884C88.548 19.0782 88.5069 19.0689 88.4657 19.0602C88.4524 19.0574 88.4385 19.0546 88.4254 19.0519C88.4193 19.0507 88.4132 19.0495 88.4072 19.0483C88.4856 19.0406 88.567 19.032 88.6511 19.0221C88.7726 19.0077 88.9016 18.9849 89.0439 18.9599C89.2868 18.9171 89.5683 18.8677 89.9169 18.8413ZM87.2135 19.1114C87.2477 19.1096 87.298 19.1085 87.3628 19.107C87.3781 19.1067 87.3943 19.1065 87.4112 19.1061C87.4109 19.1062 87.4104 19.1062 87.4101 19.1063C87.369 19.1193 87.3311 19.1307 87.2901 19.1418C87.217 19.1615 87.1458 19.179 87.0738 19.195C87.0015 19.2109 86.9292 19.2251 86.8567 19.2375C86.7842 19.25 86.7112 19.2607 86.6388 19.2694C86.5656 19.2781 86.4933 19.2851 86.4202 19.2897C86.3969 19.2911 86.3735 19.2923 86.3501 19.2933C86.4014 19.2797 86.4549 19.2675 86.5113 19.2547C86.5564 19.2445 86.6035 19.2338 86.6528 19.2216C86.6717 19.2169 86.6945 19.2102 86.7211 19.2024C86.8265 19.1716 86.9918 19.1231 87.2135 19.1114ZM85.7591 19.2374C85.7419 19.2363 85.7249 19.2355 85.7081 19.235C85.6602 19.2336 85.6138 19.2343 85.5683 19.2357C85.5363 19.2366 85.5048 19.238 85.4737 19.2393C85.4605 19.2398 85.4474 19.2403 85.4344 19.2408C85.4127 19.2417 85.3911 19.2423 85.3696 19.2429C85.5186 19.2195 85.6644 19.199 85.8168 19.1839C85.8188 19.1837 85.8209 19.1836 85.8229 19.1834C85.8011 19.2018 85.7799 19.2198 85.7591 19.2374Z" fill="white"/>
</svg>
