<svg width="100" height="32" viewBox="0 0 100 32" fill="none" xmlns="http://www.w3.org/2000/svg">
<path d="M53.9671 22.0612C53.6899 23.0757 53.3102 23.9386 52.5198 24.9616C52.5194 24.9621 52.5189 24.9627 52.5185 24.9632C52.4005 25.1091 52.267 25.266 52.0859 25.44C52.0391 25.4848 51.9907 25.5288 51.9387 25.5728C50.2358 26.7012 48.7958 26.9598 46.1773 27.2308C43.5393 27.428 41.3031 26.7795 40.0019 26.0031C39.8519 25.9169 39.7136 25.8292 39.5864 25.7423C39.3538 25.5767 39.0951 25.4225 38.5403 24.9398C38.1828 24.6184 37.7113 24.1633 37.19 23.3929C36.9153 22.9825 36.629 22.4794 36.3812 21.8537C35.4008 19.8412 35.7076 15.8851 37.8052 13.5221C38.9799 12.0452 40.4043 11.018 41.5031 10.3404C41.6644 10.2412 41.829 10.1435 41.997 10.0471C43.6734 9.14262 45.3433 8.93054 47.0841 8.7305C48.8434 8.55445 50.7365 8.50601 52.9213 8.5372C54.5764 8.5625 56.2134 8.70758 57.8249 8.89175C58.0319 8.91533 58.2406 8.9397 58.4504 8.96473C59.8883 9.13696 61.3518 9.33677 62.9288 9.53658C65.7434 9.89616 67.9967 10.1439 70.4815 10.4512C71.4557 10.5726 72.4621 10.7045 73.5552 10.8639C75.2804 11.1144 77.7635 11.5257 80.23 11.9898C80.4439 12.03 80.6571 12.0702 80.8687 12.1106C80.8698 12.1108 80.8708 12.111 80.8719 12.1112C83.1249 12.5403 85.3586 13.0138 86.977 13.3748C89.5442 13.9497 90.5403 14.197 91.3303 14.3824C91.6101 14.4489 91.9285 14.5283 92.2604 14.6168C93.4528 14.9832 95.2438 15.3226 97.1169 16.5321C97.1249 16.5385 97.1329 16.545 97.1408 16.5515C97.3109 16.6993 97.431 16.827 97.5305 17.1266C97.6053 17.3961 97.5074 17.5904 97.4607 17.5727C97.409 17.5647 97.3946 17.3892 97.2824 17.2218C97.1519 17.026 97.0435 16.964 96.8978 16.8378C95.9695 16.1723 95.0882 15.9187 94.2102 15.599C94.1292 15.6655 93.9097 15.6615 93.6424 15.5741C92.9312 15.3386 90.8535 14.7701 87.5498 14.1163C87.7692 14.1841 87.9478 14.2426 88.1065 14.2957C88.3037 14.3608 88.4521 14.4122 88.5789 14.4563C88.8426 14.5482 89.0161 14.6091 89.3216 14.6989C90.0299 14.8917 91.1639 15.1855 92.3693 15.5441C92.6588 15.6302 92.8673 15.783 92.8419 15.8836C92.8029 15.9801 92.5457 15.9881 92.2581 15.9026C92.2524 15.901 92.2467 15.8993 92.241 15.8976C91.0534 15.5445 89.8821 15.241 89.1516 15.0425C88.9629 14.9912 88.7978 14.9457 88.6732 14.9108C88.5737 14.8829 88.4483 14.8476 88.379 14.8247C88.3698 14.8216 88.3523 14.8157 88.3315 14.8081C88.3312 14.808 88.3308 14.8078 88.3305 14.8077C88.3189 14.8035 88.2595 14.7819 88.1975 14.7514C88.185 14.7452 88.1578 14.7317 88.1269 14.7129C88.1184 14.71 88.1099 14.7071 88.1015 14.7042C87.979 14.6627 87.8736 14.6253 87.7487 14.5838C87.2751 14.4261 86.4574 14.1721 84.8134 13.7578C83.2894 13.3748 80.6698 12.8162 77.3999 12.2516C77.6169 12.297 77.8386 12.3432 78.0612 12.3897C78.6201 12.5065 79.1762 12.6235 79.7259 12.7408C79.9336 12.7852 80.1504 12.8315 80.3659 12.8779C80.714 12.9527 81.0601 13.028 81.403 13.1034C81.6346 13.1543 81.8653 13.2054 82.0941 13.2566C82.0947 13.2567 82.0952 13.2568 82.0957 13.2569C82.4255 13.3304 82.7538 13.4045 83.0805 13.4795C83.1949 13.506 83.3075 13.532 83.4188 13.5579C83.8609 13.6606 84.2908 13.762 84.8032 13.8944C84.8645 13.9113 84.9308 13.9304 84.98 13.9451C85.033 13.9608 85.0838 13.9762 85.1316 13.991C85.1738 14.0041 85.2139 14.0168 85.2524 14.0289C85.2575 14.0305 85.2627 14.0321 85.2678 14.0337C85.3108 14.0472 85.3518 14.06 85.3912 14.0723C85.4305 14.0845 85.4682 14.0963 85.5055 14.1075C85.5058 14.1075 85.5062 14.1076 85.5065 14.1077C85.5454 14.1193 85.575 14.1282 85.6162 14.1399C85.668 14.1546 85.7124 14.167 85.7663 14.1815C85.8184 14.1954 85.8726 14.2097 85.9273 14.2237C85.982 14.2378 86.0377 14.2519 86.094 14.266C86.1488 14.2797 86.2129 14.2955 86.2731 14.3102C86.334 14.3251 86.3957 14.3401 86.4574 14.3551C86.5192 14.3702 86.5814 14.3854 86.6437 14.4006C86.7873 14.4357 86.9196 14.4872 87.0116 14.5446C87.1037 14.602 87.1483 14.6603 87.1368 14.7072C87.1253 14.7542 87.0583 14.7864 86.9498 14.7972C86.8412 14.808 86.6997 14.7963 86.5555 14.7655C86.5162 14.7571 86.4767 14.7487 86.4369 14.7402C86.4133 14.7352 86.3895 14.73 86.3657 14.7249C86.3018 14.7112 86.2369 14.6975 86.1715 14.6834C86.1064 14.6694 86.0391 14.6548 85.9773 14.6413C85.914 14.6274 85.8496 14.6132 85.7841 14.5985C85.7188 14.5838 85.652 14.5684 85.584 14.5524C85.5176 14.5367 85.4417 14.5183 85.3738 14.5012C85.3242 14.4887 85.263 14.4727 85.2119 14.4591C85.1586 14.4449 85.106 14.4306 85.0553 14.4166C85.0045 14.4026 84.9552 14.3887 84.9081 14.3756C84.9031 14.3742 84.8981 14.3728 84.893 14.3714C84.8514 14.3598 84.8111 14.3485 84.7729 14.338C84.7303 14.3263 84.6897 14.3154 84.6511 14.3053C84.6086 14.2941 84.5826 14.2877 84.5508 14.28C84.1179 14.182 83.6194 14.0795 83.1235 13.9798C83.0615 13.9673 82.9996 13.9549 82.9384 13.9426C82.6133 13.8778 82.2819 13.8128 81.9545 13.7496C81.7228 13.7049 81.4892 13.6602 81.2539 13.6156C80.9077 13.5499 80.5572 13.4842 80.2042 13.4187C79.9845 13.378 79.7688 13.3382 79.5565 13.2993C78.9974 13.1968 78.4298 13.0943 77.8561 12.9914C77.2836 12.8887 76.7238 12.7888 76.149 12.6859C75.5766 12.5834 74.985 12.4769 74.4166 12.3713C73.9979 12.2932 73.5678 12.2063 73.169 12.1247C72.9537 12.0807 72.747 12.0381 72.5412 11.996C72.5405 11.9959 72.5398 11.9957 72.5391 11.9955C72.3588 11.9586 72.1806 11.9224 72.0034 11.887C71.6234 11.811 71.2491 11.739 70.8739 11.6708C70.4988 11.6025 70.127 11.5385 69.7505 11.4777C69.3772 11.4175 68.9969 11.3599 68.6201 11.3065C68.2421 11.2529 67.868 11.2033 67.476 11.1545C66.9604 11.0905 66.4488 11.032 65.925 10.9749C65.4009 10.9178 64.8721 10.8635 64.3453 10.812C64.1611 10.794 63.9768 10.7761 63.7926 10.7587C63.7919 10.7586 63.7912 10.7586 63.7905 10.7585C63.4531 10.7267 63.1013 10.6944 62.7575 10.664C62.2246 10.6168 61.6952 10.5723 61.165 10.5298C60.6241 10.4862 60.0843 10.445 59.5475 10.4053C59.017 10.3659 58.4491 10.3255 57.8921 10.2844C57.3901 10.2476 56.9134 10.2136 56.4079 10.1816C56.2766 10.1732 56.1459 10.1652 56.0156 10.1574C55.391 10.1204 54.8316 10.0931 54.2212 10.0756C53.6214 10.0585 53.0519 10.0533 52.4589 10.0593C51.8525 10.0653 51.263 10.0832 50.6754 10.1128C50.0497 10.1437 49.4697 10.1855 48.8768 10.242C48.2476 10.3014 47.6966 10.3689 47.079 10.4633C46.7367 10.5158 46.3881 10.5754 46.0749 10.636C45.7509 10.6981 45.3958 10.7739 45.0924 10.85C44.9673 10.8812 44.8462 10.9131 44.7294 10.9458C44.5373 10.999 44.352 11.0554 44.1818 11.1129C43.8953 11.21 43.6415 11.3101 43.3789 11.4363C43.2128 11.5168 43.0673 11.5987 42.9418 11.6804C42.8585 11.7332 42.7776 11.7857 42.6991 11.8381C42.4544 12.0015 42.2741 12.132 42.0414 12.311C41.4958 12.7247 41.172 12.9937 40.8209 13.3049C40.7522 13.3663 40.6836 13.4292 40.6139 13.4948C40.2073 13.8745 39.8322 14.2738 39.5011 14.6895C39.1701 15.1045 38.8742 15.5481 38.6341 16.0037C38.3938 16.4585 38.2022 16.9382 38.0735 17.4243C37.9446 17.9095 37.8755 18.4081 37.8707 18.9084C37.8653 19.4084 37.9271 19.9196 38.0466 20.399C38.1149 20.6759 38.2086 20.9658 38.3151 21.2299C38.3911 21.4192 38.4765 21.6045 38.5678 21.78C38.6054 21.8523 38.6441 21.9233 38.6838 21.9927C38.8206 22.232 38.9704 22.456 39.1292 22.6615C39.2877 22.8667 39.4551 23.0542 39.6309 23.225C39.8064 23.3954 39.9897 23.5489 40.1832 23.6876C40.3827 23.8293 40.556 23.9357 40.7855 24.051C40.8376 24.0769 40.8894 24.1015 40.9411 24.1248C41.0433 24.1713 41.1459 24.2147 41.2493 24.2557C41.4875 24.35 41.7302 24.4307 41.9795 24.4999C42.2286 24.5689 42.4793 24.6249 42.7344 24.67C42.8165 24.6844 42.9036 24.6985 42.9865 24.7106C43.2429 24.7481 43.4992 24.7742 43.7567 24.7901C44.014 24.806 44.2707 24.8117 44.5262 24.808C44.7836 24.8043 45.0373 24.7915 45.2946 24.7697C45.7333 24.7326 46.1537 24.686 46.5202 24.6339C46.8908 24.5815 47.2355 24.521 47.5691 24.4505C47.6316 24.4373 47.6916 24.4242 47.7552 24.4098C48.0224 24.3494 48.2823 24.2823 48.5338 24.2078C48.844 24.1159 49.1414 24.0133 49.42 23.8983C49.6916 23.7868 49.9675 23.6483 50.1068 23.5449C50.1322 23.5261 50.1497 23.5089 50.1386 23.5155C50.1721 23.4796 50.3199 23.2956 50.4277 23.1179C50.5731 22.8844 50.7077 22.6177 50.8284 22.3185C50.9482 22.0214 51.0491 21.7009 51.1206 21.3776C51.1922 21.0546 51.2348 20.7278 51.2444 20.4117C51.2542 20.0947 51.2312 19.7854 51.1759 19.4909C51.1203 19.1938 51.033 18.9118 50.9136 18.6388C50.7946 18.3658 50.6374 18.0952 50.4609 17.8502C50.1758 17.4535 49.8144 17.0843 49.3958 16.7465C49.1791 16.5717 48.9545 16.4098 48.7057 16.2482C48.6353 16.1956 48.4032 16.089 48.2133 16.0279C47.7444 15.8718 47.1705 15.7668 46.5996 15.692C46.0076 15.6154 45.4197 15.569 44.784 15.537C44.6374 15.5298 44.5113 15.5243 44.3778 15.5191C43.9195 15.5011 43.3839 15.4917 42.9273 15.4897C42.924 15.4897 42.9207 15.4896 42.9175 15.4896C42.3072 15.4868 41.6617 15.4959 41.0556 15.5125C40.8273 15.5188 40.6049 15.526 40.3762 15.5347C40.1419 15.5436 39.9322 15.5526 39.7117 15.5631C39.4919 15.5736 39.271 15.5854 39.0513 15.5982C38.8297 15.6112 38.6092 15.6252 38.3897 15.6407C38.1949 15.6544 38.0001 15.6694 37.7856 15.6864C37.766 15.688 37.7464 15.6895 37.7268 15.6911C37.4917 15.7099 37.222 15.7311 36.9688 15.7496C36.2958 15.7984 35.6706 15.8497 35.0015 15.9103C34.34 15.9704 33.6949 16.0344 33.0246 16.105C32.7607 16.1327 32.5087 16.16 32.2486 16.1886C31.8459 16.2327 31.4395 16.2785 31.0301 16.3254C30.3609 16.4022 29.6932 16.4807 29.0146 16.561C28.342 16.6407 27.6655 16.7213 26.9903 16.8016C26.3157 16.8819 25.6349 16.9629 24.9652 17.0423C24.2143 17.1314 23.472 17.2208 22.7259 17.3123C21.9718 17.405 21.2399 17.4962 20.4885 17.592C19.7353 17.688 19.0089 17.7818 18.2526 17.8816C17.5104 17.9793 16.7647 18.0791 16.0194 18.1803C15.5793 18.24 15.1347 18.3008 14.6824 18.3634C14.4475 18.41 14.2249 18.4547 14.0129 18.4973C12.4088 18.8188 11.2848 19.0505 9.74909 19.3429C9.60514 19.3722 9.49016 19.3985 9.35229 19.4301C9.326 19.4361 9.29819 19.4424 9.26995 19.4489C9.08931 19.4902 8.85112 19.5419 8.55366 19.6003C7.98744 19.7121 7.02671 19.8766 5.83568 20.0019C5.50631 20.0387 5.32326 19.9704 5.3633 19.8602C5.39343 19.7825 5.53456 19.7033 5.74178 19.6481C5.54676 19.6771 5.36838 19.7032 5.20742 19.7261C5.02485 19.7529 4.81183 19.7855 4.66381 19.8063C4.52534 19.8266 4.34754 19.8358 4.28392 19.81C4.13149 19.8006 4.1409 19.7505 4.13069 19.7033C4.12704 19.6794 4.11901 19.6571 4.14309 19.6308C4.16645 19.6046 4.2459 19.5699 4.2705 19.5486C4.33362 19.5033 4.5555 19.4443 4.6519 19.4274C5.0403 19.3584 5.38342 19.2983 5.80929 19.2233C6.14664 19.1643 6.58278 19.0875 6.9377 19.0252C7.28825 18.9637 7.73409 18.8854 8.07826 18.825C8.43878 18.7617 8.85538 18.689 9.22396 18.6246C9.59373 18.56 9.97209 18.494 10.3711 18.4249C10.5998 18.3852 10.8197 18.3472 11.0476 18.3078C11.132 18.2933 11.2149 18.2789 11.2984 18.2645C11.3666 18.2527 11.4355 18.2409 11.5069 18.2287C12.2621 18.0989 12.9821 17.9762 13.7324 17.8499C14.4542 17.7283 15.2289 17.5996 15.9511 17.4809C16.6955 17.3587 17.436 17.2386 18.1772 17.1203C18.9322 16.9999 19.6542 16.8862 20.4056 16.77C21.153 16.6544 21.8834 16.5432 22.6335 16.4311C23.207 16.3453 23.7733 16.2615 24.3457 16.178C24.5699 16.1377 24.7923 16.0985 25.0099 16.0605C25.6446 15.9497 26.2816 15.8324 26.9092 15.7188C25.7851 15.879 24.8923 16.0246 24.0325 16.1671C23.9177 16.1861 23.8038 16.2051 23.6903 16.2241C22.536 16.4169 21.4184 16.6037 19.9005 16.8219C15.6272 17.4402 13.1068 17.8509 11.5693 18.0807C10.0272 18.314 9.3528 18.3947 8.71513 18.4324C7.83557 18.4816 6.11233 18.7277 5.26573 18.8797C4.99878 18.9272 4.67679 18.8999 4.67336 18.7952C4.64283 18.6954 4.93554 18.5569 5.20398 18.5092C6.10519 18.3474 7.93423 18.0838 9.02197 18.0189C9.46876 17.9964 10.0377 17.9323 11.5578 17.7025C13.0713 17.4765 15.5705 17.0688 19.8562 16.4489C21.3213 16.2382 22.3983 16.0582 23.5408 15.867C23.6533 15.8483 23.7666 15.8293 23.881 15.8102C23.8818 15.8101 23.8825 15.81 23.8832 15.8099C24.9427 15.6343 26.0858 15.4474 27.6432 15.2379C31.2216 14.7409 36.0715 14.2237 37.2234 14.1178C37.4501 14.0937 37.6677 14.0701 37.8955 14.046C38.7754 13.959 39.8531 13.8269 42.2753 13.7497C42.8089 13.7353 43.4195 13.7282 44.1093 13.7404C45.1076 13.7093 46.1387 13.723 46.9975 13.8078C47.7652 13.8861 48.4802 13.9767 49.1656 14.1891C49.3887 14.2616 49.5978 14.3453 49.7914 14.4468C49.8066 14.4547 49.8216 14.4628 49.8366 14.471C50.2604 14.7008 50.659 14.9497 51.036 15.2381C51.344 15.4742 51.6558 15.7386 51.9688 16.0617C53.0866 17.1499 54.1878 19.3296 53.5115 21.8914C53.1424 23.2157 52.6773 24.2468 51.6618 25.2563C50.3806 26.1596 49.5003 26.259 48.5412 26.516C49.8011 26.2081 50.6641 26.0259 51.6904 25.2891C51.7782 25.2155 51.8623 25.1332 51.9255 25.068C52.0782 24.9093 52.1906 24.7726 52.3012 24.6297C53.0266 23.6532 53.355 22.8736 53.6017 21.9748C54.164 19.8057 53.6257 18.1013 53.0198 17.0533C52.3944 15.9866 51.717 15.3821 51.0026 14.8522C50.7036 14.6353 50.3713 14.4249 49.9975 14.2182C49.8831 14.1538 49.763 14.0955 49.6368 14.0418C48.4558 13.5722 47.2689 13.5244 45.9711 13.4547C44.8157 13.4064 43.4649 13.4483 42.1109 13.5405C42.1104 13.5405 42.1098 13.5405 42.1093 13.5405C41.8322 13.5587 41.5611 13.5787 41.2945 13.6001C39.6012 13.733 37.8977 13.9228 36.1863 14.1127C36.0073 14.1327 35.792 14.158 35.5432 14.1881C34.1004 14.3607 31.5852 14.6916 28.5078 15.0106C27.8326 15.0803 27.1277 15.1422 26.3234 15.2161C26.0784 15.2387 25.8241 15.2623 25.559 15.2877C24.4163 15.3973 23.0259 15.5421 21.1781 15.7826C19.6507 15.9814 17.8079 16.2475 15.8794 16.54C14.9527 16.6803 13.968 16.8326 13.0239 16.98C10.1525 17.4287 7.51221 17.8499 4.92296 18.2858C4.9225 18.2859 4.92202 18.286 4.92156 18.2861C4.56785 18.3464 4.35367 18.2972 4.3447 18.1935C4.32888 18.0911 4.55265 17.9676 4.88902 17.9105C7.48906 17.4729 10.1193 17.0538 12.9851 16.606C13.9142 16.461 14.8934 16.3095 15.8168 16.1697C17.7559 15.8755 19.627 15.6053 21.1693 15.4048C23.0522 15.1599 24.4667 15.0131 25.6278 14.902C25.9077 14.8753 26.1711 14.8509 26.4213 14.828C27.2177 14.7551 27.8799 14.6975 28.5211 14.6314C31.5043 14.323 33.9325 14.0021 35.3813 13.8275C35.6381 13.7964 35.8624 13.7698 36.0526 13.7484C37.7301 13.5611 39.4235 13.3707 41.1171 13.2341C41.3901 13.2121 41.6375 13.1922 41.9235 13.1731C41.9241 13.173 41.9247 13.1729 41.9252 13.1728C43.3123 13.0769 44.6497 13.0274 45.8726 13.0731C47.1422 13.1322 48.2153 13.1805 49.3862 13.5385C49.6751 13.634 49.9463 13.7475 50.2036 13.8943C50.5061 14.0635 50.7767 14.2292 51.059 14.4255C51.8566 14.9926 52.6095 15.6414 53.3048 16.7951C53.9821 17.9279 54.56 19.782 53.9671 22.0612ZM6.29429 19.5675C7.08643 19.4739 7.65028 19.3852 8.10707 19.3023C7.74683 19.3543 7.31202 19.4192 6.95909 19.4699C6.76958 19.4968 6.50149 19.5375 6.29429 19.5675ZM44.1931 14.1174C44.0726 14.1208 43.9498 14.1248 43.8252 14.1293C44.1739 14.1313 44.4855 14.1363 44.8375 14.1475C45.2759 14.1619 45.6687 14.182 46.0863 14.2143C45.453 14.1583 44.7553 14.1285 44.1931 14.1174ZM53.1459 21.8052C53.7347 19.5182 52.8968 17.6323 51.8839 16.533C51.5925 16.2067 51.2784 15.9186 50.9572 15.6607C50.8269 15.5562 50.6805 15.4465 50.5455 15.3536C51.32 15.9754 51.923 16.7033 52.29 17.3695C53.3631 19.4196 52.9728 20.8667 52.6912 21.8993C52.5956 22.2054 52.4829 22.4965 52.3528 22.7821C52.2631 23.0232 52.1524 23.2775 52.0281 23.5195C51.8498 23.8643 51.6373 24.218 51.362 24.5393C51.3125 24.5966 51.2493 24.6638 51.1907 24.7179C50.908 24.9671 50.6095 25.1133 50.3167 25.2538C49.9515 25.4236 49.5803 25.5613 49.2071 25.6813C48.8556 25.7941 48.5001 25.8901 48.1565 25.9706C48.1366 25.9752 48.1167 25.9798 48.0967 25.9844C47.7333 26.068 47.3711 26.1363 47.0429 26.1903C46.706 26.2457 46.4255 26.2841 46.1741 26.3191C45.8625 26.3625 45.5387 26.396 45.2175 26.417C44.896 26.438 44.5735 26.4468 44.2523 26.4428C43.9293 26.4386 43.6093 26.4218 43.288 26.3907C43.1838 26.3806 43.0755 26.3685 42.9725 26.3555C42.9251 26.3495 42.8776 26.3432 42.8303 26.3366C43.4541 26.4478 44.1076 26.5093 44.7807 26.5221C45.7535 26.5396 46.7886 26.4679 47.9121 26.2612C48.9914 26.0201 50.0742 25.8894 51.4145 24.9738C52.3136 24.0854 52.7994 23.0673 53.1459 21.8052ZM36.2915 19.9165C36.3319 20.1957 36.4071 20.6091 36.5708 21.118C36.6096 21.2386 36.6539 21.3651 36.7036 21.4953C36.7025 21.4922 36.7014 21.4891 36.7003 21.486C36.5888 21.1577 36.5055 20.8486 36.4369 20.5109C36.3154 19.9084 36.2695 19.3096 36.2947 18.7104C36.32 18.1091 36.4194 17.5113 36.5845 16.9377C36.7487 16.3651 36.9816 15.8074 37.2608 15.2902C37.5405 14.771 37.8737 14.2784 38.2352 13.8256C38.3515 13.6797 38.4752 13.5328 38.5955 13.3963C38.3132 13.6994 38.036 14.0321 37.7654 14.4121C37.5556 14.7067 37.3458 15.0371 37.1519 15.3984C37.0772 15.5378 36.9934 15.6992 36.8987 15.9052C36.542 16.6905 36.0342 18.0739 36.2915 19.9165ZM42.1421 10.4513C42.164 10.438 42.1859 10.4247 42.2078 10.4115C42.3012 10.3552 42.3976 10.3014 42.4963 10.25C42.8376 10.071 43.2374 9.91342 43.5561 9.80592C43.7952 9.72478 44.0436 9.65094 44.2993 9.58318C44.4119 9.55341 44.4953 9.5323 44.5945 9.50813C44.7559 9.46889 44.9201 9.43165 45.087 9.39638C44.1613 9.57883 43.1006 9.85175 42.1849 10.372C42.0188 10.4673 41.8557 10.5641 41.6957 10.6626C41.6821 10.6709 41.6687 10.6794 41.6551 10.6878C41.818 10.606 41.9804 10.5272 42.1421 10.4513Z" fill="white"/>
<path d="M4.56821 15.4711C4.61878 15.4069 4.6868 15.3634 4.77277 15.3086C4.7728 15.3086 4.77284 15.3085 4.77287 15.3085C4.78515 15.3006 4.79787 15.2926 4.81088 15.2842C4.91569 15.2166 5.04805 15.1257 5.21449 14.9617C5.3984 14.7805 5.60802 14.6882 5.76446 14.6548C5.79364 14.6486 5.81676 14.6364 5.86215 14.5953C5.89192 14.5683 5.93002 14.53 5.98504 14.4749C6.01431 14.4456 6.04833 14.4114 6.08843 14.3716C6.22121 14.24 6.39957 14.0096 6.56382 13.7972C6.66351 13.6683 6.75804 13.546 6.83412 13.4566C6.94537 13.3258 7.0642 13.209 7.19347 13.082C7.31186 12.9657 7.43902 12.8409 7.57686 12.689C7.68262 12.5724 7.83787 12.5017 8.00161 12.4346C8.02245 12.4261 8.04344 12.4176 8.06448 12.4091C8.20962 12.3504 8.35808 12.2906 8.48789 12.2009C8.71927 12.0412 8.82924 11.8532 8.95101 11.6451C8.99863 11.5638 9.04805 11.4793 9.10726 11.3922C9.2009 11.2544 9.35319 11.0708 9.50698 10.887C9.52009 10.8714 9.53313 10.8557 9.54622 10.84C9.54628 10.8399 9.54635 10.8399 9.54641 10.8398C9.68726 10.6717 9.8255 10.5067 9.9186 10.3789C10.0665 10.1758 10.1024 10.0834 10.1323 10.0063C10.1436 9.9773 10.1539 9.95041 10.1691 9.92069C10.2239 9.81363 10.3392 9.67849 10.4561 9.54147C10.4565 9.54094 10.4569 9.5404 10.4574 9.53987C10.4768 9.51713 10.5578 9.55168 10.6383 9.61703C10.7188 9.68238 10.7683 9.75383 10.749 9.77657C10.687 9.84915 10.6266 9.91998 10.5756 9.98582C10.6421 10.0452 10.6804 10.1051 10.6629 10.1256C10.6192 10.1768 10.5417 10.3793 10.4239 10.6991C10.4504 10.6921 10.4743 10.6877 10.4962 10.6845C10.5219 10.6808 10.5428 10.679 10.5608 10.6774C10.5983 10.6741 10.6231 10.6719 10.6528 10.6561C10.7093 10.6099 10.7825 10.5245 10.8593 10.4345C10.8787 10.4118 10.9596 10.4462 11.04 10.5115C11.1205 10.5769 11.1701 10.6483 11.1507 10.6711C11.1503 10.6715 11.15 10.672 11.1496 10.6724C11.0736 10.7616 10.9982 10.8498 10.9388 10.8979C10.9237 10.9101 10.9097 10.9198 10.8986 10.9267C10.8897 10.9321 10.8783 10.9387 10.8693 10.9401C10.8681 10.9403 10.8657 10.9407 10.8625 10.9407C10.8624 10.9407 10.8624 10.9406 10.8623 10.9406C10.8605 10.9407 10.8514 10.9408 10.8356 10.9361C10.8324 10.9352 10.8253 10.933 10.8147 10.9285C10.8135 10.9286 10.8123 10.9287 10.8111 10.9288C10.7947 10.9302 10.7779 10.9318 10.7608 10.9342C10.6939 10.9439 10.5995 10.9685 10.4491 11.0571C10.3107 11.1385 10.1311 11.3202 9.93116 11.5664C9.95067 11.5547 9.97004 11.5427 9.98916 11.5306C10.0373 11.5 10.0843 11.4683 10.1307 11.436C10.1485 11.4237 10.166 11.4115 10.1837 11.3989C10.2121 11.3786 10.2405 11.3582 10.2688 11.3377C10.2878 11.3238 10.3069 11.3098 10.3259 11.2959C10.3259 11.2959 10.326 11.2958 10.326 11.2958C10.3524 11.2764 10.379 11.2571 10.4058 11.2377C10.4154 11.231 10.4247 11.2243 10.434 11.2177C10.4708 11.1913 10.5069 11.1652 10.5556 11.1411C10.5623 11.1387 10.5702 11.1367 10.5764 11.1355C10.583 11.1341 10.5895 11.1329 10.596 11.132C10.6016 11.1311 10.6072 11.1305 10.6125 11.1298C10.6132 11.1297 10.6139 11.1297 10.6146 11.1296C10.6206 11.1288 10.6261 11.128 10.6314 11.1272C10.6367 11.1264 10.6418 11.1256 10.6464 11.1246C10.6465 11.1246 10.6465 11.1246 10.6465 11.1245C10.6514 11.1234 10.655 11.1226 10.6597 11.121C10.6656 11.1191 10.6704 11.1172 10.6758 11.1146C10.681 11.1121 10.6861 11.1092 10.6911 11.1061C10.6961 11.103 10.7009 11.0997 10.7057 11.0963C10.7105 11.0928 10.7152 11.0892 10.7199 11.0854C10.7245 11.0817 10.7291 11.0777 10.7337 11.0738C10.7384 11.0699 10.743 11.0659 10.7477 11.0619C10.7583 11.0526 10.7829 11.0553 10.8165 11.0699C10.8502 11.0845 10.8899 11.1096 10.9274 11.1401C10.965 11.1706 10.9976 11.2042 11.0184 11.2338C11.0392 11.2634 11.0465 11.2865 11.0391 11.2985C11.0371 11.3017 11.0351 11.305 11.033 11.3083C11.0318 11.3102 11.0305 11.3121 11.0293 11.3141C11.026 11.3193 11.0227 11.3246 11.0191 11.3298C11.0156 11.335 11.0119 11.3401 11.0081 11.3452C11.0043 11.3503 11.0002 11.3554 10.9959 11.3603C10.9915 11.3652 10.9868 11.37 10.9817 11.3746C10.9767 11.3791 10.9705 11.3838 10.9645 11.3877C10.9602 11.3905 10.9542 11.3935 10.9491 11.3959C10.9438 11.3985 10.9383 11.4007 10.9328 11.4027C10.9273 11.4048 10.9217 11.4066 10.9165 11.4083C10.9159 11.4085 10.9154 11.4087 10.9148 11.4089C10.9102 11.4104 10.9057 11.4119 10.9015 11.4134C10.8969 11.415 10.8927 11.4168 10.8889 11.4185C10.8846 11.4205 10.8824 11.4219 10.8797 11.4237C10.8492 11.4518 10.8183 11.492 10.7888 11.5302C10.7851 11.5351 10.7814 11.5398 10.7777 11.5445C10.7584 11.5698 10.7393 11.5951 10.7203 11.6204C10.7064 11.6388 10.6926 11.6572 10.6787 11.6756C10.6581 11.7027 10.6374 11.7297 10.6165 11.7565C10.6035 11.7731 10.5906 11.7894 10.5775 11.8059C10.5431 11.8488 10.508 11.8914 10.4715 11.933C10.435 11.9745 10.397 12.0152 10.3569 12.0542C10.3169 12.093 10.273 12.1315 10.2263 12.1651C10.1918 12.1898 10.1502 12.2099 10.1101 12.2272C10.0885 12.2365 10.067 12.2454 10.0457 12.254C10.0457 12.254 10.0456 12.254 10.0455 12.2541C10.0268 12.2616 10.0084 12.2691 9.99036 12.2767C9.95171 12.2931 9.91513 12.3103 9.8807 12.3293C9.8463 12.3481 9.81413 12.3686 9.78398 12.3911C9.75406 12.4134 9.72575 12.4378 9.69966 12.4636C9.67342 12.4894 9.64951 12.5163 9.62586 12.5457C9.5949 12.5845 9.56649 12.6249 9.53773 12.6668C9.50928 12.7084 9.48136 12.7509 9.45341 12.7936C9.44365 12.8086 9.43376 12.8234 9.42398 12.8384C9.42393 12.8385 9.42389 12.8385 9.42385 12.8386C9.40576 12.8663 9.38764 12.8941 9.36939 12.9219C9.34121 12.9647 9.31275 13.0075 9.28347 13.0498C9.25418 13.0922 9.22404 13.1342 9.19226 13.1753C9.1604 13.2163 9.12635 13.2574 9.08791 13.2952C9.05376 13.329 9.018 13.3621 8.98296 13.3943C8.97371 13.4028 8.96446 13.4113 8.95521 13.4198C8.91143 13.4603 8.87017 13.5004 8.83364 13.5435C8.79702 13.5865 8.76453 13.6328 8.73505 13.6822C8.70566 13.7314 8.67895 13.7837 8.6539 13.838C8.62875 13.8925 8.60582 13.9479 8.58341 14.0051C8.56123 14.062 8.53994 14.1199 8.5191 14.1792C8.50748 14.212 8.4938 14.246 8.48009 14.2774C8.46625 14.3091 8.45171 14.34 8.437 14.3702C8.43103 14.3825 8.42498 14.3946 8.41904 14.4067C8.41036 14.4243 8.40171 14.4417 8.39341 14.459C8.3794 14.4882 8.36627 14.5171 8.35479 14.5463C8.34331 14.5754 8.33357 14.6048 8.32634 14.635C8.31889 14.6662 8.31484 14.6936 8.31254 14.7285C8.299 14.8071 8.28116 14.8481 8.26146 14.8938C8.25758 14.9028 8.2537 14.912 8.24968 14.9217C8.22525 14.9758 8.19788 15.0275 8.16885 15.0769C8.13948 15.1267 8.10852 15.174 8.07525 15.2204C8.04231 15.2664 8.00714 15.3111 7.97044 15.3543C7.93381 15.3974 7.8955 15.439 7.85534 15.4793C7.81522 15.5196 7.77246 15.5592 7.72978 15.596C7.70512 15.6172 7.67772 15.6388 7.65168 15.6584C7.63291 15.6725 7.61411 15.6862 7.59567 15.6996C7.58814 15.7051 7.58065 15.7106 7.57326 15.716C7.54777 15.7346 7.52328 15.753 7.50081 15.7717C7.47833 15.7904 7.45776 15.8095 7.43954 15.8296C7.42128 15.8499 7.40538 15.8712 7.39149 15.8942C7.37718 15.9182 7.36686 15.9393 7.35592 15.9682C7.34886 15.987 7.34209 16.0056 7.33536 16.0241C7.32528 16.0519 7.31549 16.0796 7.30585 16.1077C7.29624 16.1358 7.28701 16.1637 7.27806 16.1921C7.27519 16.2012 7.27215 16.2108 7.26934 16.22C7.26066 16.2485 7.25244 16.2769 7.24476 16.3057C7.23709 16.3344 7.23 16.3633 7.2236 16.3927C7.21716 16.4221 7.21145 16.4515 7.20632 16.4821C7.19766 16.5341 7.1794 16.5759 7.16148 16.6108C7.1432 16.6461 7.12376 16.6772 7.10478 16.7074C7.10123 16.713 7.09767 16.7187 7.09411 16.7243C7.07873 16.7486 7.0635 16.7724 7.04904 16.7963C7.0312 16.8257 7.01446 16.8552 6.99848 16.8855C6.98262 16.9155 6.96744 16.9465 6.95362 16.9779C6.93969 17.0096 6.92725 17.0407 6.91501 17.0751C6.90282 17.109 6.89312 17.1457 6.88239 17.1858C6.87179 17.2255 6.86038 17.267 6.84696 17.3075C6.83362 17.3481 6.81827 17.3878 6.80094 17.4255C6.78361 17.4633 6.76424 17.4997 6.7434 17.5341C6.72246 17.5688 6.6999 17.6018 6.67611 17.6336C6.65239 17.6653 6.62647 17.6969 6.60101 17.7255C6.55978 17.7718 6.5178 17.8171 6.47541 17.8623C6.43322 17.9072 6.39049 17.9518 6.34762 17.9963C6.30482 18.0406 6.2618 18.0848 6.21864 18.1288C6.17547 18.1728 6.13218 18.2168 6.08891 18.2606C6.07934 18.2702 6.06976 18.2799 6.06019 18.2896C6.02649 18.3237 5.99278 18.3578 5.95929 18.3919C5.95903 18.3921 5.95878 18.3923 5.95853 18.3925C5.91548 18.4363 5.87325 18.4794 5.83129 18.5235C5.81593 18.5397 5.80119 18.5553 5.78644 18.5713C5.77169 18.5874 5.75739 18.6033 5.74319 18.6195C5.72898 18.6358 5.71512 18.6522 5.70182 18.6686C5.6884 18.6852 5.67563 18.7016 5.66335 18.7187C5.65206 18.7344 5.64151 18.7504 5.62991 18.7679C5.62885 18.7695 5.62779 18.7711 5.62673 18.7727C5.61405 18.7918 5.59876 18.8129 5.58278 18.8311C5.54021 18.879 5.49987 18.9266 5.46002 18.976C5.42014 19.0255 5.38151 19.0758 5.34305 19.1269C5.32802 19.1469 5.31308 19.167 5.29805 19.1871C5.27467 19.2184 5.2512 19.2498 5.2274 19.2811C5.18824 19.3326 5.14817 19.3835 5.10621 19.4334C5.0644 19.4832 5.02064 19.5319 4.97514 19.5788C4.92969 19.6256 4.882 19.6714 4.83315 19.7152C4.77867 19.7639 4.72351 19.8115 4.66771 19.859C4.61198 19.9064 4.55572 19.9534 4.49938 20C4.44286 20.0468 4.38616 20.0931 4.32915 20.1393C4.27211 20.1855 4.21482 20.2314 4.15724 20.2771C4.12278 20.3045 4.08819 20.3318 4.05352 20.359C4.04606 20.3822 4.03906 20.4046 4.03223 20.426C3.98178 20.5845 3.94522 20.6991 3.8756 20.8328C3.87023 20.8467 3.86802 20.8597 3.86529 20.8755C3.86477 20.8786 3.86414 20.8817 3.86356 20.885C3.85987 20.9055 3.85483 20.9285 3.84161 20.9554C3.81523 21.0092 3.7567 21.0769 3.61583 21.1115C3.58024 21.1203 3.49084 21.0718 3.41609 21.0032C3.36367 20.9551 3.3324 20.9098 3.33067 20.8841C3.2993 20.9037 3.26757 20.9228 3.23595 20.942C3.22332 20.9496 3.19701 20.9451 3.16238 20.929C3.12775 20.9129 3.08777 20.8866 3.05076 20.8556C3.01373 20.8246 2.9825 20.7912 2.96344 20.7624C2.9444 20.7335 2.93913 20.7117 2.94851 20.7013C2.97346 20.6739 2.99835 20.6467 3.02275 20.619C3.04718 20.5912 3.071 20.5633 3.09454 20.5349C3.11809 20.5066 3.14121 20.4779 3.16413 20.449C3.18694 20.4201 3.2096 20.391 3.232 20.3616C3.25458 20.3321 3.27639 20.3028 3.29852 20.2731C3.31177 20.2552 3.32519 20.2372 3.33823 20.2193C3.34312 20.2127 3.34777 20.2062 3.35251 20.1997C3.35638 20.1944 3.36032 20.1891 3.36435 20.1836C3.40642 20.1258 3.44858 20.0671 3.49006 20.0088C3.53177 19.9502 3.57323 19.8915 3.6145 19.8327C3.6558 19.7738 3.69681 19.7148 3.73778 19.6556C3.77872 19.5966 3.8195 19.5374 3.86017 19.478C3.90066 19.4187 3.94123 19.3592 3.98133 19.2995C4.01234 19.2533 4.04278 19.2073 4.073 19.1609C4.0791 19.138 4.08547 19.1156 4.09194 19.0936C4.11076 19.0296 4.1234 18.9605 4.13571 18.8923C4.08056 18.9868 4.04603 19.0706 4.01321 19.1504C4.00881 19.1611 4.00446 19.1718 4.00008 19.1823C3.95529 19.2903 3.90894 19.3921 3.81246 19.5014C3.53804 19.8122 3.37686 19.9908 3.26395 20.092C3.15105 20.1931 3.08281 20.2206 2.98981 20.2225C2.85841 20.2252 2.71104 20.3165 2.65764 20.3791C2.63824 20.4018 2.55722 20.3673 2.47674 20.3019C2.39624 20.2366 2.34666 20.1651 2.36606 20.1424C2.42244 20.0763 2.57899 19.9752 2.73539 19.9719C2.80505 19.9705 2.86427 19.9519 2.97545 19.8523C3.08664 19.7527 3.24626 19.5757 3.52121 19.2643C3.61422 19.1589 3.65904 19.0611 3.70335 18.9543C3.70769 18.9439 3.71196 18.9332 3.71635 18.9226C3.71639 18.9225 3.71644 18.9224 3.71648 18.9224C3.7569 18.824 3.80088 18.7169 3.88358 18.5914C4.07418 18.3021 4.31494 17.9003 4.35541 17.7915C4.36336 17.7701 4.37015 17.7487 4.37736 17.7262C4.40506 17.6398 4.43852 17.5356 4.56284 17.3402C4.59003 17.2975 4.62452 17.2496 4.66379 17.1987C4.68524 17.0919 4.70776 16.9895 4.73739 16.9087C4.76296 16.8389 4.76941 16.7607 4.77131 16.6814C4.77185 16.6586 4.77198 16.6353 4.77213 16.612C4.77251 16.5559 4.77291 16.4998 4.77877 16.4496C4.78344 16.4095 4.78575 16.3655 4.78817 16.3189C4.797 16.1494 4.80758 15.9462 4.94132 15.7785C5.08308 15.6007 5.22234 15.463 5.34437 15.3458C5.24783 15.4263 5.16523 15.4818 5.0951 15.5271C5.08188 15.5356 5.06915 15.5438 5.0569 15.5516C4.97033 15.6069 4.9074 15.6471 4.86039 15.7067C4.6359 15.9916 4.57505 16.1173 4.54997 16.2945C4.54336 16.3411 4.54039 16.3961 4.53715 16.4553C4.53069 16.5735 4.52328 16.7088 4.48432 16.829C4.44804 16.941 4.41921 17.0757 4.3886 17.2185C4.38856 17.2185 4.38853 17.2186 4.3885 17.2186C4.38252 17.2465 4.37646 17.2747 4.37027 17.3031C4.33258 17.4763 4.29007 17.6561 4.22731 17.8138C4.2206 17.8307 4.21331 17.8515 4.20498 17.8754C4.15691 18.0136 4.07251 18.2561 3.84353 18.4503C3.79324 18.4929 3.7307 18.5289 3.65925 18.5699C3.63749 18.5824 3.6148 18.5953 3.59149 18.6091C3.49087 18.6686 3.37344 18.7447 3.24168 18.866C3.13294 18.9662 3.01278 19.0982 2.88794 19.2352C2.82644 19.3027 2.76374 19.3714 2.70082 19.4381C2.51077 19.6398 2.32574 19.8158 2.14097 19.9915C2.14094 19.9915 2.14091 19.9915 2.14088 19.9916C2.11905 20.0123 2.03647 19.9756 1.9566 19.9096C1.87677 19.8436 1.82969 19.7732 1.85148 19.7525C2.03636 19.5767 2.22094 19.4013 2.41036 19.2003C2.47232 19.1346 2.53452 19.0665 2.59578 18.9992C2.72124 18.8615 2.84304 18.7277 2.95279 18.6266C3.08679 18.5032 3.20639 18.4257 3.3084 18.3654C3.33297 18.3509 3.35636 18.3375 3.37855 18.3247C3.4492 18.2842 3.50803 18.2505 3.55573 18.2101C3.77744 18.022 3.85878 17.7888 3.90715 17.6502C3.91573 17.6257 3.92333 17.6041 3.93043 17.5863C3.99196 17.4316 4.03389 17.2546 4.07155 17.0816C4.07766 17.0536 4.08372 17.0256 4.08967 16.9978C4.08965 16.9978 4.08964 16.9977 4.08962 16.9976C4.12022 16.8549 4.14962 16.7178 4.18658 16.6037C4.2241 16.4879 4.2305 16.3656 4.23652 16.2513C4.23975 16.1899 4.24298 16.1309 4.25071 16.0763C4.27732 15.8884 4.34299 15.7568 4.56821 15.4711ZM3.37877 20.8535C3.46056 20.8272 3.50512 20.7879 3.53011 20.7521C3.4985 20.7741 3.46654 20.7958 3.43426 20.8172C3.41588 20.8294 3.3974 20.8415 3.37877 20.8535ZM4.96096 17.4279C4.95838 17.4408 4.9558 17.4538 4.95322 17.4668C4.97138 17.4397 4.9897 17.4127 5.00799 17.3858C5.03044 17.3527 5.05303 17.3197 5.07564 17.2868C5.03484 17.3352 4.99595 17.3827 4.96096 17.4279ZM5.23354 16.0144C5.10742 16.1725 5.09744 16.3589 5.08851 16.527C5.08594 16.5755 5.08338 16.6224 5.07822 16.6666C5.07608 16.685 5.07476 16.704 5.07387 16.7235C5.13608 16.656 5.19387 16.5945 5.24124 16.5441C5.38259 16.3939 5.4811 16.3231 5.56767 16.2608C5.59272 16.2428 5.61676 16.2254 5.64055 16.2071C5.64595 16.1804 5.65202 16.1531 5.65943 16.1265C5.6697 16.0891 5.68227 16.05 5.69541 16.0137C5.70857 15.9772 5.72315 15.9411 5.73871 15.9066C5.75439 15.8719 5.77111 15.8384 5.78856 15.8057C5.80496 15.775 5.82208 15.745 5.83865 15.7159C5.8396 15.7143 5.84055 15.7126 5.8415 15.711C5.85897 15.6802 5.87604 15.6504 5.88975 15.6214C5.90364 15.5918 5.91308 15.5655 5.91699 15.5385C5.92191 15.5049 5.92785 15.4711 5.9345 15.4383C5.94114 15.4055 5.94854 15.3735 5.9566 15.3421C5.96469 15.3106 5.97328 15.2799 5.98245 15.2496C5.98541 15.2398 5.98856 15.2296 5.9916 15.22C5.99301 15.2155 5.99437 15.2111 5.99579 15.2066C5.95869 15.2504 5.91964 15.2955 5.87849 15.3414C5.81905 15.4077 5.74977 15.4738 5.67339 15.5467C5.54311 15.6711 5.39217 15.8155 5.23354 16.0144ZM6.51695 14.5096C6.50201 14.5296 6.48131 14.5598 6.45461 14.5988C6.44829 14.6081 6.44173 14.6179 6.43474 14.628C6.43499 14.6279 6.43518 14.6276 6.43543 14.6275C6.46207 14.6098 6.48628 14.5931 6.51142 14.5743C6.55618 14.5408 6.59845 14.5073 6.63974 14.4723C6.68118 14.4371 6.72111 14.4009 6.75975 14.3636C6.79844 14.3263 6.83579 14.2876 6.87138 14.2481C6.90729 14.2082 6.94138 14.1679 6.97389 14.1256C6.98425 14.1121 6.99445 14.0984 7.00446 14.0846C6.97318 14.1082 6.94228 14.134 6.90965 14.1613C6.88359 14.1831 6.85639 14.2057 6.82703 14.229C6.81579 14.2379 6.80141 14.248 6.78463 14.2598C6.7181 14.3067 6.61365 14.3801 6.51695 14.5096ZM7.19175 13.6888C7.1976 13.6776 7.2036 13.6667 7.20981 13.656C7.2275 13.6258 7.24639 13.5977 7.2654 13.5705C7.27876 13.5514 7.29231 13.5328 7.30559 13.5144C7.31119 13.5067 7.31675 13.4989 7.32227 13.4912C7.33153 13.4783 7.34057 13.4654 7.34952 13.4526C7.27187 13.5306 7.19782 13.6082 7.12555 13.6932C7.1246 13.6943 7.12372 13.6955 7.12276 13.6966C7.14627 13.6939 7.16926 13.6914 7.19175 13.6888Z" fill="white"/>
<path d="M7.23767 20.5042C7.27175 20.5428 7.28344 20.5962 7.29815 20.6636C7.29818 20.6636 7.2982 20.6636 7.29822 20.6636C7.30032 20.6733 7.30243 20.6832 7.30473 20.6934C7.32326 20.7756 7.35109 20.8792 7.4256 21.0078C7.50794 21.1499 7.51083 21.3156 7.48467 21.4404C7.47979 21.4637 7.48169 21.4819 7.49918 21.5171C7.51065 21.5402 7.52827 21.5696 7.55366 21.6121C7.56716 21.6347 7.58292 21.661 7.60108 21.692C7.66121 21.7946 7.78465 21.9306 7.89848 22.0559C7.96757 22.132 8.03312 22.2041 8.07871 22.2624C8.14539 22.3477 8.19845 22.4396 8.25605 22.5395C8.3088 22.631 8.36534 22.7293 8.4399 22.8353C8.4971 22.9166 8.50111 23.0392 8.49933 23.1688C8.4991 23.1853 8.49882 23.202 8.4985 23.2186C8.49629 23.3335 8.49394 23.4511 8.52158 23.5526C8.57086 23.7336 8.68352 23.8161 8.80826 23.9073C8.85705 23.943 8.90771 23.98 8.95713 24.0248C9.03529 24.0957 9.13029 24.2123 9.22482 24.3301C9.23287 24.3402 9.24101 24.3502 9.24905 24.3602C9.24909 24.3602 9.24913 24.3603 9.24917 24.3603C9.33564 24.4682 9.4205 24.5741 9.49093 24.6449C9.60285 24.7574 9.66436 24.7833 9.71572 24.8048C9.73503 24.8129 9.75296 24.8204 9.77152 24.8317C9.83836 24.8722 9.90715 24.9607 9.97691 25.0503C9.97719 25.0506 9.97747 25.051 9.97775 25.0513C9.98932 25.0662 9.93448 25.1325 9.85527 25.1994C9.77606 25.2663 9.70242 25.3085 9.69084 25.2936C9.65389 25.2462 9.61782 25.1999 9.58258 25.1609C9.51282 25.2163 9.45221 25.2491 9.44179 25.2357C9.41569 25.2022 9.28051 25.1464 9.06542 25.0619C9.06203 25.0831 9.0575 25.1022 9.05264 25.1197C9.04694 25.1402 9.0413 25.157 9.03649 25.1715C9.02648 25.2015 9.01992 25.2214 9.02248 25.2448C9.04021 25.2888 9.0836 25.3449 9.12944 25.4038C9.14099 25.4187 9.08627 25.4849 9.0071 25.5517C8.92791 25.6186 8.85427 25.6608 8.84267 25.646C8.84243 25.6457 8.84219 25.6454 8.84196 25.6451C8.79656 25.5868 8.75167 25.529 8.73339 25.4828C8.72874 25.4711 8.72573 25.4601 8.72405 25.4514C8.7227 25.4444 8.72131 25.4354 8.72318 25.4282C8.72343 25.4273 8.72397 25.4254 8.72504 25.4228C8.72508 25.4227 8.72511 25.4227 8.72514 25.4226C8.72573 25.4212 8.72868 25.4138 8.73776 25.401C8.7396 25.3984 8.74372 25.3926 8.7509 25.3839C8.75122 25.3829 8.75153 25.382 8.75185 25.381C8.75622 25.3679 8.76068 25.3544 8.76448 25.3407C8.77934 25.2872 8.79153 25.2121 8.77172 25.0938C8.7535 24.9851 8.66928 24.8465 8.54048 24.6936C8.54328 24.7089 8.54628 24.7241 8.5495 24.7391C8.55761 24.7768 8.56705 24.8136 8.57709 24.8499C8.58095 24.8638 8.58479 24.8775 8.58885 24.8913C8.59537 24.9136 8.60206 24.9358 8.60891 24.9578C8.61353 24.9727 8.61825 24.9876 8.62293 25.0025C8.62296 25.0025 8.62298 25.0025 8.623 25.0026C8.6295 25.0232 8.63599 25.0439 8.6424 25.0649C8.6445 25.0724 8.64664 25.0797 8.64881 25.0869C8.65743 25.1157 8.666 25.1439 8.66885 25.1823C8.66844 25.1876 8.6674 25.1939 8.6663 25.1989C8.66518 25.2041 8.66393 25.2094 8.6625 25.2145C8.66124 25.219 8.65985 25.2235 8.6586 25.2278C8.65844 25.2283 8.65828 25.2289 8.65811 25.2294C8.65672 25.2342 8.65548 25.2386 8.65434 25.2429C8.6532 25.2471 8.65211 25.2511 8.65133 25.2549C8.65135 25.2549 8.65136 25.2549 8.65138 25.2549C8.65062 25.2588 8.65005 25.2617 8.64972 25.2654C8.6493 25.2701 8.64916 25.2739 8.64943 25.2782C8.64968 25.2823 8.65023 25.2863 8.65101 25.2902C8.65179 25.2941 8.6528 25.2979 8.65396 25.3016C8.65511 25.3054 8.65639 25.3091 8.65781 25.3127C8.65923 25.3163 8.6608 25.3199 8.66237 25.3235C8.66395 25.3271 8.66555 25.3307 8.6672 25.3343C8.67098 25.3426 8.66054 25.3625 8.63758 25.39C8.61461 25.4175 8.58117 25.4503 8.54424 25.4815C8.5073 25.5127 8.46955 25.5401 8.43894 25.5578C8.40833 25.5755 8.38745 25.5821 8.38043 25.5765C8.37853 25.575 8.37657 25.5735 8.37466 25.572C8.37352 25.571 8.37244 25.5701 8.37131 25.5691C8.36827 25.5666 8.36515 25.5642 8.3622 25.5615C8.35925 25.5588 8.35642 25.556 8.35366 25.5531C8.35089 25.5502 8.3482 25.5471 8.34575 25.5438C8.3433 25.5404 8.34105 25.5368 8.33912 25.5328C8.33722 25.5289 8.33552 25.5241 8.3345 25.5194C8.3337 25.516 8.3333 25.5113 8.3331 25.5073C8.3329 25.5031 8.33297 25.4987 8.3332 25.4943C8.33343 25.49 8.33386 25.4856 8.33425 25.4814C8.33428 25.481 8.33431 25.4805 8.33434 25.4801C8.33468 25.4764 8.33503 25.4728 8.33524 25.4695C8.33549 25.4659 8.33553 25.4625 8.33541 25.4595C8.33531 25.4562 8.33491 25.4544 8.33436 25.4523C8.32227 25.4287 8.30069 25.4051 8.28015 25.3826C8.27757 25.3798 8.27503 25.3769 8.27251 25.3741C8.25891 25.3594 8.24516 25.3449 8.23142 25.3304C8.22143 25.3199 8.21141 25.3093 8.20147 25.2987C8.18683 25.283 8.17232 25.2672 8.15799 25.2513C8.14911 25.2413 8.14049 25.2315 8.13181 25.2215C8.10914 25.1952 8.08705 25.1683 8.06626 25.1403C8.0455 25.1123 8.02588 25.0831 8.00834 25.052C7.99087 25.0211 7.97504 24.987 7.96396 24.9505C7.95595 24.9236 7.95393 24.8907 7.95366 24.859C7.95354 24.8419 7.95372 24.8249 7.95402 24.8081C7.95404 24.808 7.95406 24.808 7.95408 24.8079C7.95434 24.7931 7.95462 24.7785 7.95459 24.7643C7.95458 24.7337 7.9532 24.7048 7.94971 24.6777C7.94626 24.6506 7.94077 24.6254 7.93304 24.6019C7.92534 24.5785 7.91545 24.5565 7.90375 24.5364C7.892 24.5161 7.87866 24.4977 7.86319 24.4796C7.8427 24.456 7.82007 24.4344 7.79643 24.4126C7.77288 24.3911 7.74838 24.37 7.72378 24.3489C7.71517 24.3415 7.70666 24.334 7.69801 24.3267C7.69798 24.3266 7.69795 24.3266 7.69793 24.3266C7.68193 24.3129 7.66588 24.2992 7.64993 24.2854C7.62531 24.2641 7.60083 24.2426 7.57695 24.2204C7.55309 24.1982 7.52974 24.1754 7.50773 24.1511C7.48579 24.1268 7.46456 24.1007 7.4474 24.071C7.43196 24.0446 7.4177 24.0169 7.40383 23.9898C7.40017 23.9826 7.3965 23.9754 7.39284 23.9683C7.37535 23.9343 7.35731 23.9024 7.33527 23.8744C7.31337 23.8464 7.28744 23.8217 7.25803 23.7996C7.22872 23.7775 7.19603 23.7577 7.16124 23.7394C7.12629 23.7209 7.08993 23.7042 7.05186 23.688C7.01403 23.672 6.97504 23.6568 6.93488 23.6419C6.9126 23.6336 6.89017 23.6237 6.86976 23.6137C6.84915 23.6036 6.82944 23.5929 6.81034 23.5821C6.80259 23.5777 6.79497 23.5732 6.78736 23.5688C6.77626 23.5624 6.7653 23.556 6.75431 23.5499C6.73576 23.5395 6.71713 23.5299 6.69779 23.5216C6.67845 23.5133 6.65831 23.5064 6.63671 23.5016C6.61432 23.4966 6.59383 23.4942 6.5668 23.4935C6.50878 23.4852 6.48212 23.4721 6.45236 23.4578C6.4465 23.4549 6.44043 23.4521 6.43408 23.4492C6.39919 23.4313 6.36725 23.4109 6.33771 23.3892C6.30794 23.3672 6.28065 23.3438 6.25489 23.3185C6.22937 23.2935 6.20561 23.2666 6.1836 23.2385C6.16162 23.2104 6.14137 23.1809 6.1228 23.1499C6.10422 23.119 6.08705 23.0858 6.07216 23.0527C6.06354 23.0335 6.05558 23.0122 6.04875 22.9918C6.04382 22.9772 6.03925 22.9625 6.03477 22.9481C6.03295 22.9422 6.03113 22.9364 6.02931 22.9306C6.02304 22.9107 6.01666 22.8916 6.00934 22.8741C6.00202 22.8566 5.99378 22.8407 5.98383 22.8267C5.97388 22.8126 5.96221 22.8005 5.94857 22.7901C5.93432 22.7794 5.92096 22.7717 5.90167 22.7639C5.88904 22.7588 5.87652 22.754 5.86402 22.7491C5.8453 22.7419 5.82652 22.7349 5.80736 22.7281C5.78823 22.7213 5.76907 22.7148 5.7495 22.7085C5.74321 22.7065 5.73656 22.7043 5.73017 22.7024C5.71044 22.6963 5.69057 22.6906 5.67021 22.6854C5.64989 22.6801 5.62925 22.6754 5.60806 22.6712C5.58678 22.6669 5.56525 22.6633 5.54262 22.6601C5.50409 22.6549 5.477 22.6415 5.45517 22.6282C5.43323 22.6147 5.41504 22.6 5.39738 22.5857C5.39408 22.5831 5.39077 22.5804 5.38747 22.5777C5.37331 22.5661 5.35948 22.5546 5.34531 22.5438C5.32788 22.5304 5.31 22.5179 5.29127 22.506C5.27271 22.4942 5.25316 22.483 5.23279 22.4729C5.21221 22.4627 5.19167 22.4537 5.16839 22.4449C5.14544 22.4362 5.11951 22.4296 5.09117 22.4223C5.06308 22.415 5.03386 22.4072 5.00611 22.3977C4.97833 22.3883 4.95185 22.3772 4.92763 22.3645C4.90334 22.3518 4.8809 22.3374 4.86049 22.3217C4.83995 22.306 4.82125 22.2889 4.80396 22.2708C4.7867 22.2527 4.77027 22.2329 4.75606 22.2133C4.73306 22.1817 4.71109 22.1494 4.6894 22.1167C4.66787 22.0842 4.64666 22.0513 4.62573 22.0182C4.60484 21.9852 4.58411 21.952 4.5636 21.9187C4.54309 21.8854 4.52269 21.852 4.50238 21.8186C4.49789 21.8112 4.49339 21.8038 4.4889 21.7964C4.47309 21.7704 4.45728 21.7444 4.44146 21.7185C4.44138 21.7183 4.44129 21.7181 4.44121 21.7179C4.42079 21.6847 4.40071 21.6521 4.37974 21.6198C4.37201 21.6079 4.36456 21.5966 4.35675 21.5852C4.34894 21.5739 4.34109 21.5629 4.33294 21.552C4.32478 21.5411 4.31639 21.5305 4.3078 21.5203C4.29909 21.51 4.29029 21.5003 4.28082 21.491C4.27217 21.4824 4.26293 21.4744 4.25291 21.4656C4.252 21.4648 4.25108 21.464 4.25017 21.4632C4.2392 21.4537 4.22756 21.442 4.21848 21.4298C4.19468 21.3971 4.17034 21.3661 4.14438 21.3357C4.11841 21.3052 4.09136 21.2757 4.06359 21.2464C4.05276 21.235 4.04172 21.2236 4.03076 21.2122C4.01372 21.1944 3.99661 21.1765 3.97971 21.1584C3.95189 21.1285 3.92484 21.0979 3.89921 21.0658C3.87368 21.0337 3.84965 21.0001 3.82762 20.965C3.80559 20.9299 3.78519 20.8931 3.76681 20.8552C3.74637 20.8129 3.72703 20.77 3.708 20.7267C3.68902 20.6834 3.67051 20.6396 3.6524 20.5958C3.63421 20.5518 3.61638 20.5077 3.59883 20.4633C3.58127 20.4189 3.564 20.3743 3.54696 20.3294C3.53677 20.3026 3.52671 20.2756 3.51671 20.2486C3.50073 20.2434 3.48526 20.2384 3.47048 20.2336C3.3612 20.1982 3.28227 20.1725 3.19916 20.1208C3.18992 20.1169 3.18028 20.1156 3.16861 20.1139C3.16638 20.1136 3.16408 20.1132 3.16169 20.1128C3.14655 20.1105 3.12994 20.1072 3.11294 20.0974C3.07903 20.0779 3.04482 20.033 3.06469 19.9208C3.06972 19.8924 3.13848 19.8189 3.21834 19.7565C3.27436 19.7128 3.32097 19.6861 3.34207 19.6839C3.33704 19.6593 3.33246 19.6344 3.32786 19.6096C3.32604 19.5996 3.33852 19.5783 3.36303 19.5499C3.38756 19.5215 3.42197 19.4885 3.45915 19.4577C3.49633 19.4269 3.53346 19.4007 3.56287 19.3844C3.59225 19.3681 3.61143 19.3632 3.61651 19.3704C3.62994 19.3896 3.64329 19.4087 3.65713 19.4275C3.67097 19.4462 3.68523 19.4645 3.69988 19.4825C3.71451 19.5006 3.72955 19.5182 3.7449 19.5357C3.76021 19.5532 3.77575 19.5705 3.7916 19.5875C3.80753 19.6047 3.82349 19.6213 3.83975 19.6382C3.8495 19.6483 3.85935 19.6585 3.86915 19.6684C3.87278 19.6721 3.87644 19.6757 3.88001 19.6793C3.88294 19.6822 3.88583 19.6852 3.88883 19.6883C3.92071 19.7203 3.95321 19.7523 3.98571 19.7838C4.01833 19.8154 4.05112 19.8469 4.08409 19.8782C4.11707 19.9095 4.15028 19.9406 4.18356 19.9717C4.21684 20.0027 4.25023 20.0336 4.28386 20.0644C4.3174 20.0951 4.35116 20.1258 4.38521 20.1561C4.41155 20.1796 4.43797 20.2026 4.4647 20.2254C4.48091 20.2296 4.49663 20.234 4.51197 20.2385C4.55662 20.2515 4.60743 20.2595 4.65762 20.2672C4.60094 20.2258 4.5458 20.2008 4.49326 20.1769C4.48621 20.1737 4.47919 20.1706 4.47224 20.1674C4.40131 20.1349 4.33582 20.1009 4.28127 20.0268C4.12614 19.816 4.03821 19.6921 3.99568 19.6045C3.95317 19.5169 3.95428 19.4629 3.9841 19.3881C4.02624 19.2824 4.00321 19.1668 3.97135 19.1259C3.95978 19.111 4.01464 19.0447 4.09383 18.9778C4.17304 18.9109 4.24668 18.8686 4.25826 18.8835C4.2919 18.9267 4.31968 19.0495 4.26954 19.1752C4.2472 19.2312 4.24202 19.2783 4.28389 19.3645C4.32577 19.4508 4.41296 19.5735 4.56839 19.7847C4.62098 19.8561 4.68379 19.889 4.75396 19.9212C4.76084 19.9244 4.76787 19.9275 4.77489 19.9306C4.77492 19.9307 4.77495 19.9307 4.77497 19.9307C4.83971 19.9601 4.91022 19.992 4.98234 20.0545C5.14857 20.1985 5.38752 20.3792 5.46062 20.4082C5.47497 20.4139 5.48971 20.4187 5.5052 20.4238C5.56469 20.4433 5.63647 20.4668 5.7502 20.5605C5.77507 20.581 5.80162 20.6072 5.82897 20.6372C5.90684 20.651 5.98077 20.6658 6.03519 20.687C6.08216 20.7053 6.1423 20.708 6.20484 20.7069C6.22285 20.7066 6.24139 20.706 6.25987 20.7053C6.30444 20.7038 6.349 20.7023 6.38706 20.7054C6.41739 20.7079 6.4517 20.7083 6.48798 20.7087C6.6201 20.7103 6.77843 20.7123 6.86694 20.8145C6.96078 20.9228 7.02354 21.0304 7.0758 21.1248C7.04422 21.0497 7.02778 20.985 7.01538 20.9301C7.01304 20.9197 7.01085 20.9097 7.00874 20.9001C6.99387 20.8322 6.98306 20.7829 6.95139 20.747C6.80012 20.5756 6.72044 20.5307 6.58775 20.5162C6.55281 20.5124 6.51004 20.5118 6.46398 20.5111C6.37194 20.5098 6.26668 20.5082 6.18401 20.4808C6.10702 20.4552 6.00937 20.4364 5.90596 20.4164C5.90594 20.4163 5.90592 20.4163 5.9059 20.4163C5.88569 20.4124 5.86526 20.4084 5.84472 20.4044C5.71946 20.3796 5.59053 20.3513 5.48602 20.3059C5.47484 20.301 5.4607 20.2958 5.44444 20.2899C5.3506 20.2557 5.18584 20.1956 5.10831 20.0177C5.09128 19.9786 5.08368 19.9294 5.07509 19.8732C5.07247 19.8561 5.06984 19.8383 5.06672 19.82C5.05328 19.7409 5.03219 19.6489 4.97996 19.5468C4.93686 19.4625 4.87218 19.3701 4.8051 19.2741C4.77205 19.2268 4.73849 19.1785 4.70651 19.1301C4.60992 18.9837 4.53205 18.8405 4.4544 18.6975C4.45438 18.6974 4.45436 18.6974 4.45434 18.6974C4.44516 18.6805 4.50229 18.6129 4.58181 18.5464C4.6613 18.48 4.73323 18.4399 4.74243 18.4567C4.82012 18.5998 4.89764 18.7427 4.99391 18.8886C5.0254 18.9363 5.05871 18.9842 5.09163 19.0313C5.15903 19.1278 5.22464 19.2215 5.26814 19.3065C5.32126 19.4104 5.34271 19.5041 5.35634 19.5842C5.35962 19.6035 5.36242 19.6219 5.3651 19.6394C5.37361 19.6949 5.38058 19.7412 5.39673 19.7783C5.4718 19.9506 5.6302 20.0085 5.72429 20.0429C5.74098 20.049 5.75559 20.0544 5.76741 20.0596C5.86987 20.1041 5.99676 20.1321 6.1219 20.1568C6.1422 20.1608 6.16243 20.1647 6.18255 20.1686C6.18262 20.1686 6.18268 20.1686 6.18275 20.1686C6.28614 20.1886 6.3855 20.2078 6.46392 20.2338C6.54352 20.2603 6.63879 20.2614 6.72787 20.2626C6.77568 20.2632 6.8216 20.2639 6.8625 20.2683C7.00327 20.2836 7.08592 20.3322 7.23767 20.5042ZM3.35024 19.7216C3.34358 19.7866 3.35985 19.8212 3.38 19.8401C3.37308 19.8154 3.3666 19.7904 3.36041 19.7651C3.35688 19.7507 3.35349 19.7362 3.35024 19.7216ZM5.54614 20.8838C5.53674 20.8821 5.52724 20.8805 5.51771 20.8788C5.53319 20.8926 5.54851 20.9064 5.56382 20.9203C5.58261 20.9373 5.60126 20.9544 5.61988 20.9715C5.59504 20.9402 5.57033 20.9105 5.54614 20.8838ZM6.58046 21.0573C6.49698 20.9609 6.35183 20.9589 6.22088 20.9572C6.18317 20.9567 6.14666 20.9562 6.11313 20.9535C6.09922 20.9523 6.08453 20.9519 6.06927 20.9518C6.10207 20.9997 6.13164 21.0442 6.15577 21.0807C6.2278 21.1896 6.25103 21.2665 6.27146 21.3342C6.27737 21.3538 6.28308 21.3725 6.28964 21.3911C6.30909 21.3946 6.32884 21.3986 6.34753 21.4037C6.37382 21.4107 6.40079 21.4196 6.4253 21.429C6.44993 21.4384 6.47378 21.4489 6.49598 21.4603C6.51838 21.4718 6.53941 21.4842 6.55954 21.4972C6.57851 21.5094 6.59665 21.5222 6.61421 21.5346C6.61521 21.5353 6.61622 21.536 6.61722 21.5367C6.63581 21.5498 6.65382 21.5626 6.67232 21.5726C6.6912 21.5829 6.70898 21.5896 6.72913 21.5919C6.75427 21.5948 6.77919 21.5984 6.80307 21.6027C6.82698 21.607 6.85003 21.6119 6.87233 21.6174C6.89467 21.6229 6.91622 21.6288 6.93728 21.6352C6.94409 21.6373 6.95116 21.6395 6.95781 21.6416C6.96088 21.6426 6.96398 21.6435 6.96701 21.6445C6.94464 21.6161 6.92193 21.5861 6.89923 21.5545C6.86643 21.5088 6.83714 21.4552 6.80478 21.3961C6.74957 21.2953 6.68545 21.1785 6.58046 21.0573ZM7.34667 22.0413C7.33577 22.03 7.31866 22.0143 7.29659 21.9941C7.29137 21.9893 7.28578 21.9843 7.28002 21.979C7.28007 21.9792 7.28019 21.9794 7.28024 21.9796C7.28536 22.0004 7.29046 22.0194 7.29695 22.039C7.30855 22.0739 7.32103 22.1068 7.335 22.1389C7.34904 22.1712 7.36441 22.2021 7.38111 22.232C7.39784 22.2619 7.41604 22.2907 7.43549 22.3181C7.45516 22.3457 7.47584 22.3718 7.49858 22.3966C7.50582 22.4045 7.51327 22.4123 7.52091 22.4199C7.51263 22.3955 7.50251 22.3714 7.49179 22.3461C7.48323 22.3258 7.47432 22.3047 7.46569 22.2818C7.46239 22.273 7.45916 22.2618 7.45541 22.2487C7.44053 22.1966 7.41724 22.115 7.34667 22.0413ZM7.7731 22.5578C7.78004 22.5621 7.78677 22.5666 7.79314 22.5712C7.81126 22.5845 7.82731 22.5988 7.84255 22.6132C7.85325 22.6233 7.86349 22.6336 7.87366 22.6437C7.87795 22.648 7.88228 22.6522 7.88654 22.6564C7.89368 22.6634 7.90091 22.6703 7.90812 22.6771C7.87219 22.6171 7.83526 22.56 7.79195 22.5046C7.79138 22.5039 7.79072 22.5032 7.79014 22.5025C7.78436 22.5213 7.77867 22.5398 7.7731 22.5578Z" fill="white"/>
</svg>
